<svg width="378" height="275" viewBox="0 0 378 275" fill="none" xmlns="http://www.w3.org/2000/svg">
<path d="M346.693 155.269C346.693 155.269 256.579 155.552 179.005 151.278C101.431 147.004 -6.09997 153.778 0.270452 166.72C6.64088 179.662 41.3154 165.591 92.2788 208.208C143.202 250.826 360.885 280.944 375.642 265.341C390.439 249.737 313.792 251.108 318.147 216.877C322.541 182.646 381.448 169.542 346.693 155.269Z" fill="#CCEBFF"/>
<path d="M105.336 15.1531L106.398 20.382C104.121 21.3007 101.949 22.4019 99.9088 23.6787L96.38 19.6929C95.4157 18.6052 93.7511 18.514 92.6583 19.4902L85.8137 25.6041C84.7175 26.5837 84.6092 28.2591 85.5701 29.3535L89.1294 33.3968C87.6238 35.312 86.284 37.3556 85.1269 39.5005L80.0011 37.8015C78.6207 37.3421 77.1185 38.1055 76.6448 39.5039L73.6911 48.266C73.2174 49.6712 73.955 51.1811 75.3422 51.6439L80.4849 53.3564C80.1229 55.7513 79.9706 58.1969 80.0248 60.6728L74.6655 61.8044C73.2276 62.1084 72.2904 63.5338 72.5712 64.9897L74.3441 74.1065C74.6283 75.5691 76.029 76.5047 77.4703 76.2007L82.8465 75.0658C83.7329 77.383 84.8021 79.5955 86.0472 81.6728L81.9364 85.3749C80.8266 86.3748 80.715 88.0907 81.686 89.2122L87.7761 96.2279C88.7505 97.3528 90.4422 97.4507 91.5519 96.4475L95.6627 92.7353C97.5709 94.2789 99.6111 95.6503 101.756 96.836L100.014 102.132C99.5434 103.568 100.298 105.115 101.702 105.588L110.499 108.56C111.906 109.037 113.429 108.256 113.899 106.817L115.614 101.562C118.023 101.926 120.487 102.068 122.98 101.997L124.08 107.419C124.381 108.902 125.805 109.858 127.26 109.55L136.361 107.628C137.816 107.321 138.75 105.868 138.442 104.385L137.332 99.0113C139.663 98.079 141.88 96.9542 143.96 95.6503L147.54 99.7172C148.535 100.845 150.236 100.947 151.339 99.9402L158.242 93.654C159.345 92.6508 159.429 90.9247 158.434 89.7999L154.865 85.7702C156.394 83.7975 157.748 81.6897 158.911 79.4806L163.963 81.1628C165.374 81.6323 166.886 80.8588 167.339 79.4299L170.171 70.5294C170.625 69.1073 169.847 67.5771 168.439 67.111L163.435 65.4525C163.773 63.0035 163.888 60.5005 163.79 57.9739L168.93 56.8896C170.371 56.5856 171.288 55.1568 170.977 53.701L169.024 44.6213C168.713 43.1722 167.295 42.2433 165.854 42.5473L160.728 43.6282C159.791 41.2975 158.671 39.0749 157.372 36.9975L161.246 33.4981C162.335 32.5152 162.42 30.8296 161.435 29.7318L155.288 22.8917C154.307 21.8006 152.629 21.7094 151.542 22.689L147.645 26.1986C145.713 24.6853 143.652 23.3443 141.49 22.1925L143.121 17.1967C143.575 15.805 142.817 14.312 141.426 13.8594L132.751 11.0253C131.367 10.5727 129.872 11.3294 129.415 12.7176L127.768 17.727C125.382 17.3926 122.95 17.2743 120.487 17.3655L119.417 12.1806C119.123 10.7551 117.729 9.8431 116.301 10.1437L107.379 12.0286C105.968 12.3258 105.048 13.7276 105.336 15.1531ZM90.1444 65.9895C86.6325 48.3437 97.916 31.1336 115.327 27.4552C132.741 23.7767 149.841 34.9911 153.545 52.5998C157.271 70.3132 146.038 87.7665 128.434 91.4855C110.83 95.2011 93.6801 83.7435 90.1444 65.9895Z" fill="#D8DEE8"/>
<path d="M321.462 183.886L319.392 59.6056C319.348 57.0587 317.21 54.9239 314.631 54.8631L100.623 49.8335C97.3648 49.7558 94.7326 52.0459 94.7799 54.9205L97.0705 192.267L97.5272 219.695C97.5746 222.569 100.285 224.765 103.536 224.572L317.25 211.993C319.825 211.841 321.892 209.632 321.852 207.085L321.462 183.886Z" fill="#97A6B7"/>
<path d="M248.666 240.708C244.792 239.496 241.855 236.28 240.975 232.277L234.905 204.653L186.95 207.153L181.526 236.125C180.765 240.181 184.145 244.184 187.981 245.61L208.187 253.119C211.946 254.514 215.969 255.03 219.951 254.622L262.317 250.295C263.556 250.17 264.534 249.18 264.659 247.927C264.784 246.677 265.626 245.258 264.439 244.887L248.666 240.708Z" fill="#97A6B7"/>
<path d="M249.111 239.016C245.241 237.82 242.308 234.642 241.431 230.693L235.372 203.417L188.586 205.876L183.163 234.486C182.402 238.492 184.655 242.461 188.488 243.867L208.673 251.278C212.429 252.656 216.445 253.162 220.427 252.76L262.75 248.477C263.988 248.352 264.966 247.376 265.088 246.14C265.213 244.904 264.448 243.752 263.257 243.387L249.111 239.016Z" fill="url(#paint0_linear)"/>
<path d="M324.84 183.886L322.769 59.6056C322.725 57.0587 320.587 54.9239 318.009 54.8631L104.004 49.8335C100.746 49.7558 98.1134 52.0459 98.1608 54.9205L100.451 192.267L324.84 183.886Z" fill="#D8DEE8"/>
<path d="M318.065 76.4711L317.883 65.4897C317.845 63.1489 315.873 61.1965 313.501 61.1458L110.201 56.9539C107.241 56.8931 104.845 58.9874 104.889 61.612L105.096 73.9242L106.879 181.214C106.923 183.893 109.437 185.97 112.458 185.835L315.332 176.702C317.754 176.594 319.696 174.55 319.656 172.162L318.065 76.4711Z" fill="url(#paint1_linear)"/>
<path d="M100.447 192.267L100.904 219.695C100.951 222.569 103.661 224.765 106.913 224.573L320.627 211.993C323.202 211.841 325.269 209.632 325.228 207.085L324.829 183.086L100.447 192.267Z" fill="url(#paint2_linear)"/>
<path d="M256.569 93.7351V183.69C256.569 186.747 254.031 189.341 250.875 189.483L116.203 195.563C112.627 195.722 109.73 193.206 109.73 189.939V93.8161C109.73 93.6135 109.741 93.4108 109.761 93.2115C110.038 90.6545 112.109 88.5771 114.806 88.04C115.137 87.9725 115.486 87.9387 115.834 87.9184C115.912 87.9117 115.99 87.8779 116.071 87.8745C116.115 87.8745 116.159 87.834 116.206 87.834H116.338L250.858 88.1448C253.618 88.1515 255.912 90.0701 256.44 92.5934C256.515 92.9582 256.569 93.35 256.569 93.7351Z" fill="url(#paint3_linear)"/>
<path opacity="0.3" d="M252.509 180.941C252.509 183.829 250.171 186.271 247.187 186.403L120.212 191.942C116.856 192.088 114.129 189.716 114.129 186.642V96.5961C114.129 93.5222 116.893 91.0328 120.249 91.0361L247.166 91.124C250.151 91.1273 252.505 93.4682 252.505 96.3562V180.941H252.509Z" fill="white"/>
<path d="M256.569 93.7356V98.1741L252.779 98.1842L116.534 98.5423L114.132 98.549L109.73 98.5625V93.82C109.73 93.6174 109.741 93.4147 109.761 93.2154C110.052 90.6989 112.15 88.6114 114.809 88.0338C115.296 87.9257 115.797 87.8379 116.311 87.8379H116.335L250.854 88.1757H250.973C253.73 88.1757 255.929 90.0909 256.433 92.6108C256.515 92.9722 256.569 93.3505 256.569 93.7356Z" fill="url(#paint4_linear)"/>
<path d="M119.772 93.3364C119.772 94.5997 118.652 95.6232 117.268 95.6265C115.884 95.6299 114.758 94.603 114.758 93.3397C114.758 92.0764 115.881 91.0496 117.268 91.0496C118.652 91.0496 119.772 92.0731 119.772 93.3364Z" fill="white"/>
<path d="M127.377 93.333C127.377 94.5896 126.264 95.6131 124.89 95.6131C123.513 95.6165 122.396 94.593 122.396 93.333C122.396 92.0731 123.513 91.0496 124.89 91.053C126.267 91.053 127.377 92.0731 127.377 93.333Z" fill="white"/>
<path d="M134.937 93.3297C134.937 94.5828 133.83 95.603 132.467 95.603C131.1 95.6063 129.99 94.5862 129.99 93.3297C129.99 92.0731 131.1 91.0564 132.467 91.0564C133.834 91.0598 134.937 92.0765 134.937 93.3297Z" fill="white"/>
<g opacity="0.9">
<path opacity="0.9" d="M161.496 184.325L118.865 186.075V133.239L161.496 132.479V184.325Z" fill="white"/>
<path opacity="0.9" d="M206.495 182.467L165.557 184.163V132.408L206.495 131.671V182.467Z" fill="white"/>
<path opacity="0.9" d="M249.802 180.701L210.217 182.312V131.604L249.802 130.901V180.701Z" fill="white"/>
<path opacity="0.9" d="M249.802 127.662L118.865 129.8V104.477L249.802 103.794V127.662Z" fill="white"/>
</g>
<path opacity="0.1" d="M256.569 180.113V183.69C256.569 186.747 254.031 189.341 250.875 189.483L116.203 195.563C112.627 195.722 109.73 193.206 109.73 189.939V93.8161C109.73 93.6135 109.741 93.4108 109.761 93.2115C110.038 90.6545 112.109 88.5771 114.806 88.04C114.809 88.0468 114.809 88.0569 114.809 88.0637C114.877 89.2358 114.998 90.5869 115.195 92.0495C115.249 92.438 115.306 92.8366 115.374 93.2419C115.469 93.8533 115.58 94.4849 115.709 95.1267C115.929 96.2347 116.199 97.3798 116.528 98.5417C117.103 100.575 117.854 102.659 118.842 104.679C121.961 111.06 127.409 116.779 136.902 118.262C152.912 120.765 169.809 121.008 181.877 128.77C183.38 129.733 184.807 130.82 186.151 132.036C190.238 135.742 193.526 140.707 195.709 147.463C198.162 155.053 201.924 158.745 206.556 160.626C207.757 161.116 209.019 161.484 210.328 161.761C221.399 164.126 236.066 160.363 249.626 172.408C250.1 172.827 250.577 173.273 251.047 173.732C251.649 174.324 252.245 174.911 252.786 175.499C254.227 177.049 255.554 178.59 256.569 180.113Z" fill="url(#paint5_linear)"/>
<path d="M321.869 36.9544V132.084C321.869 135.314 319.328 138.002 316.259 138.087L185.647 141.62C182.179 141.715 179.425 138.996 179.425 135.547V34.0765C179.425 33.9718 179.391 33.8637 179.395 33.759C179.456 32.5058 179.855 31.3573 180.538 30.4216C180.572 30.3777 180.592 30.3338 180.633 30.2899C181.746 28.8374 183.502 27.9288 185.522 27.9727C185.576 27.9727 185.627 27.9761 185.681 27.9761L188.087 28.0301L316.259 30.9756C319.328 31.0432 321.869 33.7184 321.869 36.9544Z" fill="url(#paint6_linear)"/>
<path opacity="0.3" d="M317.808 128.777C317.808 131.83 315.518 134.364 312.618 134.435L189.402 137.552C186.151 137.633 183.488 135.073 183.488 131.827V36.7745C183.488 33.5318 186.178 30.9578 189.429 31.0288L312.594 33.6973C315.494 33.7614 317.808 36.2847 317.808 39.3383V128.777Z" fill="white"/>
<path d="M321.87 36.8419V41.3479L317.942 41.277L190.524 38.9632L183.595 38.8382L179.43 38.7639V33.9606C179.43 33.893 179.392 33.8289 179.399 33.7579C179.436 32.498 179.846 31.3529 180.543 30.4206C180.577 30.3767 180.597 30.3328 180.638 30.2889C181.764 28.8668 183.534 27.9751 185.527 27.9717C185.581 27.9717 185.631 27.9751 185.686 27.9751L188.091 28.0291L316.203 30.9746L316.406 30.978C319.471 31.0421 321.87 33.6093 321.87 36.8419Z" fill="url(#paint7_linear)"/>
<path d="M189.013 33.6501C189.013 34.9809 187.927 36.0416 186.587 36.0145C185.244 35.9875 184.158 34.8863 184.158 33.5487C184.158 32.2145 185.248 31.1538 186.587 31.1842C187.927 31.2146 189.013 32.3158 189.013 33.6501Z" fill="white"/>
<path d="M196.385 33.802C196.385 35.1295 195.306 36.1868 193.976 36.1598C192.643 36.1327 191.561 35.0349 191.561 33.7041C191.561 32.3732 192.643 31.3159 193.976 31.3463C195.306 31.3734 196.385 32.4712 196.385 33.802Z" fill="white"/>
<path d="M203.707 33.9507C203.707 35.2748 202.634 36.3253 201.315 36.3016C199.992 36.2746 198.916 35.1802 198.916 33.8527C198.916 32.5252 199.992 31.4747 201.315 31.5017C202.634 31.5321 203.707 32.6266 203.707 33.9507Z" fill="white"/>
<g opacity="0.9">
<path opacity="0.9" d="M223.074 130.851L187.887 131.651V75.8765L223.074 75.944V130.851Z" fill="white"/>
<path opacity="0.9" d="M315.101 72.6877L187.887 72.2452V45.5164L315.101 47.4519V72.6877Z" fill="white"/>
<path opacity="0.9" d="M315.102 101.041L226.119 101.903V75.9507L315.102 76.1162V101.041Z" fill="white"/>
<path opacity="0.9" d="M315.102 128.77L226.119 130.78V105.149L315.102 104.156V128.77Z" fill="white"/>
</g>
<path opacity="0.1" d="M321.869 112.624V132.08C321.869 135.31 319.328 137.998 316.259 138.083L185.648 141.616C182.18 141.711 179.426 138.991 179.426 135.543V33.9575C179.426 33.8899 179.389 33.8257 179.395 33.7548C179.433 32.4949 179.842 31.3498 180.539 30.4175C180.573 30.3736 180.593 30.3297 180.634 30.2858C181.747 28.8333 183.503 27.9247 185.523 27.9686C185.577 27.9686 185.628 27.9719 185.682 27.9719L188.087 28.026C188.199 28.9954 188.216 30.0223 188.395 31.0863C188.486 31.6065 188.564 32.1436 188.564 32.6806C188.564 32.684 188.564 32.6874 188.564 32.6874C188.903 32.9948 188.818 33.3055 188.889 33.6163C189.265 35.3593 189.813 37.1597 190.432 38.9601C191.213 41.2232 192.245 43.4796 193.514 45.6009C196.874 51.2182 202.159 55.8898 210.411 57.2544C229.006 60.3384 248.775 60.2641 261.178 72.4986C262.271 73.5728 263.31 74.7449 264.277 76.0183C266.913 79.484 269.089 83.7299 270.682 88.9622C272.587 95.2078 275.263 99.0248 278.515 101.393C280.66 102.96 283.055 103.892 285.64 104.48C294.044 106.388 304.479 104.632 314.977 108.918C315.945 109.314 316.973 109.756 317.938 110.259C319.233 110.942 320.177 111.722 321.869 112.624Z" fill="url(#paint8_linear)"/>
<path d="M298.185 61.2267V157.694C298.185 160.974 295.57 163.724 292.227 163.835L149.73 168.726C145.951 168.855 142.889 166.122 142.889 162.623V59.6256C142.889 56.1261 145.991 53.3293 149.774 53.3766L149.953 53.3799L151.361 53.3968L292.21 55.2141C293.55 55.2411 294.775 55.6938 295.76 56.4403C295.804 56.474 295.875 56.5112 295.919 56.545C297.296 57.6495 298.185 59.3384 298.185 61.2267Z" fill="url(#paint9_linear)"/>
<path opacity="0.3" d="M294.803 155.006C294.803 158.1 292.103 160.694 288.943 160.799L154.684 165.22C151.135 165.338 148.303 162.764 148.303 159.471V63.0101C148.303 59.7167 151.06 57.082 154.609 57.1225L289.004 58.6527C292.164 58.6898 294.803 61.2266 294.803 64.3207V155.006Z" fill="white"/>
<path d="M298.185 61.4735V66.314L294.745 66.2869L153.029 65.1419L148.326 65.1047L142.889 65.0608V59.8927C142.889 56.3933 146.187 53.3363 149.97 53.3836L151.371 53.4005L292.214 55.2178L292.346 55.2211C293.652 55.238 294.819 55.694 295.756 56.4439C295.8 56.4777 295.871 56.5149 295.915 56.5486C297.309 57.7174 298.185 59.538 298.185 61.4735Z" fill="url(#paint10_linear)"/>
<path d="M153.63 59.487C153.63 60.8382 152.446 61.9258 150.985 61.9123C149.52 61.8988 148.332 60.7875 148.332 59.433C148.332 58.0785 149.52 56.9942 150.985 57.0077C152.446 57.028 153.63 58.1359 153.63 59.487Z" fill="white"/>
<path d="M161.673 59.5714C161.673 60.9192 160.495 62.0001 159.044 61.9866C157.589 61.9731 156.408 60.8652 156.408 59.5174C156.408 58.1663 157.589 57.0854 159.044 57.1022C160.499 57.1191 161.673 58.2237 161.673 59.5714Z" fill="white"/>
<path d="M169.664 59.656C169.664 61.0004 168.497 62.0779 167.052 62.0644C165.608 62.0509 164.434 60.9497 164.434 59.6019C164.434 58.2542 165.608 57.1767 167.052 57.1936C168.497 57.2104 169.664 58.3116 169.664 59.656Z" fill="white"/>
<g opacity="0.9">
<path opacity="0.9" d="M190.595 157.758L152.701 158.914V71.4985L190.595 71.708V157.758Z" fill="white"/>
<path opacity="0.9" d="M290.742 97.535L194.316 98.0687V71.7317L290.742 72.2586V97.535Z" fill="white"/>
<path opacity="0.9" d="M233.564 127.641L194.316 128.354V102.017L233.564 101.737V127.641Z" fill="white"/>
<path opacity="0.9" d="M233.564 156.461L194.316 157.654V131.317L233.564 130.557V156.461Z" fill="white"/>
<path opacity="0.9" d="M290.742 154.722L237.961 156.33V101.703L290.742 101.325V154.722Z" fill="white"/>
</g>
<path opacity="0.2" d="M298.185 146.642V157.698C298.185 160.978 295.57 163.727 292.227 163.839L149.73 168.73C145.951 168.858 142.889 166.125 142.889 162.626V59.6256C142.889 56.1261 145.991 53.3293 149.774 53.3766L149.953 53.3799L151.361 53.3968C151.398 54.4541 151.469 55.7005 151.611 57.0888C151.631 57.3084 151.655 57.5313 151.679 57.7576C151.814 58.9669 152 60.2674 152.244 61.6286C152.457 62.7636 152.707 63.9424 153.018 65.1416C153.56 67.2358 154.27 69.3943 155.204 71.5122C158.476 78.9434 164.471 85.8342 175.41 87.5468C180.447 88.3338 185.567 88.9182 190.615 89.5498C191.87 89.7086 193.125 89.8707 194.37 90.0396C204.645 91.4245 214.461 93.3026 222.52 97.91C224.475 99.0247 226.326 100.302 228.052 101.774C230.088 103.504 231.953 105.503 233.621 107.824C235.316 110.185 236.808 112.881 238.056 115.961C238.482 117.012 238.882 118.109 239.25 119.251C247.547 144.936 269.681 129.537 290.962 141.454C292.217 142.156 293.496 142.953 294.745 143.862C295.892 144.693 296.832 145.615 298.185 146.642Z" fill="url(#paint11_linear)"/>
<path d="M276.284 155.215C273.692 152.452 280.868 142.069 284.708 137.522C288.065 133.546 291.512 129.463 295.748 129.979C299.467 130.432 303.087 134.35 303.303 138.1C303.889 148.196 279.972 159.144 276.284 155.215Z" fill="url(#paint12_linear)"/>
<path d="M307.415 261.898C307.902 262.293 307.993 263.282 308.051 263.928C308.078 264.215 308.091 264.36 308.057 264.461C307.821 265.204 306.376 265.282 304.109 265.515C300.526 265.88 299.46 266.16 299.183 265.63C298.919 265.13 299.555 264.316 299.626 264.225C300.012 263.742 300.482 263.566 301.396 263.266C303.084 262.712 304.228 262.408 304.573 262.313C306.731 261.739 307.093 261.637 307.415 261.898Z" fill="url(#paint13_linear)"/>
<path d="M305.282 258.631L304.924 262.705C305.025 262.901 306.24 263.492 307.201 262.985L308.121 258.979L305.282 258.631Z" fill="url(#paint14_linear)"/>
<path d="M279.008 261.374C279.593 262.019 279.725 263.205 279.217 263.793C278.717 264.367 277.966 263.938 275.834 263.999C273.55 264.066 272.955 264.607 271.402 264.178C270.776 264.005 269.666 263.586 269.69 263.137C269.703 262.823 270.268 262.661 272.153 262.029C274.826 261.134 274.812 261.087 275.381 260.992C276.805 260.759 278.236 260.523 279.008 261.374Z" fill="url(#paint15_linear)"/>
<path d="M277.545 257.655L276.398 261.458C276.486 261.661 277.65 262.343 278.648 261.911L280.35 258.219L277.545 257.655Z" fill="url(#paint16_linear)"/>
<path d="M287.722 174.341C287.56 187.126 286.683 201.498 284.589 217.118C282.518 232.551 279.612 246.498 276.445 258.763C277.907 259.155 279.369 259.547 280.83 259.942C284.538 256.49 289.214 251.058 291.471 243.38C292.872 238.614 292.405 236.165 293.294 230.305C294.709 220.972 297.574 216.081 300.535 208.555C303.198 201.792 306.341 191.868 308.029 178.6C301.259 177.178 294.489 175.759 287.722 174.341Z" fill="url(#paint17_linear)"/>
<path d="M300.914 173.121C301.807 189.382 302.545 205.944 303.103 222.799C303.523 235.446 303.827 247.934 304.034 260.259C305.526 260.442 307.018 260.628 308.513 260.81C309.954 258.128 311.873 254.031 313.186 248.775C314.779 242.394 314.41 238.604 315.111 231.99C315.896 224.572 317.036 222.958 319.052 213.598C323.15 194.608 325.197 185.113 320.629 179.205C319.137 177.289 314.488 172.479 300.914 173.121Z" fill="url(#paint18_linear)"/>
<path d="M322.67 132.259C319.175 131.276 314.049 130.131 307.777 129.777C298.828 129.27 294.351 129.02 291.181 131.148C283.856 136.063 289.527 147.405 286.529 175.523C286.099 179.539 286.005 183.582 285.693 187.608C285.179 194.273 285.064 194.638 285.528 195.313C288.441 199.549 299.311 193.162 315.24 195.685C324.156 197.097 328.199 200.353 330.638 198.005C333.487 195.266 331.044 187.902 328.94 181.562C326.527 174.283 325.035 174.192 323.665 168.709C322.234 162.981 323.1 160.032 323.323 150.996C323.435 146.669 323.411 140.234 322.67 132.259Z" fill="url(#paint19_linear)"/>
<path d="M301.006 185.045C305.171 184.721 307.871 187.068 311.464 185.237C316.393 182.724 317.977 174.911 317.662 169.382C317.185 160.978 312.377 158.762 313.206 153.33C313.653 150.392 315.754 146.494 323.299 142.508C323.4 145.862 323.38 148.72 323.326 150.99C323.103 160.025 322.236 162.974 323.668 168.703C325.038 174.185 326.53 174.276 328.942 181.556C331.047 187.896 333.489 195.263 330.641 197.999C328.198 200.347 324.155 197.09 315.243 195.678C301.517 193.503 291.553 197.938 287.191 196.499C292.459 187.811 297.24 185.339 301.006 185.045Z" fill="url(#paint20_linear)"/>
<path d="M316.992 132.834C319.966 130.395 325.944 133.155 327.545 133.894C336.46 138.012 344.461 149.105 342.479 160.826C342.181 162.586 340.804 170.807 333.827 174.793C327.534 178.387 319.035 177.465 312.228 172.371C311.298 171.547 310.367 170.723 309.437 169.899C308.52 168.912 307.606 167.923 306.689 166.936C308.127 165.741 310.574 164.018 314.008 162.91C318.535 161.451 321.83 164.068 323.931 162.079C325.379 160.704 325.383 158.282 325.027 156.81C324.307 153.847 321.691 153.013 319.506 150.912C314.373 145.973 313.429 135.755 316.992 132.834Z" fill="url(#paint21_linear)"/>
<path d="M274.254 171.104L314.117 170.51L303.517 175.617L274.152 173.698L274.254 171.104Z" fill="url(#paint22_linear)"/>
<path d="M315.522 171.567C315.522 172.314 315.055 172.976 314.354 173.233L301.616 178.218L301.559 174.763L314.114 170.51C314.821 170.307 315.522 170.838 315.522 171.567Z" fill="url(#paint23_linear)"/>
<path d="M309.383 169.213C309.627 169.159 308.192 166.301 307.062 166.632C305.936 166.963 300.421 170.152 299.917 171.466C299.416 172.78 299.416 172.78 299.416 172.78C299.416 172.78 301.822 172.969 303.314 172.466C304.809 171.966 307.394 169.656 309.383 169.213Z" fill="url(#paint24_linear)"/>
<path d="M300.502 150.513L303.31 176.053C303.408 176.935 302.17 178.249 301.283 178.205L260.064 175.678C259.387 175.644 258.822 175.148 258.707 174.482L253.534 149.814C253.378 148.916 254.996 147.99 255.909 148.014L299.105 149.226C299.829 149.247 300.424 149.797 300.502 150.513Z" fill="url(#paint25_linear)"/>
<path d="M299.558 151.256L302.366 176.796C302.464 177.678 301.747 178.438 300.861 178.394L259.12 176.421C258.443 176.391 257.878 175.891 257.763 175.226L253.5 150.446C253.344 149.547 254.052 148.733 254.965 148.76L298.161 149.973C298.885 149.993 299.48 150.54 299.558 151.256Z" fill="url(#paint26_linear)"/>
<path opacity="0.3" d="M275.048 170.439C278.692 168.895 277.406 165.957 281.71 162.292C287.387 157.458 293.176 159.552 295.2 155.806C295.829 154.638 296.133 152.824 295.034 149.885L298.16 149.973C298.881 149.993 299.476 150.54 299.557 151.256L302.366 176.796C302.464 177.678 301.746 178.438 300.86 178.394L259.119 176.421C258.443 176.391 257.878 175.891 257.763 175.226L257.174 171.807C258.439 171.105 259.955 170.463 261.721 170.105C267.848 168.865 270.853 172.216 275.048 170.439Z" fill="url(#paint27_linear)"/>
<path d="M256.494 172.851C256.426 172.645 256.568 172.432 256.788 172.422C257.671 172.378 259.715 172.358 260.845 173.05C262.313 173.949 264.208 175.584 262.611 176.411L261.119 177.181C261.051 177.219 260.976 177.229 260.899 177.212C260.367 177.097 258.138 176.6 257.894 176.479C257.674 176.367 256.822 173.847 256.494 172.851Z" fill="url(#paint28_linear)"/>
<path d="M307.109 120.011C307.085 122.659 307.383 124.76 307.664 126.199C307.985 127.848 308.215 128.273 308.51 128.618C308.953 129.138 309.626 129.574 313.429 130.516C315.5 131.03 315.764 131.013 315.811 131.219C316.034 132.219 310.391 135.627 304.565 134.806C300.999 134.303 297.751 132.273 297.95 131.205C298.15 130.131 301.712 130.709 302.775 128.767C303.512 127.415 302.687 125.497 301.706 123.909C302.653 122.133 306.158 121.785 307.109 120.011Z" fill="url(#paint29_linear)"/>
<path d="M300.489 121.059C299.646 119.94 299.596 117.991 300.567 116.762C301.402 115.701 302.715 115.549 303.5 115.458C305.78 115.195 308.653 116.144 309.654 118.238C310.246 119.478 308.964 122.058 308.765 122.521C308.538 123.045 308.125 123.224 307.743 123.622C307.215 124.173 306.386 125.044 305.036 126.507C304.931 126.075 304.772 125.541 304.518 124.963C304.42 124.74 304.028 123.869 303.436 123.149C302.248 121.707 301.287 122.119 300.489 121.059Z" fill="url(#paint30_linear)"/>
<path d="M306.962 125.281C306.962 125.281 305.463 127.733 302.482 127.541C299.813 127.368 299.42 121.386 301.126 120.12C301.694 119.697 302.834 119.522 303.761 119.778C304.309 119.93 304.495 120.16 305.392 120.39C306.221 120.606 306.454 120.511 306.705 120.724C307.019 120.988 307.246 121.633 306.725 123.379C307.236 122.866 307.845 122.666 308.278 122.869C308.346 122.903 308.532 123.028 308.633 123.214C309.012 123.903 308.386 124.774 306.962 125.281Z" fill="url(#paint31_linear)"/>
<path d="M306.828 120.37C306.7 120.464 307.092 120.944 307.123 121.623C307.18 122.94 305.844 124.524 304.48 124.656C303.675 124.734 303.452 124.251 302.122 124.109C301.296 124.021 300.61 124.126 300.18 124.22C299.76 125.666 300.156 127.108 301.124 127.777C302.166 128.497 303.496 128.061 304.054 127.878C304.426 127.757 305.62 127.368 306.243 126.274C306.893 125.136 306.256 124.45 307.001 123.68C307.376 123.291 307.87 123.122 308.351 122.373C308.483 122.17 308.567 121.987 308.621 121.866C307.925 121.136 307.014 120.228 306.828 120.37Z" fill="url(#paint32_linear)"/>
<path d="M301.146 124.757C301.146 124.757 301.721 125.058 302.719 125C302.767 124.997 302.821 125.011 302.828 125.038C302.851 125.132 302.212 125.554 301.623 125.389C301.204 125.271 300.879 124.875 300.936 124.774C300.96 124.737 301.055 124.74 301.146 124.757Z" fill="url(#paint33_linear)"/>
<path d="M157.937 265.704C167.779 263.269 176.515 253.601 177.808 243.711C180.152 225.727 160.268 223.184 153.83 209.777C148.592 198.874 151.471 185.741 145.801 174.969C140.814 165.494 129.767 158.971 118.957 160.214C109.636 161.285 101.022 168.777 98.7856 178.063C97.1176 184.981 98.1394 194.965 101.289 201.404C103.861 206.666 107.281 211.399 111.954 214.989C115.757 217.911 120.568 219.816 123.477 223.765C128.989 231.25 127.321 242.174 130.112 250.548C132.061 256.398 137.224 262.161 142.918 264.552C147.865 266.633 153.062 266.913 157.937 265.704Z" fill="url(#paint34_linear)"/>
<g opacity="0.8">
<path opacity="0.8" d="M158.204 262.83C158.059 262.83 157.93 262.732 157.893 262.586C157.862 262.468 154.905 250.558 148.944 235.084C143.446 220.809 134.202 200.492 121.373 184.774C121.261 184.636 121.281 184.437 121.42 184.325C121.559 184.214 121.758 184.234 121.87 184.373C134.754 200.161 144.031 220.546 149.546 234.868C155.518 250.379 158.485 262.319 158.515 262.438C158.556 262.61 158.451 262.782 158.282 262.826C158.255 262.826 158.228 262.83 158.204 262.83Z" fill="white"/>
</g>
<path d="M140.786 225.994C120.987 208.403 104.378 216.253 102.216 225.035C100.074 233.733 100.531 279.05 157.351 266.674C158.363 266.454 159.077 265.552 159.06 264.519C158.958 258.844 157.274 240.644 140.786 225.994Z" fill="url(#paint35_linear)"/>
<g opacity="0.8">
<g opacity="0.8">
<path opacity="0.8" d="M157.298 264.893C157.186 264.893 157.078 264.836 157.017 264.731C156.99 264.681 154.138 259.664 147.669 253.088C141.697 247.018 131.337 238.34 115.875 231.463C115.713 231.392 115.642 231.203 115.713 231.041C115.784 230.879 115.974 230.808 116.136 230.879C131.699 237.8 142.134 246.545 148.146 252.659C154.669 259.293 157.548 264.366 157.576 264.417C157.663 264.572 157.606 264.765 157.454 264.853C157.406 264.88 157.352 264.893 157.298 264.893Z" fill="white"/>
</g>
<g opacity="0.8">
<path opacity="0.8" d="M140.383 246.349C140.353 246.349 140.322 246.346 140.292 246.336C140.123 246.285 140.025 246.109 140.075 245.94C140.106 245.839 142.931 235.722 134.04 229.119C133.897 229.014 133.867 228.811 133.975 228.673C134.08 228.531 134.283 228.501 134.422 228.609C139.257 232.203 140.705 236.77 141.067 239.972C141.459 243.434 140.718 246.015 140.688 246.123C140.651 246.258 140.522 246.349 140.383 246.349Z" fill="white"/>
</g>
<g opacity="0.8">
<path opacity="0.8" d="M123.363 244.262C121.228 244.262 118.711 243.785 115.869 242.417C115.71 242.34 115.642 242.15 115.72 241.992C115.798 241.833 115.987 241.765 116.146 241.843C126.239 246.694 132.19 240.066 132.251 239.999C132.366 239.867 132.569 239.85 132.704 239.968C132.836 240.083 132.853 240.286 132.735 240.421C132.671 240.495 131.138 242.228 128.279 243.35C127.01 243.846 125.356 244.262 123.363 244.262Z" fill="white"/>
</g>
<g opacity="0.8">
<path opacity="0.8" d="M140.023 258.763C137.888 258.763 135.371 258.286 132.529 256.918C132.37 256.841 132.302 256.651 132.38 256.493C132.458 256.334 132.647 256.266 132.806 256.344C142.899 261.195 148.85 254.567 148.911 254.5C149.026 254.368 149.229 254.355 149.365 254.469C149.496 254.584 149.513 254.787 149.395 254.922C149.331 254.996 147.798 256.729 144.939 257.851C143.667 258.344 142.012 258.763 140.023 258.763Z" fill="white"/>
</g>
</g>
<defs>
<linearGradient id="paint0_linear" x1="222.918" y1="214.716" x2="224.098" y2="242.011" gradientUnits="userSpaceOnUse">
<stop offset="0.494" stop-color="#EBEFF2"/>
<stop offset="1" stop-color="white"/>
</linearGradient>
<linearGradient id="paint1_linear" x1="104.886" y1="121.397" x2="319.659" y2="121.397" gradientUnits="userSpaceOnUse">
<stop offset="0.494" stop-color="#EBEFF2"/>
<stop offset="1" stop-color="white"/>
</linearGradient>
<linearGradient id="paint2_linear" x1="241.791" y1="300.499" x2="211.935" y2="198.168" gradientUnits="userSpaceOnUse">
<stop offset="0.494" stop-color="#EBEFF2"/>
<stop offset="1" stop-color="white"/>
</linearGradient>
<linearGradient id="paint3_linear" x1="197.343" y1="79.1592" x2="161.969" y2="228.166" gradientUnits="userSpaceOnUse">
<stop stop-color="#FFC444"/>
<stop offset="0.9964" stop-color="#F36F56"/>
</linearGradient>
<linearGradient id="paint4_linear" x1="191.296" y1="61.4802" x2="180.144" y2="108.455" gradientUnits="userSpaceOnUse">
<stop stop-color="#FFC444"/>
<stop offset="0.9964" stop-color="#F36F56"/>
</linearGradient>
<linearGradient id="paint5_linear" x1="109.732" y1="141.805" x2="256.57" y2="141.805" gradientUnits="userSpaceOnUse">
<stop stop-color="#FFC444"/>
<stop offset="0.9964" stop-color="#F36F56"/>
</linearGradient>
<linearGradient id="paint6_linear" x1="265.021" y1="22.6272" x2="229.099" y2="173.942" gradientUnits="userSpaceOnUse">
<stop stop-color="#0089A9"/>
<stop offset="1" stop-color="#FB6FBB"/>
</linearGradient>
<linearGradient id="paint7_linear" x1="258.16" y1="5.68318" x2="247.931" y2="48.7675" gradientUnits="userSpaceOnUse">
<stop stop-color="#2A9372"/>
<stop offset="1" stop-color="#3AAB87"/>
</linearGradient>
<linearGradient id="paint8_linear" x1="179.398" y1="84.7936" x2="321.87" y2="84.7936" gradientUnits="userSpaceOnUse">
<stop stop-color="#3AAB87"/>
<stop offset="1" stop-color="#2A9372"/>
</linearGradient>
<linearGradient id="paint9_linear" x1="235.534" y1="45.7143" x2="198.155" y2="203.168" gradientUnits="userSpaceOnUse">
<stop offset="0.00359712" stop-color="#2A9372"/>
<stop offset="1" stop-color="#9571F6"/>
</linearGradient>
<linearGradient id="paint10_linear" x1="228.99" y1="27.2846" x2="217.488" y2="75.7329" gradientUnits="userSpaceOnUse">
<stop offset="0.00359712" stop-color="#3E4E69"/>
<stop offset="1" stop-color="#9571F6"/>
</linearGradient>
<linearGradient id="paint11_linear" x1="142.89" y1="111.054" x2="298.187" y2="111.054" gradientUnits="userSpaceOnUse">
<stop offset="0.00359712" stop-color="#E38DDD"/>
<stop offset="1" stop-color="#9571F6"/>
</linearGradient>
<linearGradient id="paint12_linear" x1="282.937" y1="114.323" x2="312.642" y2="256.979" gradientUnits="userSpaceOnUse">
<stop stop-color="#FCB148"/>
<stop offset="0.0521" stop-color="#FDBA46"/>
<stop offset="0.1424" stop-color="#FFC244"/>
<stop offset="0.3183" stop-color="#FFC444"/>
<stop offset="0.4849" stop-color="#FDB946"/>
<stop offset="0.7754" stop-color="#F99C4D"/>
<stop offset="0.8658" stop-color="#F8924F"/>
<stop offset="1" stop-color="#F8924F"/>
</linearGradient>
<linearGradient id="paint13_linear" x1="299.165" y1="263.72" x2="308.086" y2="263.978" gradientUnits="userSpaceOnUse">
<stop stop-color="#444B8C"/>
<stop offset="0.9964" stop-color="#26264F"/>
</linearGradient>
<linearGradient id="paint14_linear" x1="304.924" y1="260.908" x2="308.124" y2="260.908" gradientUnits="userSpaceOnUse">
<stop stop-color="#FCB148"/>
<stop offset="0.0521" stop-color="#FDBA46"/>
<stop offset="0.1424" stop-color="#FFC244"/>
<stop offset="0.3183" stop-color="#FFC444"/>
<stop offset="0.4849" stop-color="#FDB946"/>
<stop offset="0.7754" stop-color="#F99C4D"/>
<stop offset="0.8658" stop-color="#F8924F"/>
<stop offset="1" stop-color="#F8924F"/>
</linearGradient>
<linearGradient id="paint15_linear" x1="270.198" y1="261.267" x2="279.337" y2="263.784" gradientUnits="userSpaceOnUse">
<stop stop-color="#444B8C"/>
<stop offset="0.9964" stop-color="#26264F"/>
</linearGradient>
<linearGradient id="paint16_linear" x1="276.399" y1="259.853" x2="280.351" y2="259.853" gradientUnits="userSpaceOnUse">
<stop stop-color="#FCB148"/>
<stop offset="0.0521" stop-color="#FDBA46"/>
<stop offset="0.1424" stop-color="#FFC244"/>
<stop offset="0.3183" stop-color="#FFC444"/>
<stop offset="0.4849" stop-color="#FDB946"/>
<stop offset="0.7754" stop-color="#F99C4D"/>
<stop offset="0.8658" stop-color="#F8924F"/>
<stop offset="1" stop-color="#F8924F"/>
</linearGradient>
<linearGradient id="paint17_linear" x1="273.311" y1="245.86" x2="298.53" y2="188.916" gradientUnits="userSpaceOnUse">
<stop stop-color="#AA80F9"/>
<stop offset="0.9964" stop-color="#6165D7"/>
</linearGradient>
<linearGradient id="paint18_linear" x1="285.731" y1="248.556" x2="317.735" y2="195.117" gradientUnits="userSpaceOnUse">
<stop stop-color="#AA80F9"/>
<stop offset="0.9964" stop-color="#6165D7"/>
</linearGradient>
<linearGradient id="paint19_linear" x1="293.255" y1="112.174" x2="322.96" y2="254.829" gradientUnits="userSpaceOnUse">
<stop stop-color="#FCB148"/>
<stop offset="0.0521" stop-color="#FDBA46"/>
<stop offset="0.1424" stop-color="#FFC244"/>
<stop offset="0.3183" stop-color="#FFC444"/>
<stop offset="0.4849" stop-color="#FDB946"/>
<stop offset="0.7754" stop-color="#F99C4D"/>
<stop offset="0.8658" stop-color="#F8924F"/>
<stop offset="1" stop-color="#F8924F"/>
</linearGradient>
<linearGradient id="paint20_linear" x1="318.881" y1="234.162" x2="307.607" y2="180.524" gradientUnits="userSpaceOnUse">
<stop stop-color="#FCB148"/>
<stop offset="0.0521" stop-color="#FDBA46"/>
<stop offset="0.1424" stop-color="#FFC244"/>
<stop offset="0.3183" stop-color="#FFC444"/>
<stop offset="0.4849" stop-color="#FDB946"/>
<stop offset="0.7754" stop-color="#F99C4D"/>
<stop offset="0.8658" stop-color="#F8924F"/>
<stop offset="1" stop-color="#F8924F"/>
</linearGradient>
<linearGradient id="paint21_linear" x1="313.667" y1="107.924" x2="343.372" y2="250.579" gradientUnits="userSpaceOnUse">
<stop stop-color="#FCB148"/>
<stop offset="0.0521" stop-color="#FDBA46"/>
<stop offset="0.1424" stop-color="#FFC244"/>
<stop offset="0.3183" stop-color="#FFC444"/>
<stop offset="0.4849" stop-color="#FDB946"/>
<stop offset="0.7754" stop-color="#F99C4D"/>
<stop offset="0.8658" stop-color="#F8924F"/>
<stop offset="1" stop-color="#F8924F"/>
</linearGradient>
<linearGradient id="paint22_linear" x1="288.263" y1="187.556" x2="293.071" y2="173.912" gradientUnits="userSpaceOnUse">
<stop stop-color="#311944"/>
<stop offset="1" stop-color="#893976"/>
</linearGradient>
<linearGradient id="paint23_linear" x1="309.329" y1="167.795" x2="307.567" y2="179.991" gradientUnits="userSpaceOnUse">
<stop stop-color="#311944"/>
<stop offset="1" stop-color="#893976"/>
</linearGradient>
<linearGradient id="paint24_linear" x1="255.535" y1="152.89" x2="305.351" y2="170.434" gradientUnits="userSpaceOnUse">
<stop stop-color="#FFC444"/>
<stop offset="0.9964" stop-color="#F36F56"/>
</linearGradient>
<linearGradient id="paint25_linear" x1="274.295" y1="168.863" x2="283.675" y2="155.521" gradientUnits="userSpaceOnUse">
<stop stop-color="#444B8C"/>
<stop offset="0.9964" stop-color="#26264F"/>
</linearGradient>
<linearGradient id="paint26_linear" x1="292.328" y1="190.92" x2="271.808" y2="149.171" gradientUnits="userSpaceOnUse">
<stop stop-color="#311944"/>
<stop offset="1" stop-color="#893976"/>
</linearGradient>
<linearGradient id="paint27_linear" x1="302.377" y1="164.141" x2="257.18" y2="164.141" gradientUnits="userSpaceOnUse">
<stop stop-color="#311944"/>
<stop offset="1" stop-color="#893976"/>
</linearGradient>
<linearGradient id="paint28_linear" x1="249.11" y1="171.131" x2="298.926" y2="188.675" gradientUnits="userSpaceOnUse">
<stop stop-color="#FFC444"/>
<stop offset="0.9964" stop-color="#F36F56"/>
</linearGradient>
<linearGradient id="paint29_linear" x1="304.195" y1="114.274" x2="311.493" y2="160.779" gradientUnits="userSpaceOnUse">
<stop stop-color="#FFC444"/>
<stop offset="0.9964" stop-color="#F36F56"/>
</linearGradient>
<linearGradient id="paint30_linear" x1="309.809" y1="120.963" x2="299.846" y2="120.963" gradientUnits="userSpaceOnUse">
<stop stop-color="#40447E"/>
<stop offset="0.9964" stop-color="#3C3B6B"/>
</linearGradient>
<linearGradient id="paint31_linear" x1="304.456" y1="120.56" x2="304.301" y2="133.158" gradientUnits="userSpaceOnUse">
<stop stop-color="#FFC444"/>
<stop offset="0.9964" stop-color="#F36F56"/>
</linearGradient>
<linearGradient id="paint32_linear" x1="308.615" y1="124.266" x2="300.01" y2="124.266" gradientUnits="userSpaceOnUse">
<stop stop-color="#40447E"/>
<stop offset="0.9964" stop-color="#3C3B6B"/>
</linearGradient>
<linearGradient id="paint33_linear" x1="302.829" y1="125.088" x2="300.929" y2="125.088" gradientUnits="userSpaceOnUse">
<stop stop-color="#FFC444"/>
<stop offset="0.9964" stop-color="#F36F56"/>
</linearGradient>
<linearGradient id="paint34_linear" x1="114.432" y1="90.7158" x2="162.739" y2="344.907" gradientUnits="userSpaceOnUse">
<stop stop-color="#3AAB87"/>
<stop offset="1" stop-color="#2A9372"/>
</linearGradient>
<linearGradient id="paint35_linear" x1="116.97" y1="178.354" x2="142.28" y2="311.532" gradientUnits="userSpaceOnUse">
<stop stop-color="#2A9372"/>
<stop offset="0.9964" stop-color="#6165D7"/>
</linearGradient>
</defs>
</svg>
