<svg width="106" height="106" viewBox="0 0 106 106" fill="none" xmlns="http://www.w3.org/2000/svg">
<path d="M41.4062 29.8125H48.0312V26.5H41.4062C40.0959 26.5 38.8151 26.1115 37.7256 25.3835C36.6361 24.6555 35.787 23.6209 35.2855 22.4103C34.7841 21.1997 34.6529 19.8677 34.9085 18.5825C35.1642 17.2974 35.7951 16.117 36.7217 15.1904C37.6482 14.2639 38.8287 13.6329 40.1138 13.3773C41.3989 13.1217 42.731 13.2529 43.9415 13.7543C45.1521 14.2558 46.1868 15.1049 46.9147 16.1944C47.6427 17.2838 48.0312 18.5647 48.0312 19.875H51.3437C51.3428 18.1822 50.9095 16.5177 50.0849 15.0393C49.2603 13.561 48.0718 12.3177 46.632 11.4274C46.8721 10.5891 47.2753 9.80637 47.8186 9.12421C48.3619 8.44206 49.0345 7.87388 49.7979 7.45228C50.5612 7.03068 51.4003 6.76394 52.267 6.66738C53.1337 6.57082 54.0109 6.64633 54.8484 6.88958C55.6858 7.13282 56.467 7.53903 57.1471 8.08488C57.8272 8.63073 58.3928 9.30549 58.8115 10.0704C59.2302 10.8354 59.4938 11.6755 59.5871 12.5426C59.6803 13.4096 59.6015 14.2865 59.3551 15.1231C58.1307 16.1233 57.2182 17.453 56.7253 18.9552C56.2324 20.4574 56.1797 22.0692 56.5735 23.6004L59.7813 22.7747C59.5217 21.7712 59.5825 20.7117 59.9549 19.7444C60.3274 18.7771 60.993 17.9505 61.8585 17.3802C62.724 16.81 63.7462 16.5246 64.782 16.5641C65.8177 16.6036 66.8152 16.9659 67.6349 17.6004C68.4545 18.2348 69.0552 19.1097 69.353 20.1025C69.6508 21.0954 69.6307 22.1564 69.2955 23.1373C68.9603 24.1181 68.3269 24.9696 67.4838 25.5725C66.6408 26.1755 65.6303 26.4998 64.5937 26.5H57.9687V29.8125H64.5937C65.7513 29.812 66.8959 29.5688 67.9537 29.0986C69.0114 28.6284 69.9589 27.9417 70.7349 27.0827C71.5109 26.2238 72.0982 25.2117 72.4589 24.1118C72.8196 23.0118 72.9457 21.8485 72.829 20.6968C72.7124 19.5451 72.3556 18.4307 71.7817 17.4254C71.2078 16.4202 70.4295 15.5464 69.497 14.8605C68.5646 14.1746 67.4987 13.6917 66.3681 13.4432C65.2375 13.1946 64.0674 13.1859 62.9332 13.4174C62.9342 13.3615 62.9375 13.306 62.9375 13.25C62.9377 10.8845 62.094 8.59643 60.558 6.79734C59.0221 4.99824 56.8947 3.80613 54.5584 3.43534C52.2221 3.06456 49.8301 3.53944 47.8126 4.77459C45.7951 6.00974 44.2845 7.92413 43.5523 10.1735C42.1892 9.87192 40.7779 9.86093 39.4103 10.1413C38.0426 10.4216 36.7495 10.9869 35.6149 11.8005C34.4804 12.614 33.5301 13.6575 32.8258 14.8629C32.1216 16.0682 31.6792 17.4085 31.5276 18.7963C31.3759 20.1841 31.5184 21.5882 31.9457 22.9173C32.373 24.2463 33.0756 25.4704 34.0076 26.5097C34.9396 27.5491 36.0802 28.3804 37.355 28.9495C38.6298 29.5185 40.0102 29.8126 41.4062 29.8125Z" fill="#3AAB87"/>
<path d="M94.4062 71.7907V41.4062C94.4047 40.0889 93.8808 38.826 92.9493 37.8945C92.0178 36.963 90.7548 36.439 89.4375 36.4375H79.2151C78.8716 35.4695 78.2371 34.6315 77.3985 34.0385C76.5599 33.4454 75.5583 33.1263 74.5312 33.125H62.9375V36.4375H74.5312C74.9704 36.438 75.3913 36.6127 75.7018 36.9232C76.0123 37.2337 76.187 37.6546 76.1875 38.0938V44.7188H57.9687V48.0312H81.1562C81.5954 48.0318 82.0163 48.2064 82.3268 48.5169C82.6373 48.8274 82.812 49.2484 82.8125 49.6875V69.8958C79.3528 70.608 76.2106 72.4052 73.8425 75.0261C71.4745 77.6469 70.0042 80.9548 69.6455 84.4688H32.2337C32.8184 83.4628 33.1259 82.3198 33.125 81.1562V49.6875C33.1255 49.2484 33.3002 48.8274 33.6107 48.5169C33.9212 48.2064 34.3421 48.0318 34.7812 48.0312H48.0312V44.7188H34.7812C33.4639 44.7203 32.201 45.2442 31.2695 46.1757C30.338 47.1072 29.814 48.3702 29.8125 49.6875V81.1562C29.8125 82.0348 29.4635 82.8773 28.8423 83.4985C28.2211 84.1198 27.3785 84.4688 26.5 84.4688C25.6215 84.4688 24.7789 84.1198 24.1577 83.4985C23.5365 82.8773 23.1875 82.0348 23.1875 81.1562V38.0938C23.188 37.6546 23.3627 37.2337 23.6732 36.9232C23.9837 36.6127 24.4046 36.438 24.8437 36.4375H43.0625V33.125H24.8437C23.8166 33.1263 22.8151 33.4454 21.9765 34.0385C21.1379 34.6315 20.5034 35.4695 20.1599 36.4375H16.5625C15.2452 36.439 13.9822 36.963 13.0507 37.8945C12.1192 38.826 11.5953 40.0889 11.5937 41.4062V91.0938H3.3125V97.7188C3.31401 99.0361 3.83798 100.299 4.76948 101.231C5.70097 102.162 6.96392 102.686 8.28125 102.688H86.125C89.7705 102.689 93.3145 101.487 96.2071 99.2683C99.0997 97.0497 101.179 93.9384 102.123 90.4172C103.067 86.8961 102.822 83.1618 101.427 79.7939C100.032 76.426 97.5637 73.6128 94.4062 71.7907ZM81.1562 44.7188H79.5V39.75H89.4375C89.8766 39.7505 90.2976 39.9252 90.6081 40.2357C90.9186 40.5462 91.0932 40.9671 91.0937 41.4062V70.325C89.4861 69.8186 87.8105 69.5614 86.125 69.5625V49.6875C86.1235 48.3702 85.5995 47.1072 84.668 46.1757C83.7365 45.2442 82.4736 44.7203 81.1562 44.7188ZM14.9062 41.4062C14.9068 40.9671 15.0814 40.5462 15.3919 40.2357C15.7024 39.9252 16.1234 39.7505 16.5625 39.75H19.875V81.1562C19.877 82.9127 20.5756 84.5966 21.8176 85.8386C23.0596 87.0806 24.7436 87.7792 26.5 87.7812H69.6455C69.7576 88.9058 69.9853 90.0159 70.325 91.0938H14.9062V41.4062ZM8.28125 99.375C7.84214 99.3745 7.42116 99.1998 7.11066 98.8893C6.80016 98.5788 6.6255 98.1579 6.625 97.7188V94.4062H71.7907C72.9123 96.3412 74.4114 98.0309 76.199 99.375H8.28125ZM86.125 99.375C83.5044 99.375 80.9426 98.5979 78.7637 97.142C76.5847 95.686 74.8865 93.6167 73.8836 91.1956C72.8807 88.7744 72.6183 86.1103 73.1296 83.5401C73.6408 80.9698 74.9028 78.6089 76.7558 76.7558C78.6089 74.9028 80.9698 73.6409 83.54 73.1296C86.1103 72.6183 88.7744 72.8807 91.1955 73.8836C93.6167 74.8865 95.686 76.5847 97.142 78.7637C98.5979 80.9426 99.375 83.5044 99.375 86.125C99.371 89.6379 97.9738 93.0058 95.4898 95.4898C93.0058 97.9738 89.6379 99.3711 86.125 99.375Z" fill="#3AAB87"/>
<path d="M49.2027 65.0789L46.8604 67.4212L53.0003 73.5609L69.0777 57.4837L66.7353 55.1414L53.0003 68.8766L49.2027 65.0789Z" fill="#3AAB87"/>
<path d="M60.7964 35.2664L53.0003 27.4705L45.2041 35.2664L47.5464 37.6088L51.344 33.8112V48.0314H54.6565V33.8112L58.4541 37.6088L60.7964 35.2664Z" fill="#3AAB87"/>
<path d="M84.469 85.4391L78.3291 91.5788L80.6715 93.9212L87.7815 86.8109V76.1875H84.469V85.4391Z" fill="#3AAB87"/>
</svg>
