<svg width="100" height="107" viewBox="0 0 100 107" fill="none" xmlns="http://www.w3.org/2000/svg">
<path d="M72.7794 3.89224V7.18434C75.4652 8.15399 77.7401 10.0107 79.2285 12.4478C80.7168 14.885 81.3296 17.7568 80.9656 20.5893C80.6017 23.4217 79.2828 26.0453 77.2267 28.027C75.1705 30.0086 72.5002 31.2297 69.6564 31.4888V28.3434C73.0784 28.0167 75.8746 26.2834 75.8746 22.7449C75.8746 18.5087 72.425 17.5451 68.7234 17.0883C66.5916 16.8336 64.7644 16.4016 64.7644 14.8567C64.7644 13.5359 65.9576 12.4949 68.4438 12.4949C70.3818 12.4949 72.0429 13.4612 72.6548 14.4746L75.3182 13.104C74.1858 10.7976 71.9765 9.8756 69.6564 9.64302V3.34402C69.2827 3.3191 68.9062 3.30249 68.5241 3.30249C64.8165 3.30457 61.2294 4.61969 58.399 7.01463C55.5686 9.40957 53.6776 12.7296 53.0615 16.3859C52.4455 20.0422 53.144 23.7986 55.0334 26.989C56.9227 30.1793 59.8807 32.5975 63.3829 33.8146V30.4449C60.9197 29.3389 58.8787 27.468 57.563 25.11C56.2472 22.7519 55.7269 20.0325 56.079 17.3552C56.4312 14.678 57.6372 12.1856 59.5181 10.2482C61.3989 8.31071 63.8542 7.0314 66.5197 6.60012V9.74823C63.8618 10.23 61.467 11.775 61.467 14.7542C61.467 18.7357 64.817 19.702 68.4438 20.1312C70.8026 20.3859 72.5524 21.0698 72.5524 22.7449C72.5524 24.6831 70.5728 25.4085 68.4687 25.4085C66.312 25.4085 64.2577 24.5474 63.4715 22.5927L60.6807 24.038C61.7605 26.6932 63.8203 27.9143 66.5197 28.2853V34.5511C67.1845 34.6355 67.8539 34.6781 68.5241 34.6784C72.3126 34.6805 75.9739 33.3112 78.8316 30.8237C81.6892 28.3362 83.5502 24.8984 84.0706 21.1455C84.591 17.3925 83.7357 13.578 81.6628 10.4067C79.5899 7.2353 76.4393 4.92133 72.7932 3.89224H72.7794Z" fill="#3AAB87"/>
<path fill-rule="evenodd" clip-rule="evenodd" d="M39.1141 28.993C38.9603 28.9918 38.8027 29.0283 38.6559 29.0968C38.4893 29.1635 38.3208 29.2398 38.1625 29.307L37.9273 29.4044L37.6217 29.5256V29.5294C34.3099 30.8726 30.8315 31.6595 27.6127 31.7287C27.4948 31.7325 27.3762 31.7325 27.2596 31.7325C22.1984 31.7351 18.0683 29.3871 13.8998 27.0738C13.7537 26.9975 13.6069 26.9572 13.4602 26.9572C13.2718 26.9572 13.0802 27.027 12.9405 27.1584C12.8001 27.2897 12.7168 27.4813 12.7181 27.6755C12.7175 27.9286 12.8539 28.16 13.043 28.3099C16.9546 31.7056 21.241 34.861 27.0052 34.8636C27.118 34.8636 27.232 34.861 27.348 34.8585C31.0142 34.7758 35.1628 33.5377 38.381 31.5153L38.3996 31.5025C38.8213 31.2506 39.2429 30.9642 39.6402 30.6464C39.8882 30.4624 40.058 30.1773 40.0555 29.8793C40.0478 29.3513 39.5986 28.993 39.1141 28.993Z" fill="#3AAB87"/>
<path fill-rule="evenodd" clip-rule="evenodd" d="M43.5805 27.1179V27.1167C43.5677 26.7937 43.4991 26.5495 43.3652 26.3458L43.3517 26.3272L43.3357 26.3073C43.1992 26.1586 43.0691 26.1022 42.9262 26.0394C42.5046 25.8767 41.89 25.7902 41.1492 25.7876C40.6173 25.7876 40.0291 25.8376 39.4408 25.9664L39.4395 25.9273L38.8448 26.1253L38.8346 26.1304L38.4994 26.2394V26.2541C38.1066 26.4169 37.7484 26.6207 37.4158 26.861C37.2107 27.0161 37.0377 27.2205 37.0281 27.5345C37.023 27.7049 37.1095 27.901 37.255 28.0177C37.3979 28.1343 37.5651 28.1727 37.7119 28.1727C37.7471 28.1727 37.7792 28.1715 37.808 28.1663L37.8368 28.1638L37.8593 28.1599C38.1495 28.0984 38.5725 28.0574 39.0672 27.9869C39.4914 27.9408 39.9419 27.9055 40.3328 27.9055C40.6097 27.9042 40.857 27.9228 41.0275 27.9606C41.1127 27.9779 41.1761 28.0004 41.2127 28.0183C41.2242 28.0234 41.2325 28.0285 41.2377 28.0318C41.2454 28.0555 41.2562 28.1157 41.255 28.2022C41.2588 28.529 41.1185 29.1346 40.9294 29.7254C40.7442 30.3176 40.5187 30.911 40.3687 31.3051C40.3335 31.3967 40.311 31.4954 40.311 31.6043C40.3085 31.7633 40.3726 31.9549 40.5103 32.0824C40.6443 32.2099 40.8173 32.2599 40.9634 32.2599H40.9698C41.189 32.2573 41.3742 32.1708 41.5344 32.0459C43.0416 30.6905 43.5645 28.529 43.5856 27.3108L43.5805 27.1179Z" fill="#3AAB87"/>
<path fill-rule="evenodd" clip-rule="evenodd" d="M29.8029 12.5968C28.9166 12.6634 27.8951 12.7307 26.873 12.8659C25.3075 13.0723 23.7401 13.3427 22.4469 13.9573C19.9272 14.9787 18.2239 17.1581 18.2239 20.3584C18.2239 24.3783 20.8115 26.4212 24.0816 26.4212C25.1704 26.4212 26.0579 26.2834 26.8724 26.0809C28.1675 25.6714 29.2569 24.923 30.552 23.5587C31.3005 24.5814 31.5055 25.0595 32.7987 26.1482C33.139 26.2834 33.4792 26.2834 33.751 26.0809C34.5693 25.3991 36.0002 24.1719 36.7487 23.4927C37.0903 23.2197 37.0217 22.8108 36.816 22.4725C36.0688 21.5176 35.3178 20.7 35.3178 18.8602V12.7307C35.3178 10.1424 35.5228 7.75795 33.6157 5.98929C32.0502 4.56026 29.5978 4.01428 27.6907 4.01428H26.8724C23.4004 4.2155 19.7215 5.71502 18.9044 10.0072C18.7679 10.5532 19.1774 10.7557 19.4504 10.823L23.2633 11.2998C23.6741 11.2325 23.8766 10.8903 23.9451 10.5526C24.2854 9.05305 25.5106 8.30329 26.8724 8.1668H27.1467C27.9637 8.1668 28.8487 8.50836 29.3254 9.18955C29.8701 10.0066 29.8022 11.0973 29.8022 12.0508V12.5968H29.8029ZM29.0544 20.7C28.5776 21.6509 27.7593 22.2642 26.873 22.4725C26.7378 22.4725 26.534 22.5398 26.3283 22.5398C24.8314 22.5398 23.9451 21.3805 23.9451 19.6785C23.9451 17.4984 25.2396 16.477 26.8724 16.0002C27.7586 15.7964 28.7801 15.7272 29.8022 15.7272V16.5455C29.8029 18.1117 29.8701 19.3369 29.0544 20.7Z" fill="#3AAB87"/>
<path d="M99.2967 70.4048L86.1142 41.1215L71.8247 47.5366L72.7807 49.675C69.7366 50.6562 66.3907 50.8826 62.9944 50.3291C60.7806 49.9769 58.5415 49.9769 56.3528 50.3291C54.617 50.6058 52.8811 51.1342 51.2459 51.8637C50.4911 52.1908 49.7616 52.5933 49.032 53.0461L42.6671 56.1657C41.686 55.9896 40.7049 55.8638 39.7237 55.8134C36.252 55.6625 32.9815 54.7568 30.1639 53.1719L31.5224 51.3103L18.7675 42.1278L0 68.1909L12.7045 77.3483L14.0631 75.4866C16.4782 77.6502 18.365 80.4678 19.5977 83.7131C19.6983 83.9899 19.799 84.2414 19.9248 84.5182L18.3147 86.732C16.7046 88.9711 17.2077 92.1157 19.4468 93.7258C20.1512 94.229 20.9814 94.556 21.8116 94.6315C21.8116 94.8831 21.8367 95.1346 21.8619 95.3862C22.0883 96.6944 22.7927 97.8517 23.8745 98.6567C24.7298 99.2856 25.7613 99.6127 26.7928 99.6127C26.9437 99.6127 27.0695 99.6127 27.2204 99.5875C27.4972 100.694 28.1513 101.726 29.1576 102.455C30.0381 103.084 31.0695 103.411 32.0758 103.411C32.6041 103.411 33.1325 103.336 33.6356 103.16C33.9878 103.94 34.5413 104.619 35.2457 105.122C36.101 105.751 37.1325 106.078 38.164 106.078C38.4407 106.078 38.7174 106.053 38.969 106.003C40.3023 105.776 41.4596 105.072 42.2395 103.99L43.2458 102.581L48.0509 105.349C48.9062 105.852 49.8622 106.078 50.7679 106.078C52.2522 106.078 53.6861 105.474 54.6924 104.317C55.2459 103.663 55.6484 102.908 55.8497 102.078C56.8308 102.405 57.8623 102.481 58.9189 102.305C60.6296 102.028 62.1139 101.097 63.1202 99.6882C63.7743 98.7573 64.202 97.6756 64.3026 96.5686C64.3529 96.0655 64.3529 95.5623 64.2775 95.0843C66.0385 94.9837 67.724 94.2038 68.8813 92.795C69.8624 91.6126 70.3656 90.1786 70.3656 88.6692C70.7178 88.6943 71.0951 88.6692 71.4725 88.5937C72.8562 88.3673 74.0637 87.6126 74.8688 86.4805C75.548 85.5245 75.9757 84.4175 76.1015 83.2351C76.1015 83.1848 76.1015 83.1094 76.1266 83.059C76.4788 82.6062 76.8059 82.1282 77.1078 81.6502C78.9443 78.7319 81.3342 76.3923 84.0764 74.7571L85.0072 76.7948L99.2967 70.4048ZM94.6426 68.6186L86.7934 72.1407L76.504 49.2725L84.3531 45.7504L94.6426 68.6186ZM19.5725 47.0586L26.5663 52.0901L12.4781 71.6124L11.8995 72.4174L4.90572 67.3859L19.5725 47.0586ZM21.1826 88.795L23.3713 85.7509L23.4971 85.5748C23.7235 85.2477 24.0757 85.0465 24.4531 84.971C24.5286 84.971 24.604 84.9459 24.6544 84.9459C24.6795 84.9459 24.6795 84.9459 24.7047 84.9459C24.7802 84.9459 24.8305 84.9459 24.9059 84.971C24.9311 84.971 24.9311 84.971 24.9563 84.971C25.0066 84.971 25.0569 84.9962 25.1324 85.0213C25.1324 85.0213 25.1575 85.0213 25.1827 85.0213C25.233 85.0465 25.3085 85.0716 25.3588 85.0968C25.3839 85.0968 25.3839 85.122 25.4091 85.122C25.4594 85.1471 25.5349 85.1974 25.5852 85.2226C25.7361 85.3484 25.8871 85.4742 25.9877 85.6503C26.1135 85.8767 26.189 86.1283 26.2141 86.3798C26.2141 86.4553 26.2141 86.5056 26.2141 86.5811C26.2141 86.6566 26.189 86.732 26.1638 86.7823C26.1387 86.9081 26.0883 87.0088 26.038 87.1094C26.0129 87.1597 25.9626 87.21 25.9374 87.2855L23.6229 90.5057C23.3965 90.8327 23.0443 91.034 22.6669 91.1094C22.2644 91.1849 21.887 91.0843 21.56 90.8579C20.8556 90.3799 20.7046 89.449 21.1826 88.795ZM25.9626 95.8139C25.6355 95.5875 25.4342 95.2353 25.3588 94.8579C25.2833 94.4554 25.3839 94.078 25.6103 93.751L30.7928 86.5559C31.0192 86.2289 31.3714 86.0276 31.7488 85.9522C31.8243 85.9522 31.8997 85.927 31.9752 85.927C32.0004 85.927 32.0004 85.927 32.0255 85.927C32.101 85.927 32.1513 85.927 32.2268 85.9522C32.2519 85.9522 32.2519 85.9522 32.2519 85.9522C32.3022 85.9522 32.3777 85.9773 32.428 86.0025H32.4532C32.5287 86.0276 32.579 86.0528 32.6293 86.0779C32.6545 86.0779 32.6545 86.1031 32.6796 86.1031C32.7299 86.1283 32.8054 86.1786 32.8557 86.2037C33.2834 86.5056 33.5098 87.0339 33.4595 87.5622C33.4595 87.6377 33.4343 87.688 33.4343 87.7635C33.4343 87.7887 33.4092 87.8138 33.4092 87.839C33.4092 87.8641 33.384 87.9144 33.384 87.9396C33.384 87.9648 33.3589 87.9899 33.3589 88.0151C33.3337 88.0402 33.3337 88.0905 33.3085 88.1157C33.2834 88.1409 33.2582 88.166 33.2582 88.2163C33.2331 88.2415 33.2331 88.2666 33.2079 88.2918L28.0255 95.4869C27.7991 95.8139 27.4468 96.0152 27.0695 96.0906C26.667 96.1409 26.2644 96.0403 25.9626 95.8139ZM31.2205 99.6127C30.5664 99.1347 30.4154 98.2039 30.8934 97.5498L36.0759 90.3547C36.1262 90.2792 36.1765 90.2289 36.252 90.1535C36.2771 90.1283 36.2771 90.1283 36.3023 90.1031C36.3526 90.0528 36.4281 90.0025 36.5036 89.9522C36.5287 89.9522 36.5287 89.927 36.5539 89.927C36.6293 89.9019 36.6797 89.8516 36.7551 89.8264C36.7803 89.8264 36.7803 89.8264 36.7803 89.8013C36.8558 89.7761 36.9312 89.7509 37.0319 89.7258C37.057 89.7258 37.0822 89.7258 37.1073 89.7006C37.1325 89.7006 37.1325 89.7006 37.1576 89.7006C37.208 89.7006 37.2583 89.7006 37.2834 89.7006H37.3086C37.3841 89.7006 37.4595 89.7006 37.535 89.7258C37.6105 89.7258 37.686 89.7509 37.7363 89.7761C37.7363 89.7761 37.7363 89.7761 37.7614 89.7761C37.8369 89.8013 37.8872 89.8264 37.9627 89.8516C37.9627 89.8516 37.9878 89.8516 37.9878 89.8767C38.0382 89.9019 38.1136 89.9522 38.164 89.9774C38.4407 90.1786 38.6168 90.4554 38.7174 90.7572C38.7677 90.9333 38.7929 91.1346 38.7677 91.3359C38.7426 91.5874 38.6419 91.839 38.491 92.0654L33.3085 99.2605C32.8054 99.9397 31.8997 100.091 31.2205 99.6127ZM38.4155 102.506C38.013 102.581 37.6356 102.481 37.3086 102.254C36.9815 102.028 36.7803 101.676 36.7048 101.298C36.6293 100.896 36.73 100.518 36.9564 100.191L39.2709 96.9711C39.3212 96.9208 39.3464 96.8705 39.3967 96.8202C39.4218 96.795 39.447 96.7699 39.4721 96.7447C39.5225 96.6944 39.5728 96.6693 39.6231 96.6189C39.6482 96.5938 39.6734 96.5686 39.6986 96.5686C39.7489 96.5435 39.8243 96.5183 39.8747 96.4932C39.8998 96.468 39.925 96.468 39.9501 96.4428C40.0508 96.4177 40.1262 96.3925 40.2269 96.3674C40.3023 96.3674 40.3778 96.3422 40.4281 96.3422C40.4533 96.3422 40.4533 96.3422 40.4784 96.3422C40.5539 96.3422 40.6042 96.3422 40.6797 96.3674C40.7049 96.3674 40.7049 96.3674 40.73 96.3674C40.7803 96.3674 40.8306 96.3925 40.9061 96.4177H40.9313C40.9816 96.4428 41.0571 96.468 41.1074 96.4932C41.1325 96.4932 41.1325 96.5183 41.1577 96.5183C41.208 96.5435 41.2835 96.5938 41.3338 96.6189C41.7615 96.9208 41.9879 97.4491 41.9376 97.9774C41.9124 98.229 41.8118 98.4806 41.6608 98.707L39.3967 101.927C39.1451 102.229 38.818 102.455 38.4155 102.506ZM72.6046 82.9081C72.5543 83.4616 72.353 83.9899 72.026 84.4427C71.7492 84.8201 71.3719 85.0465 70.919 85.122C70.4662 85.1974 70.0134 85.0968 69.6612 84.8201L67.6989 83.4112L63.8498 80.6439C63.0699 80.0653 61.963 80.2666 61.3843 81.0464C60.8057 81.8263 61.007 82.9333 61.7869 83.5119L65.636 86.2792C66.3152 86.7572 66.7177 87.4868 66.8435 88.2918C66.9441 89.0968 66.7177 89.9019 66.1894 90.556C65.2334 91.7384 63.3718 91.9145 62.0636 90.9837L61.6862 90.7069L61.6611 90.6818L56.9063 87.2603C56.1264 86.6817 55.0195 86.883 54.4409 87.6629C53.8622 88.4427 54.0635 89.5497 54.8434 90.1283L59.5981 93.5497C60.4283 94.1535 60.8812 95.185 60.7806 96.2416C60.7302 96.7699 60.5541 97.2479 60.2522 97.6504C59.7994 98.2793 59.1202 98.707 58.3403 98.8328C57.5604 98.9586 56.7805 98.7825 56.1516 98.3045L53.8371 96.6441C53.8371 96.6441 53.8119 96.6441 53.8119 96.6189L49.3087 93.3736C48.5288 92.795 47.4219 92.9963 46.8433 93.7761C46.2647 94.556 46.4659 95.663 47.2458 96.2416L51.749 99.4869C52.1264 99.7636 52.3779 100.191 52.4283 100.669C52.4786 101.147 52.3276 101.625 52.0257 102.003C51.4974 102.606 50.5414 102.732 49.7867 102.279L45.1829 99.6127C45.2081 99.5624 45.2332 99.4869 45.2332 99.4366C45.2584 99.3863 45.2584 99.336 45.2835 99.3108C45.3087 99.2605 45.3087 99.185 45.3338 99.1347C45.3338 99.0844 45.359 99.0592 45.359 99.0089C45.3842 98.9334 45.3842 98.858 45.4093 98.8076C45.4093 98.7573 45.4345 98.7322 45.4345 98.6819C45.4596 98.5812 45.4596 98.4554 45.4848 98.3548C45.6609 96.5686 44.881 94.8328 43.4219 93.7761C43.2961 93.6755 43.1703 93.6 43.0445 93.5246C42.9942 93.4994 42.969 93.4743 42.9187 93.4491C42.8181 93.3988 42.7426 93.3485 42.642 93.2982C42.5917 93.273 42.5414 93.2478 42.491 93.2227C42.4156 93.1975 42.3149 93.1472 42.2143 93.122C42.164 93.0969 42.1137 93.0717 42.0382 93.0717C42.0131 93.0717 41.9627 93.0466 41.9376 93.0466V93.0214C41.9627 92.9711 41.9879 92.8956 42.0131 92.8202C42.0382 92.7698 42.0382 92.7447 42.0634 92.6944C42.0885 92.6189 42.1137 92.5686 42.1137 92.4931C42.1137 92.4428 42.1388 92.4176 42.1388 92.3673C42.164 92.2919 42.164 92.2164 42.1892 92.1409C42.1892 92.1157 42.2143 92.0654 42.2143 92.0403C42.2395 91.9396 42.2395 91.8139 42.2646 91.7132C42.4407 90.0528 41.7615 88.4176 40.4784 87.361C40.403 87.2855 40.3023 87.21 40.2269 87.1597C40.1011 87.0591 39.9501 86.9836 39.8243 86.9081C39.774 86.883 39.7489 86.8578 39.6986 86.8327C39.5979 86.7824 39.4973 86.732 39.3967 86.6817C39.3464 86.6566 39.296 86.6314 39.2709 86.6314C39.1702 86.5811 39.0696 86.5559 38.9438 86.5056C38.8935 86.4805 38.8684 86.4805 38.818 86.4553C38.6923 86.4301 38.5916 86.3798 38.4658 86.3547C38.4407 86.3547 38.3904 86.3295 38.3652 86.3295C38.2394 86.3044 38.1136 86.2792 37.9878 86.254C37.9627 86.254 37.9375 86.254 37.9124 86.254C37.7866 86.2289 37.6356 86.2289 37.5099 86.2289C37.4847 86.2289 37.4595 86.2289 37.4595 86.2289C37.3086 86.2289 37.1576 86.2289 37.0319 86.2289H37.0067C36.9815 86.2289 36.9564 86.2289 36.9312 86.2289C36.9312 86.2037 36.9061 86.1786 36.9061 86.1534C36.8809 86.0528 36.8558 85.9522 36.8306 85.8515C36.8306 85.8012 36.8054 85.7761 36.7803 85.7257C36.7551 85.6251 36.7048 85.5245 36.6545 85.4238C36.6545 85.3987 36.6293 85.3735 36.6293 85.3735C36.579 85.2477 36.5287 85.1471 36.4532 85.0213C36.4281 84.9962 36.4281 84.971 36.4029 84.9207C36.3526 84.8452 36.3023 84.7446 36.252 84.6691C36.2268 84.644 36.2017 84.5936 36.1765 84.5685C36.101 84.4679 36.0507 84.3672 35.9752 84.2918L35.9501 84.2666C35.8746 84.166 35.774 84.0653 35.6985 83.9647C35.6734 83.9396 35.6482 83.9144 35.623 83.8892C35.5476 83.8138 35.4721 83.7383 35.3966 83.688C35.3715 83.6628 35.3463 83.6377 35.296 83.6125C35.1954 83.537 35.0947 83.4364 34.9689 83.3609C33.8872 82.5811 32.5538 82.254 31.2456 82.4804C31.0947 82.5056 30.9437 82.5307 30.818 82.5811C30.7928 82.5811 30.7425 82.6062 30.7173 82.6062C30.5915 82.6314 30.4657 82.6817 30.34 82.732C30.3148 82.732 30.3148 82.732 30.2896 82.7571C30.1639 82.8075 30.0129 82.8578 29.8871 82.9333C29.862 82.9584 29.8117 82.9584 29.7865 82.9836C29.6859 83.0339 29.5601 83.1094 29.4594 83.1597C29.4343 83.1597 29.4091 83.1848 29.4091 83.1848C29.2833 83.2603 29.1576 83.3358 29.0569 83.4364C29.0318 83.4616 29.0066 83.4867 28.9815 83.5119C28.9311 83.537 28.906 83.5874 28.8557 83.6125C28.7802 83.5119 28.7047 83.4112 28.6292 83.3106C28.6041 83.2855 28.5789 83.2603 28.5538 83.2351C28.5035 83.1597 28.428 83.0842 28.3777 83.0339C28.3525 83.0087 28.3274 82.9836 28.277 82.9333C28.2016 82.8578 28.1513 82.8075 28.0758 82.7571C28.0506 82.732 28.0255 82.7068 27.9752 82.6817C27.8745 82.6062 27.7739 82.5307 27.6733 82.4553C26.5915 81.6754 25.2581 81.3483 23.95 81.5747C23.799 81.5999 23.6481 81.6251 23.5223 81.6754C23.4971 81.6754 23.4468 81.7005 23.4216 81.7005C23.2707 81.7509 23.1449 81.776 22.994 81.8263H22.9688C22.8682 81.8515 22.7927 81.9018 22.6921 81.927C21.2078 78.2791 18.9688 75.1093 16.1511 72.669L28.1009 56.0902C30.4658 57.499 33.1073 58.4801 35.9249 58.9833L34.4155 73.8514C34.1891 76.0904 35.8243 78.0779 38.0382 78.3043C40.1262 78.5055 42.1388 77.9017 43.7489 76.5936C45.359 75.2854 46.3653 73.3986 46.5917 71.3356L46.9942 67.4362C49.032 67.3607 51.0194 66.757 52.7805 65.7255L71.4222 80.1156C71.548 80.2162 71.6234 80.2917 71.6738 80.342L71.6989 80.3672C71.7241 80.3923 71.7744 80.4427 71.7995 80.4678L71.8499 80.5181C71.875 80.5433 71.875 80.5684 71.9002 80.5684L71.9505 80.6188C71.9756 80.6439 72.0008 80.6691 72.026 80.6942L72.1769 80.9207C72.2524 81.0213 72.3027 81.1219 72.3279 81.1974L72.353 81.2477C72.3782 81.298 72.3782 81.3232 72.4033 81.3735C72.4285 81.4238 72.4536 81.4741 72.4536 81.5244C72.4788 81.5747 72.4788 81.6251 72.504 81.6754L72.5543 81.8263C72.5794 81.9521 72.6046 82.0779 72.6297 82.1785V82.2288C72.6297 82.2792 72.6297 82.3295 72.6549 82.3798V82.4049V82.5307C72.6297 82.6314 72.6297 82.7823 72.6046 82.9081ZM74.8939 78.6565L74.8688 78.6062C74.8436 78.581 74.8436 78.581 74.8184 78.5558C74.7681 78.4804 74.7178 78.4301 74.6675 78.3797C74.6675 78.3797 74.6675 78.3797 74.6423 78.3546C74.6172 78.3294 74.592 78.3043 74.5669 78.254C74.5417 78.2288 74.5417 78.2288 74.5166 78.2036C74.4914 78.1533 74.4411 78.1282 74.4159 78.0779L74.3908 78.0527C74.3405 78.0024 74.3153 77.9772 74.265 77.9269C74.2147 77.8766 74.1895 77.8263 74.1392 77.8011C73.9631 77.625 73.787 77.4741 73.5354 77.2728L52.8056 61.2726L51.7239 62.0777C49.9377 63.411 47.749 64.04 45.5099 63.8135L43.7489 63.6374L43.0193 70.908C42.8936 72.0401 42.3401 73.0715 41.4596 73.8011C40.5791 74.5306 39.447 74.8577 38.3149 74.7319C38.013 74.7067 37.8117 74.43 37.8369 74.1533L39.0948 61.8009L48.1012 57.3732L50.5918 56.1405L50.7427 56.065C51.3968 55.6625 52.0257 55.3355 52.6547 55.0587C54.0132 54.4549 55.4472 54.0021 56.8811 53.7757C58.6925 53.4738 60.5541 53.4738 62.3906 53.7757C66.4662 54.4549 70.5165 54.1279 74.1895 52.8952L82.567 71.5369C79.6235 73.2476 76.982 75.6627 74.8939 78.6565Z" fill="#3AAB87"/>
</svg>
