<svg width="75" height="75" viewBox="0 0 75 75" fill="none" xmlns="http://www.w3.org/2000/svg">
<path d="M43.5417 45.5103L59.7214 29.3306V36.2321C59.7214 37.2646 60.5568 38.1 61.5893 38.1C62.6218 38.1 63.4571 37.2646 63.4571 36.2321V23.5536V22.9536H62.8571H50.1786C49.1461 22.9536 48.3107 23.7889 48.3107 24.8214C48.3107 25.8539 49.1461 26.6893 50.1786 26.6893H57.0802L40.9004 42.869C39.8956 42.3004 38.7363 41.9714 37.5 41.9714C36.2637 41.9714 35.1044 42.3004 34.0996 42.869L21.9881 30.7576C22.5568 29.7527 22.8857 28.5934 22.8857 27.3571C22.8857 23.5303 19.7733 20.4179 15.9464 20.4179C12.1196 20.4179 9.00714 23.5303 9.00714 27.3571C9.00714 28.5934 9.33609 29.7527 9.90471 30.7576L5.13571 35.5266V12.7349C5.13571 8.54514 8.54514 5.13571 12.7349 5.13571H62.2651C66.4549 5.13571 69.8643 8.54514 69.8643 12.7349V62.2651C69.8643 66.4549 66.4549 69.8643 62.2651 69.8643H12.7349C8.54514 69.8643 5.13571 66.4549 5.13571 62.2651V40.8091L12.546 33.3989C13.5508 33.9675 14.7102 34.2964 15.9464 34.2964C17.1827 34.2964 18.342 33.9675 19.3469 33.3989L31.4583 45.5103C30.8897 46.5151 30.5607 47.6744 30.5607 48.9107C30.5607 52.7376 33.6731 55.85 37.5 55.85C41.3269 55.85 44.4393 52.7376 44.4393 48.9107C44.4393 47.6744 44.1103 46.5151 43.5417 45.5103ZM62.2651 1.4H12.7349C6.48395 1.4 1.4 6.48395 1.4 12.7349V62.2651C1.4 68.5161 6.48395 73.6 12.7349 73.6H62.2651C68.5161 73.6 73.6 68.5161 73.6 62.2651V12.7349C73.6 6.48395 68.5161 1.4 62.2651 1.4ZM15.9464 30.5607C14.1808 30.5607 12.7429 29.1228 12.7429 27.3571C12.7429 25.5915 14.1808 24.1536 15.9464 24.1536C17.7121 24.1536 19.15 25.5915 19.15 27.3571C19.15 29.1228 17.7121 30.5607 15.9464 30.5607ZM40.7036 48.9107C40.7036 50.6764 39.2657 52.1143 37.5 52.1143C35.7343 52.1143 34.2964 50.6764 34.2964 48.9107C34.2964 47.1451 35.7343 45.7071 37.5 45.7071C39.2657 45.7071 40.7036 47.1451 40.7036 48.9107Z" fill="#3AAB87" stroke="#3AAB87" stroke-width="1.2"/>
</svg>
