<svg width="100" height="98" viewBox="0 0 100 98" fill="none" xmlns="http://www.w3.org/2000/svg">
<path d="M56.6667 88.053H20.55C20.4786 88.053 20.4078 88.039 20.342 88.0117C20.2762 87.9844 20.2166 87.9445 20.1669 87.8942C20.1171 87.8439 20.0782 87.7843 20.0524 87.719C20.0266 87.6537 20.0145 87.584 20.0167 87.514V51.744C21.3983 52.3635 22.8728 52.7606 24.3834 52.92V83.3C24.3834 83.7332 24.559 84.1486 24.8715 84.4549C25.1841 84.7612 25.608 84.9333 26.05 84.9333H46.4834C46.9254 84.9333 47.3493 84.7612 47.6619 84.4549C47.9744 84.1486 48.15 83.7332 48.15 83.3C48.15 82.8668 47.9744 82.4514 47.6619 82.145C47.3493 81.8387 46.9254 81.6666 46.4834 81.6666H27.65V52.92C30.3106 52.6327 32.8408 51.6397 34.9684 50.048C37.0959 48.4562 38.7402 46.326 39.7242 43.8866C40.7083 41.4471 40.9948 38.7909 40.5529 36.2037C40.1111 33.6165 38.9576 31.1965 37.2167 29.204H72.4167V51.1397C72.4167 51.5728 72.5923 51.9883 72.9049 52.2946C73.2174 52.6009 73.6413 52.773 74.0834 52.773C74.5254 52.773 74.9493 52.6009 75.2619 52.2946C75.5744 51.9883 75.75 51.5728 75.75 51.1397V27.6033C75.75 27.1701 75.5744 26.7547 75.2619 26.4484C74.9493 26.1421 74.5254 25.97 74.0834 25.97H33.3334C31.3187 24.8391 29.0571 24.1971 26.7375 24.0976C24.418 23.9982 22.1078 24.4442 20 25.3983V19.0447C19.9978 18.9747 20.0099 18.9049 20.0357 18.8396C20.0615 18.7743 20.1005 18.7147 20.1502 18.6645C20.2 18.6142 20.2595 18.5742 20.3253 18.5469C20.3912 18.5197 20.4619 18.5056 20.5334 18.5057H37.4834V21.2333C37.4834 21.6665 37.659 22.082 37.9715 22.3883C38.2841 22.6946 38.708 22.8667 39.15 22.8667H60.9834C61.4254 22.8667 61.8493 22.6946 62.1619 22.3883C62.4744 22.082 62.65 21.6665 62.65 21.2333V18.5057H79.5167C79.5882 18.5056 79.6589 18.5197 79.7247 18.5469C79.7905 18.5742 79.8501 18.6142 79.8998 18.6645C79.9496 18.7147 79.9885 18.7743 80.0143 18.8396C80.0401 18.9049 80.0523 18.9747 80.05 19.0447V52.675C80.05 53.1082 80.2256 53.5236 80.5382 53.8299C80.8508 54.1362 81.2747 54.3083 81.7167 54.3083C82.1587 54.3083 82.5827 54.1362 82.8952 53.8299C83.2078 53.5236 83.3834 53.1082 83.3834 52.675V19.0447C83.379 18.054 82.9755 17.1051 82.2607 16.4046C81.5458 15.7041 80.5776 15.3086 79.5667 15.3043H62.5834V14.7C62.5834 14.2668 62.4078 13.8514 62.0952 13.545C61.7827 13.2387 61.3587 13.0667 60.9167 13.0667H57.1334V11.4333C57.1115 10.148 56.5751 8.92251 55.6398 8.02117C54.7044 7.11983 53.4451 6.61481 52.1334 6.61499H47.85C46.5384 6.63642 45.288 7.16211 44.3683 8.07872C43.4485 8.99534 42.9332 10.2295 42.9334 11.515V13.1483H39.1167C38.6747 13.1483 38.2508 13.3204 37.9382 13.6267C37.6256 13.933 37.45 14.3485 37.45 14.7817V15.3207H20.55C20.0452 15.3142 19.5441 15.4055 19.0754 15.5893C18.6067 15.7732 18.1797 16.046 17.8189 16.392C17.458 16.738 17.1705 17.1505 16.9728 17.6057C16.7751 18.0609 16.671 18.5499 16.6667 19.0447V27.3583C14.964 28.712 13.591 30.4211 12.648 32.361C11.7049 34.3008 11.2156 36.4224 11.2156 38.5712C11.2156 40.7199 11.7049 42.8415 12.648 44.7813C13.591 46.7212 14.964 48.4303 16.6667 49.784V87.514C16.6667 88.5075 17.0683 89.4605 17.7836 90.1646C18.4989 90.8686 19.4696 91.2663 20.4834 91.2707H56.6667C57.1087 91.2707 57.5327 91.0986 57.8452 90.7923C58.1578 90.486 58.3334 90.0705 58.3334 89.6373C58.3334 89.2041 58.1578 88.7887 57.8452 88.4824C57.5327 88.1761 57.1087 88.004 56.6667 88.004V88.053ZM47.85 9.94699H52.2167C52.6587 9.94699 53.0827 10.1191 53.3952 10.4254C53.7078 10.7317 53.8834 11.1471 53.8834 11.5803V13.2137H46.2167V11.5803C46.2166 11.1527 46.3876 10.7422 46.693 10.4368C46.9984 10.1314 47.4138 9.95554 47.85 9.94699ZM40.75 16.3333H59.3167V19.6H40.75V16.3333ZM14.55 38.5793C14.5467 36.3575 15.2156 34.1846 16.4721 32.3352C17.7286 30.4858 19.5164 29.0429 21.6094 28.1889C23.7024 27.3349 26.0068 27.1082 28.2313 27.5373C30.4558 27.9664 32.5005 29.0321 34.1072 30.5997C35.7138 32.1674 36.8102 34.1666 37.2577 36.3447C37.7053 38.5228 37.4839 40.7821 36.6216 42.837C35.7594 44.8918 34.2948 46.6501 32.4132 47.8895C30.5315 49.1289 28.3172 49.7939 26.05 49.8003C23.0073 49.8047 20.0873 48.6254 17.9311 46.5215C15.7749 44.4177 14.5589 41.5611 14.55 38.5793Z" fill="#3AAB87"/>
<path d="M25.8869 24.5C23.8806 24.5097 21.8991 24.9386 20.0733 25.7584L19.7958 25.2934C19.6129 24.9878 19.3168 24.7642 18.9699 24.6697C18.623 24.5753 18.2525 24.6175 17.9365 24.7873C15.5255 26.1707 13.5241 28.1526 12.1317 30.5356C10.7392 32.9186 10.0043 35.6196 10 38.3697C10 38.7325 10.1462 39.0804 10.4064 39.3369C10.6666 39.5934 11.0195 39.7375 11.3875 39.7375H11.9009C12.167 42.4141 13.2159 44.9568 14.9203 47.0568C16.6246 49.1568 18.911 50.7235 21.5015 51.5667C24.0921 52.4099 26.8753 52.4932 29.5129 51.8064C32.1506 51.1197 34.5292 49.6925 36.3596 47.6983C38.19 45.7041 39.3934 43.2288 39.8237 40.5731C40.254 37.9173 39.8926 35.1956 38.7834 32.7385C37.6741 30.2814 35.8649 28.1949 33.5755 26.7324C31.286 25.2698 28.615 24.4943 25.8869 24.5ZM18.1585 27.8649L23.5281 37.0976H12.8028C12.9878 35.2742 13.5604 33.5097 14.4831 31.9189C15.4059 30.3281 16.6582 28.9468 18.1585 27.8649ZM25.8869 49.5858C23.1112 49.5821 20.4329 48.577 18.3573 46.7601C16.2818 44.9433 14.9525 42.4405 14.6204 39.7238H25.8869C26.1225 39.7163 26.3524 39.6497 26.5547 39.5303C26.757 39.4109 26.9251 39.2426 27.0431 39.0414C27.1611 38.8402 27.2252 38.6126 27.2292 38.3802C27.2333 38.1478 27.1772 37.9182 27.0663 37.7131L21.433 28.1384C22.9856 27.4618 24.6722 27.1366 26.3689 27.1869C28.0657 27.2371 29.7294 27.6614 31.238 28.4287C32.7466 29.1959 34.0616 30.2866 35.0865 31.6206C36.1114 32.9546 36.8201 34.498 37.1606 36.1375C37.501 37.7769 37.4646 39.4707 37.0539 41.0944C36.6432 42.7181 35.8687 44.2305 34.7874 45.5205C33.706 46.8104 32.3452 47.8452 30.805 48.5487C29.2648 49.2521 27.5843 49.6065 25.8869 49.5858Z" fill="#3AAB87"/>
<path d="M40.5502 56.3336C40.2394 56.0392 39.8241 55.8747 39.3919 55.8747C38.9597 55.8747 38.5443 56.0392 38.2336 56.3336L33.3336 61.0703C33.0332 61.3748 32.8652 61.7819 32.8652 62.2054C32.8652 62.629 33.0332 63.036 33.3336 63.3406C33.4819 63.4925 33.6606 63.613 33.8584 63.6944C34.0562 63.7759 34.269 63.8167 34.4836 63.8143C34.9208 63.8125 35.3398 63.6424 35.6502 63.3406L39.3169 59.7473L42.6502 63.0139C42.961 63.3083 43.3763 63.4729 43.8086 63.4729C44.2408 63.4729 44.6561 63.3083 44.9669 63.0139L51.2502 56.8399L54.1169 59.6493C54.4277 59.9437 54.843 60.1082 55.2752 60.1082C55.7075 60.1082 56.1228 59.9437 56.4336 59.6493L66.6669 49.7676C66.9673 49.4631 67.1352 49.056 67.1352 48.6324C67.1352 48.2089 66.9673 47.8018 66.6669 47.4973C66.3561 47.2029 65.9408 47.0383 65.5086 47.0383C65.0763 47.0383 64.661 47.2029 64.3502 47.4973L55.3836 56.3009L52.5169 53.4916C52.2061 53.1972 51.7908 53.0327 51.3586 53.0327C50.9263 53.0327 50.511 53.1972 50.2002 53.4916L43.9002 59.6656L40.5502 56.3336Z" fill="#3AAB87"/>
<path d="M65.5501 34.3H45.9001C45.458 34.3 45.0341 34.4721 44.7216 34.7784C44.409 35.0847 44.2334 35.5002 44.2334 35.9334C44.2334 36.3666 44.409 36.782 44.7216 37.0883C45.0341 37.3946 45.458 37.5667 45.9001 37.5667H65.5501C65.9921 37.5667 66.416 37.3946 66.7286 37.0883C67.0411 36.782 67.2167 36.3666 67.2167 35.9334C67.2167 35.5002 67.0411 35.0847 66.7286 34.7784C66.416 34.4721 65.9921 34.3 65.5501 34.3Z" fill="#3AAB87"/>
<path d="M65.5501 39.6411H53.5335C53.0915 39.6411 52.6675 39.8132 52.355 40.1195C52.0424 40.4258 51.8668 40.8413 51.8668 41.2744C51.8668 41.7076 52.0424 42.1231 52.355 42.4294C52.6675 42.7357 53.0915 42.9078 53.5335 42.9078H65.5501C65.9922 42.9078 66.4161 42.7357 66.7287 42.4294C67.0412 42.1231 67.2168 41.7076 67.2168 41.2744C67.2168 40.8413 67.0412 40.4258 66.7287 40.1195C66.4161 39.8132 65.9922 39.6411 65.5501 39.6411Z" fill="#3AAB87"/>
<path d="M81.7874 59.3834V62.6395C84.4981 63.5986 86.7941 65.435 88.2962 67.8455C89.7983 70.256 90.4168 73.0966 90.0495 75.8981C89.6821 78.6996 88.351 81.2946 86.2758 83.2546C84.2007 85.2145 81.5055 86.4224 78.6355 86.6786V83.5676C82.0891 83.2444 84.9113 81.5301 84.9113 78.0302C84.9113 73.8402 81.4297 72.8872 77.6938 72.4353C75.5423 72.1834 73.6981 71.7562 73.6981 70.2281C73.6981 68.9218 74.9024 67.8921 77.4116 67.8921C79.3676 67.8921 81.0441 68.8478 81.6616 69.8501L84.3497 68.4945C83.2068 66.2133 80.977 65.3014 78.6355 65.0713V58.8411C78.2583 58.8165 77.8782 58.8 77.4926 58.8C73.7507 58.8021 70.1304 60.1029 67.2737 62.4717C64.417 64.8404 62.5086 68.1242 61.8868 71.7406C61.265 75.357 61.97 79.0724 63.8769 82.2279C65.7837 85.3834 68.7692 87.7751 72.3038 88.979V85.6461C69.8177 84.5521 67.7579 82.7017 66.43 80.3694C65.102 78.0371 64.5768 75.3473 64.9323 72.6993C65.2877 70.0513 66.5049 67.5862 68.4031 65.6699C70.3014 63.7536 72.7795 62.4882 75.4696 62.0617V65.1754C72.7872 65.6519 70.3702 67.18 70.3702 70.1267C70.3702 74.0648 73.7512 75.0205 77.4116 75.445C79.7923 75.6969 81.5582 76.3734 81.5582 78.0302C81.5582 79.9472 79.5604 80.6647 77.4367 80.6647C75.26 80.6647 73.1867 79.813 72.3932 77.8796L69.5766 79.3091C70.6663 81.9354 72.7453 83.1431 75.4696 83.5101V89.7074C76.1406 89.791 76.8163 89.833 77.4926 89.8334C81.3163 89.8354 85.0115 88.4811 87.8956 86.0208C90.7798 83.5604 92.6579 80.1601 93.1832 76.4482C93.7084 72.7362 92.8452 68.9634 90.7531 65.8267C88.661 62.6899 85.4812 60.4012 81.8013 59.3834H81.7874Z" fill="#3AAB87"/>
</svg>
