<svg width="71" height="96" viewBox="0 0 71 96" fill="none" xmlns="http://www.w3.org/2000/svg">
<path d="M69.3913 94.0881C68.8658 94.6136 68.1532 94.909 67.41 94.9094H67.4085C66.9671 94.9097 66.5321 94.8048 66.1394 94.6034L66.1373 94.6024L55.425 89.1526L55.0356 88.9545L54.6712 89.1955L46.7216 94.4534C46.2628 94.7569 45.7248 94.9187 45.1746 94.9187C44.6245 94.9187 44.0865 94.7569 43.6277 94.4534L43.6276 94.4533L35.9055 89.3471L35.4918 89.0736L35.0781 89.3472L27.3608 94.451L27.7514 95.0415L27.3608 94.451C26.9019 94.7545 26.3639 94.9163 25.8138 94.9163C25.2637 94.9163 24.7257 94.7545 24.2668 94.451L24.2666 94.4508L16.3099 89.193L15.9454 88.9521L15.556 89.1504L4.83421 94.612L4.83413 94.6121C4.40613 94.8301 3.9293 94.9346 3.44933 94.9155C2.96936 94.8964 2.50235 94.7542 2.09307 94.5028C1.68379 94.2513 1.34597 93.899 1.11199 93.4794C0.878014 93.0599 0.755723 92.5873 0.756846 92.107V92.1052V3.96164C0.756846 3.96155 0.756846 3.96147 0.756846 3.96139C0.757049 3.48176 0.880273 3.01019 1.11474 2.59177C1.34925 2.17328 1.68719 1.82194 2.09626 1.57136C2.50533 1.32078 2.97185 1.17933 3.4512 1.16054C3.93055 1.14175 4.4067 1.24625 4.83413 1.46404L4.83456 1.46426L15.5469 6.91401L15.9359 7.1119L16.3001 6.8715L24.252 1.62315L24.2526 1.62274C24.7115 1.31925 25.2494 1.15743 25.7996 1.15743C26.3497 1.15743 26.8877 1.31925 27.3466 1.62274L27.347 1.62303L35.0643 6.71973L35.4776 6.99266L35.8909 6.71979L43.6106 1.62309L43.6108 1.62291C44.0695 1.31981 44.6071 1.15821 45.1569 1.15821C45.7066 1.15821 46.2443 1.31981 46.7029 1.62291L46.703 1.62298L54.662 6.8808L55.0266 7.12162L55.4158 6.92331L66.1372 1.46193C66.5647 1.2445 67.0409 1.14036 67.5201 1.15945C67.9993 1.17854 68.4657 1.32024 68.8745 1.57099C69.2834 1.82174 69.6211 2.17316 69.8553 2.59167C70.0896 3.01017 70.2126 3.48177 70.2126 3.96139V92.1052C70.2126 92.849 69.9172 93.5622 69.3913 94.0881ZM16.2769 13.1659C15.7818 13.1941 15.288 13.0905 14.846 12.8657C14.8459 12.8657 14.8458 12.8656 14.8457 12.8655L7.45585 9.09837L6.36522 8.54239V9.76656V86.3001V87.5239L7.45567 86.9683L14.8511 83.2007C14.8517 83.2004 14.8524 83.2001 14.853 83.1998C15.2475 83.0024 15.683 82.9009 16.1242 82.9035L16.1286 82.1535L16.1291 82.9035C16.6787 82.9032 17.2162 83.0644 17.675 83.3671C17.675 83.3671 17.6751 83.3671 17.6751 83.3671L25.3994 88.4661L25.8129 88.7391L26.2262 88.4658L33.9458 83.3621C34.4045 83.059 34.9421 82.8974 35.4919 82.8974C36.0416 82.8974 36.5792 83.059 37.0379 83.3621L44.7501 88.4657L45.1638 88.7394L45.5776 88.4658L53.2973 83.362L53.2976 83.3618C53.7113 83.0881 54.1902 82.929 54.6854 82.9007C55.1807 82.8725 55.6746 82.9761 56.1167 83.2011L63.5065 86.9683L64.5972 87.5242V86.3001V9.76656V8.54258L63.5066 9.09833L56.1092 12.8681C55.6672 13.0934 55.1734 13.1973 54.6782 13.1694C54.1829 13.1415 53.7039 12.9827 53.29 12.7092L45.5781 7.60114L45.1647 7.32727L44.7508 7.60049L37.0264 12.6996L37.0258 12.6999C36.5669 13.0034 36.029 13.1653 35.4788 13.1653C34.9287 13.1653 34.3907 13.0034 33.9318 12.6999L33.9315 12.6997L26.2118 7.60061L25.7982 7.32744L25.3848 7.60078L17.6651 12.7046L17.6648 12.7048C17.2511 12.9785 16.7722 13.1377 16.2769 13.1659Z" fill="#3AAB87" stroke="#F8F9FA" stroke-width="1.5"/>
<path d="M54.1683 61.3713H16.7948C16.0511 61.3713 15.3378 61.0759 14.8119 60.55C14.286 60.0241 13.9906 59.3109 13.9906 58.5671C13.9906 57.8234 14.286 57.1102 14.8119 56.5843C15.3378 56.0584 16.0511 55.7629 16.7948 55.7629H54.1683C54.912 55.7629 55.6252 56.0584 56.1511 56.5843C56.677 57.1102 56.9725 57.8234 56.9725 58.5671C56.9725 59.3108 56.677 60.0241 56.1511 60.55C55.6252 61.0759 54.912 61.3713 54.1683 61.3713Z" fill="#3AAB87" stroke="#F8F9FA" stroke-width="1.5"/>
<path d="M54.1683 72.013H16.7948C16.0511 72.013 15.3378 71.7176 14.8119 71.1917C14.286 70.6658 13.9906 69.9526 13.9906 69.2089C13.9906 68.4651 14.286 67.7519 14.8119 67.226C15.3378 66.7001 16.0511 66.4047 16.7948 66.4047H54.1683C54.912 66.4047 55.6252 66.7001 56.1511 67.226C56.677 67.7519 56.9725 68.4651 56.9725 69.2089C56.9725 69.9526 56.677 70.6658 56.1511 71.1917C55.6252 71.7176 54.912 72.013 54.1683 72.013Z" fill="#3AAB87" stroke="#F8F9FA" stroke-width="1.5"/>
<path fill-rule="evenodd" clip-rule="evenodd" d="M45.9663 41.4174C45.832 41.4163 45.6943 41.4482 45.5662 41.5081C45.4207 41.5663 45.2735 41.6329 45.1352 41.6917L44.9299 41.7767L44.6629 41.8825V41.8859C41.7706 43.0589 38.7327 43.7462 35.9215 43.8066C35.8186 43.81 35.715 43.81 35.6132 43.81C31.193 43.8122 27.586 41.7616 23.9454 39.7413C23.8178 39.6747 23.6896 39.6394 23.5614 39.6394C23.3969 39.6394 23.2296 39.7004 23.1075 39.8151C22.985 39.9299 22.9122 40.0972 22.9133 40.2668C22.9128 40.4878 23.032 40.6899 23.1971 40.8208C26.6133 43.7865 30.3568 46.5423 35.391 46.5445C35.4895 46.5445 35.5891 46.5423 35.6904 46.54C38.8922 46.4678 42.5155 45.3866 45.3261 43.6203L45.3423 43.6091C45.7106 43.3891 46.0788 43.139 46.4258 42.8614C46.6424 42.7008 46.7907 42.4517 46.7885 42.1915C46.7818 41.7303 46.3894 41.4174 45.9663 41.4174Z" fill="#3AAB87"/>
<path fill-rule="evenodd" clip-rule="evenodd" d="M49.8673 39.78V39.7789C49.8561 39.4968 49.7962 39.2836 49.6792 39.1056L49.6675 39.0894L49.6535 39.072C49.5343 38.9422 49.4206 38.893 49.2958 38.8381C48.9276 38.696 48.3909 38.6204 47.7439 38.6182C47.2794 38.6182 46.7656 38.6618 46.2518 38.7743L46.2507 38.7402L45.7314 38.9131L45.7224 38.9176L45.4297 39.0127V39.0256C45.0866 39.1678 44.7738 39.3457 44.4833 39.5556C44.3042 39.691 44.1531 39.8696 44.1447 40.1438C44.1402 40.2927 44.2158 40.4639 44.3428 40.5658C44.4676 40.6676 44.6137 40.7012 44.7419 40.7012C44.7727 40.7012 44.8006 40.7001 44.8258 40.6956L44.851 40.6934L44.8706 40.69C45.1241 40.6363 45.4935 40.6005 45.9256 40.5389C46.2961 40.4986 46.6895 40.4678 47.0309 40.4678C47.2727 40.4667 47.4887 40.483 47.6376 40.516C47.712 40.5311 47.7674 40.5507 47.7993 40.5663C47.8094 40.5708 47.8167 40.5753 47.8211 40.5781C47.8279 40.5988 47.8374 40.6514 47.8362 40.727C47.8396 41.0124 47.717 41.5413 47.5519 42.0573C47.3902 42.5744 47.1932 43.0927 47.0622 43.4368C47.0315 43.5169 47.0119 43.6031 47.0119 43.6982C47.0096 43.837 47.0656 44.0043 47.1859 44.1157C47.3029 44.2271 47.454 44.2707 47.5816 44.2707H47.5872C47.7786 44.2685 47.9403 44.1929 48.0803 44.0838C49.3966 42.9001 49.8533 41.0124 49.8717 39.9485L49.8673 39.78Z" fill="#3AAB87"/>
<path fill-rule="evenodd" clip-rule="evenodd" d="M37.8342 27.098C37.0602 27.1562 36.1681 27.2149 35.2754 27.333C33.9082 27.5132 32.5392 27.7494 31.4098 28.2861C29.2093 29.1782 27.7217 31.0816 27.7217 33.8766C27.7217 37.3873 29.9816 39.1715 32.8375 39.1715C33.7884 39.1715 34.5635 39.0512 35.2749 38.8743C36.4059 38.5167 37.3574 37.863 38.4884 36.6715C39.1421 37.5647 39.3212 37.9822 40.4506 38.9331C40.7478 39.0512 41.045 39.0512 41.2823 38.8743C41.997 38.2789 43.2467 37.2071 43.9004 36.6139C44.1987 36.3755 44.1388 36.0184 43.9591 35.7229C43.3066 34.889 42.6506 34.1749 42.6506 32.5681V27.2149C42.6506 24.9545 42.8297 22.872 41.1642 21.3273C39.7969 20.0792 37.6551 19.6024 35.9896 19.6024H35.2749C32.2426 19.7782 29.0296 21.0878 28.316 24.8364C28.1968 25.3132 28.5545 25.4901 28.7929 25.5488L32.1229 25.9652C32.4816 25.9064 32.6585 25.6076 32.7183 25.3126C33.0155 24.003 34.0856 23.3482 35.2749 23.229H35.5144C36.228 23.229 37.0009 23.5273 37.4172 24.1222C37.893 24.8358 37.8336 25.7884 37.8336 26.6211V27.098H37.8342ZM37.1805 34.1749C36.7641 35.0054 36.0494 35.541 35.2754 35.7229C35.1573 35.7229 34.9794 35.7817 34.7997 35.7817C33.4923 35.7817 32.7183 34.7692 32.7183 33.2828C32.7183 31.3788 33.8488 30.4867 35.2749 30.0703C36.0489 29.8923 36.941 29.8319 37.8336 29.8319V30.5466C37.8342 31.9144 37.893 32.9845 37.1805 34.1749Z" fill="#3AAB87"/>
</svg>
