<svg width="82" height="66" viewBox="0 0 82 66" fill="none" xmlns="http://www.w3.org/2000/svg">
<path d="M46.9602 52H2.47156V2H76.6193V29.5" stroke="#3AAB87" stroke-width="3.5" stroke-linejoin="round"/>
<path d="M39.5455 39.5C46.3706 39.5 51.9034 33.9036 51.9034 27C51.9034 20.0964 46.3706 14.5 39.5455 14.5C32.7203 14.5 27.1875 20.0964 27.1875 27C27.1875 33.9036 32.7203 39.5 39.5455 39.5Z" stroke="#3AAB87" stroke-width="3.5" stroke-linejoin="round"/>
<path d="M19.7727 12H12.3579V19.5" stroke="#3AAB87" stroke-width="3.5" stroke-linejoin="round"/>
<path d="M66.7329 19.5V12H59.3181" stroke="#3AAB87" stroke-width="3.5" stroke-linejoin="round"/>
<path d="M12.3579 34.5V42H19.7727" stroke="#3AAB87" stroke-width="3.5" stroke-linejoin="round"/>
<path d="M71.7945 39.0568V41.8548C74.1265 42.6789 76.1017 44.2569 77.3939 46.3282C78.6862 48.3996 79.2183 50.8404 78.9023 53.2477C78.5863 55.655 77.4411 57.8849 75.6559 59.5691C73.8706 61.2533 71.552 62.2911 69.0829 62.5113V59.838C72.0541 59.5604 74.482 58.0872 74.482 55.0798C74.482 51.4794 71.4868 50.6605 68.2729 50.2722C66.4219 50.0557 64.8354 49.6886 64.8354 48.3755C64.8354 47.253 65.8714 46.3682 68.0301 46.3682C69.7127 46.3682 71.155 47.1895 71.6863 48.0508L73.9988 46.8859C73.0156 44.9257 71.0974 44.1421 69.0829 43.9444V38.5908C68.7584 38.5697 68.4315 38.5555 68.0998 38.5555C64.8806 38.5573 61.7661 39.675 59.3086 41.7105C56.851 43.746 55.2092 46.5677 54.6743 49.6752C54.1394 52.7828 54.7459 55.9754 56.3863 58.6869C58.0268 61.3984 60.5951 63.4536 63.6359 64.488V61.6241C61.4972 60.6841 59.7251 59.094 58.5827 57.0899C57.4403 55.0858 56.9885 52.7745 57.2943 50.4991C57.6 48.2236 58.6472 46.1054 60.2802 44.4587C61.9132 42.8121 64.0451 41.7248 66.3594 41.3582V44.0338C64.0517 44.4433 61.9724 45.7564 61.9724 48.2884C61.9724 51.6724 64.881 52.4936 68.0301 52.8584C70.0781 53.0749 71.5974 53.6561 71.5974 55.0798C71.5974 56.7271 69.8786 57.3436 68.0517 57.3436C66.1791 57.3436 64.3955 56.6118 63.7128 54.9504L61.2897 56.1788C62.2272 58.4355 64.0157 59.4733 66.3594 59.7886V65.114C66.9366 65.1858 67.5179 65.2219 68.0998 65.2222C71.3892 65.2239 74.5682 64.0602 77.0493 61.946C79.5305 59.8319 81.1463 56.9101 81.5981 53.7204C82.05 50.5308 81.3074 47.2888 79.5076 44.5934C77.7077 41.8981 74.9723 39.9314 71.8065 39.0568H71.7945Z" fill="#3AAB87"/>
</svg>
