<svg width="67" height="66" viewBox="0 0 67 66" fill="none" xmlns="http://www.w3.org/2000/svg">
<mask id="path-1-outside-1" maskUnits="userSpaceOnUse" x="-0.998779" y="-0.999878" width="69" height="68" fill="black">
<rect fill="white" x="-0.998779" y="-0.999878" width="69" height="68"/>
<path d="M44.6716 40.8094C46.6527 41.7512 48.2823 43.0179 49.6496 44.7142C51.8317 43.318 53.9998 41.9302 56.154 40.5506C55.4397 36.9075 56.6033 34.3989 59.455 33.347C61.9831 32.4135 64.8461 33.4213 66.2189 35.7234C67.5918 38.0255 67.0951 40.9609 65.0219 42.6957C63.0574 44.3397 59.9573 44.6591 57.4097 42.3873C55.275 43.7531 53.1236 45.13 50.9164 46.5426C53.0037 50.7419 53.0957 54.9523 50.8299 59.0966C49.1362 62.1945 46.5244 64.2762 43.1341 65.3722C36.719 67.4457 29.0007 64.3286 26.3331 56.9349C24.7259 57.3039 23.1074 57.6674 21.5002 58.0695C21.369 58.1025 21.2463 58.4082 21.2323 58.5954C21.0342 61.2885 19.0251 63.4143 16.3156 63.7696C13.7959 64.1028 11.279 62.569 10.3805 60.154C9.41223 57.5463 10.6288 54.5943 13.182 53.3579C15.7352 52.1215 18.8047 52.9724 20.3422 55.3488C20.465 55.5388 20.5794 55.7371 20.7189 55.9684C22.4098 55.5719 24.0952 55.1781 25.8197 54.7761C25.2644 50.5932 26.4727 46.9722 29.2714 43.8165C27.8092 42.2331 26.375 40.6773 24.9156 39.0967C20.6686 42.0514 16.1426 42.6269 11.2567 40.669C10.587 41.8503 9.92287 43.0179 9.26155 44.1827C11.6222 47.2227 11.7924 49.825 9.78893 52.0417C7.9696 54.0546 4.98946 54.5007 2.69297 53.1046C0.382534 51.7002 -0.58294 48.9438 0.368582 46.471C1.40661 43.7724 3.92912 42.5415 7.28595 43.1335C7.9389 41.977 8.60022 40.8039 9.25596 39.6474C8.51093 38.9893 7.76311 38.4055 7.10737 37.7391C1.2922 31.816 2.39719 22.112 9.40386 17.6263C9.90333 17.3069 9.97588 17.0866 9.70522 16.5579C8.82624 14.8451 8.00866 13.102 7.18829 11.3617C7.01807 10.9982 6.85623 10.866 6.40977 10.9459C3.49102 11.4663 0.692267 9.4589 0.0951243 6.46015C-0.457372 3.68995 1.49032 0.773816 4.30303 0.168008C6.85344 -0.382726 9.34805 0.738018 10.5423 2.974C11.7394 5.21273 11.2511 7.84249 9.31177 9.61035C9.21132 9.70122 9.10807 9.79209 8.96855 9.91325C9.98426 12.0198 10.9972 14.1181 12.0045 16.2026C19.1479 14.1594 24.6422 16.2908 28.6826 22.4232C32.6896 20.7517 36.7385 19.0609 40.8571 17.3427C40.073 14.8286 39.953 12.3062 40.6813 9.72049C39.4731 9.27991 38.3095 8.85584 37.1375 8.43178C36.2055 9.74252 35.0308 10.6044 33.4626 10.9128C30.5048 11.4966 27.5553 9.61035 26.9386 6.71899C26.2941 3.70648 28.1776 0.790338 31.1717 0.156993C34.7601 -0.60302 38.0611 2.07355 37.9495 5.68912C37.9328 6.22333 38.0862 6.45464 38.5829 6.61435C39.5289 6.9145 40.4553 7.27248 41.4431 7.62495C43.4549 3.76981 46.5327 1.24469 50.8411 0.311199C54.0528 -0.382726 57.1278 0.0936588 60.0075 1.64673C65.6804 4.70881 68.3257 11.4443 66.3584 17.2738C64.3521 23.2245 57.7836 27.8507 50.1072 25.9809C48.3046 30.899 46.4965 35.8253 44.6716 40.8094ZM26.5731 37.6042C28.0353 39.1875 29.4779 40.7489 30.9345 42.324C34.4894 39.8071 38.3346 39.0168 42.5648 40.0467C44.3869 35.0708 46.1923 30.1472 48.0033 25.1989C45.238 23.9019 43.1843 21.9496 41.7333 19.3776C37.6147 21.0987 33.5686 22.7894 29.4974 24.4884C30.9652 29.412 29.9272 33.749 26.5731 37.6042ZM62.0026 20.3166C65.5241 16.5744 65.9706 9.94905 61.4781 5.46332C57.1223 1.11527 49.8254 1.19788 45.5952 5.56796C41.0915 10.2217 41.8393 16.8718 45.171 20.2891C46.3179 18.0999 46.583 17.8328 49.4933 15.9218C47.3978 13.0029 47.5261 10.1308 49.8505 8.03525C51.9042 6.18203 55.1299 6.14623 57.2395 7.95264C59.6197 9.99035 59.7843 12.8459 57.6692 15.9741C59.6755 16.8718 61.132 18.312 62.0026 20.3166ZM30.5522 59.7767C31.1633 58.9506 31.6963 58.0254 32.4301 57.2957C33.1612 56.5687 34.0932 56.04 34.9359 55.4259C32.8068 53.0495 33.1556 49.8663 34.9554 47.9745C36.9171 45.9148 39.9865 45.6008 42.2997 47.22C43.4243 48.0075 44.1553 49.076 44.4846 50.384C44.9729 52.3198 44.3981 54.0161 43.0978 55.5443C45.1822 56.4613 46.6109 57.9263 47.4898 59.9282C51.1732 55.883 51.3266 49.2963 46.9039 44.9868C42.4951 40.6883 35.3656 40.7737 31.1242 45.1052C26.7322 49.5937 27.1647 56.1474 30.5522 59.7767ZM20.7775 31.3533C22.8396 32.2703 24.285 33.7215 25.1556 35.7289C28.7887 31.849 29.0789 25.1218 24.5445 20.7737C19.8427 16.266 12.6044 16.5909 8.27096 21.52C4.26675 26.0718 5.14572 32.441 8.3463 35.6656C9.21132 33.6582 10.6874 32.24 12.6993 31.3396C10.3442 28.6988 10.9079 25.3145 12.9588 23.4586C15.0516 21.5613 18.294 21.5172 20.451 23.398C22.3345 25.0447 23.3474 28.3298 20.7775 31.3533ZM60.1275 22.0817C59.7034 19.8678 58.004 18.1109 55.7968 17.7667C54.6835 17.5932 53.5338 17.6235 52.4009 17.6263C50.0179 17.6318 47.861 19.2757 47.1578 21.5282C47.0211 21.9633 47.1271 22.1671 47.4926 22.4067C51.335 24.9153 56.2656 24.8079 60.1275 22.0817ZM23.3195 37.4417C22.6721 35.1066 21.2518 33.537 18.7991 33.1377C17.5992 32.9422 16.3435 32.9642 15.1241 33.0496C12.8528 33.2066 10.9748 34.7927 10.3024 36.9213C10.174 37.3233 10.2521 37.5216 10.5981 37.7584C14.3205 40.3 19.6167 40.2009 23.3195 37.4417ZM39.2917 57.2021C38.6778 57.2021 38.2592 57.1965 37.8435 57.2021C35.4242 57.2406 33.2366 58.9066 32.6282 61.2031C32.578 61.3959 32.6868 61.7429 32.8431 61.8585C36.2948 64.3974 41.7249 64.4084 45.2631 61.9301C45.5673 61.7181 45.6175 61.5391 45.5143 61.2059C45.1906 60.1485 44.6185 59.2563 43.773 58.5348C42.4253 57.3783 40.8236 57.0726 39.2917 57.2021ZM35.7284 51.7388C35.7367 53.5314 37.238 54.9964 39.0657 54.9964C40.8934 54.9964 42.4448 53.4516 42.4169 51.6589C42.389 49.8773 40.8571 48.3931 39.0573 48.4013C37.1933 48.4123 35.72 49.8911 35.7284 51.7388ZM13.4053 27.501C13.4025 29.3129 14.8702 30.7916 16.6923 30.8081C18.534 30.8274 20.0799 29.3349 20.0938 27.523C20.1078 25.7276 18.5507 24.2048 16.7175 24.2158C14.8953 24.2268 13.4081 25.7028 13.4053 27.501ZM5.58382 8.82004C7.43105 8.82004 8.94902 7.31929 8.94344 5.49912C8.93786 3.72024 7.42268 2.23326 5.60893 2.225C3.77285 2.21949 2.23814 3.73677 2.2493 5.54593C2.26046 7.33031 3.77843 8.82004 5.58382 8.82004ZM35.7312 5.55144C35.7423 3.76155 34.2495 2.25254 32.4469 2.23051C30.5885 2.20848 29.0566 3.67894 29.0398 5.49912C29.0231 7.28625 30.5131 8.79526 32.3213 8.8228C34.1658 8.85034 35.72 7.3606 35.7312 5.55144ZM56.9381 12.1382C56.9465 10.3511 55.448 8.84483 53.6427 8.82555C51.787 8.80628 50.2579 10.2822 50.2467 12.1024C50.2356 13.8868 51.7312 15.3931 53.5394 15.4151C55.3839 15.4399 56.9297 13.9474 56.9381 12.1382ZM61.3804 35.2085C59.575 35.2195 58.0598 36.7175 58.057 38.4964C58.0542 40.311 59.5918 41.82 61.4278 41.8035C63.2723 41.787 64.7763 40.2697 64.7512 38.4468C64.7289 36.6707 63.1941 35.2002 61.3804 35.2085ZM8.94344 48.3848C8.93507 46.5977 7.42547 45.1107 5.61451 45.1052C3.76169 45.1024 2.2493 46.5894 2.25209 48.4151C2.25488 50.1967 3.76448 51.6865 5.57823 51.6975C7.41989 51.7085 8.95181 50.1995 8.94344 48.3848ZM18.9888 58.2815C18.9805 56.4971 17.4681 55.0046 15.6627 54.9991C13.8155 54.9936 12.2919 56.4916 12.2947 58.3118C12.2975 60.1182 13.8462 61.6162 15.6906 61.5942C17.4932 61.5721 18.9972 60.0631 18.9888 58.2815Z"/>
</mask>
<path d="M44.6716 40.8094C46.6527 41.7512 48.2823 43.0179 49.6496 44.7142C51.8317 43.318 53.9998 41.9302 56.154 40.5506C55.4397 36.9075 56.6033 34.3989 59.455 33.347C61.9831 32.4135 64.8461 33.4213 66.2189 35.7234C67.5918 38.0255 67.0951 40.9609 65.0219 42.6957C63.0574 44.3397 59.9573 44.6591 57.4097 42.3873C55.275 43.7531 53.1236 45.13 50.9164 46.5426C53.0037 50.7419 53.0957 54.9523 50.8299 59.0966C49.1362 62.1945 46.5244 64.2762 43.1341 65.3722C36.719 67.4457 29.0007 64.3286 26.3331 56.9349C24.7259 57.3039 23.1074 57.6674 21.5002 58.0695C21.369 58.1025 21.2463 58.4082 21.2323 58.5954C21.0342 61.2885 19.0251 63.4143 16.3156 63.7696C13.7959 64.1028 11.279 62.569 10.3805 60.154C9.41223 57.5463 10.6288 54.5943 13.182 53.3579C15.7352 52.1215 18.8047 52.9724 20.3422 55.3488C20.465 55.5388 20.5794 55.7371 20.7189 55.9684C22.4098 55.5719 24.0952 55.1781 25.8197 54.7761C25.2644 50.5932 26.4727 46.9722 29.2714 43.8165C27.8092 42.2331 26.375 40.6773 24.9156 39.0967C20.6686 42.0514 16.1426 42.6269 11.2567 40.669C10.587 41.8503 9.92287 43.0179 9.26155 44.1827C11.6222 47.2227 11.7924 49.825 9.78893 52.0417C7.9696 54.0546 4.98946 54.5007 2.69297 53.1046C0.382534 51.7002 -0.58294 48.9438 0.368582 46.471C1.40661 43.7724 3.92912 42.5415 7.28595 43.1335C7.9389 41.977 8.60022 40.8039 9.25596 39.6474C8.51093 38.9893 7.76311 38.4055 7.10737 37.7391C1.2922 31.816 2.39719 22.112 9.40386 17.6263C9.90333 17.3069 9.97588 17.0866 9.70522 16.5579C8.82624 14.8451 8.00866 13.102 7.18829 11.3617C7.01807 10.9982 6.85623 10.866 6.40977 10.9459C3.49102 11.4663 0.692267 9.4589 0.0951243 6.46015C-0.457372 3.68995 1.49032 0.773816 4.30303 0.168008C6.85344 -0.382726 9.34805 0.738018 10.5423 2.974C11.7394 5.21273 11.2511 7.84249 9.31177 9.61035C9.21132 9.70122 9.10807 9.79209 8.96855 9.91325C9.98426 12.0198 10.9972 14.1181 12.0045 16.2026C19.1479 14.1594 24.6422 16.2908 28.6826 22.4232C32.6896 20.7517 36.7385 19.0609 40.8571 17.3427C40.073 14.8286 39.953 12.3062 40.6813 9.72049C39.4731 9.27991 38.3095 8.85584 37.1375 8.43178C36.2055 9.74252 35.0308 10.6044 33.4626 10.9128C30.5048 11.4966 27.5553 9.61035 26.9386 6.71899C26.2941 3.70648 28.1776 0.790338 31.1717 0.156993C34.7601 -0.60302 38.0611 2.07355 37.9495 5.68912C37.9328 6.22333 38.0862 6.45464 38.5829 6.61435C39.5289 6.9145 40.4553 7.27248 41.4431 7.62495C43.4549 3.76981 46.5327 1.24469 50.8411 0.311199C54.0528 -0.382726 57.1278 0.0936588 60.0075 1.64673C65.6804 4.70881 68.3257 11.4443 66.3584 17.2738C64.3521 23.2245 57.7836 27.8507 50.1072 25.9809C48.3046 30.899 46.4965 35.8253 44.6716 40.8094ZM26.5731 37.6042C28.0353 39.1875 29.4779 40.7489 30.9345 42.324C34.4894 39.8071 38.3346 39.0168 42.5648 40.0467C44.3869 35.0708 46.1923 30.1472 48.0033 25.1989C45.238 23.9019 43.1843 21.9496 41.7333 19.3776C37.6147 21.0987 33.5686 22.7894 29.4974 24.4884C30.9652 29.412 29.9272 33.749 26.5731 37.6042ZM62.0026 20.3166C65.5241 16.5744 65.9706 9.94905 61.4781 5.46332C57.1223 1.11527 49.8254 1.19788 45.5952 5.56796C41.0915 10.2217 41.8393 16.8718 45.171 20.2891C46.3179 18.0999 46.583 17.8328 49.4933 15.9218C47.3978 13.0029 47.5261 10.1308 49.8505 8.03525C51.9042 6.18203 55.1299 6.14623 57.2395 7.95264C59.6197 9.99035 59.7843 12.8459 57.6692 15.9741C59.6755 16.8718 61.132 18.312 62.0026 20.3166ZM30.5522 59.7767C31.1633 58.9506 31.6963 58.0254 32.4301 57.2957C33.1612 56.5687 34.0932 56.04 34.9359 55.4259C32.8068 53.0495 33.1556 49.8663 34.9554 47.9745C36.9171 45.9148 39.9865 45.6008 42.2997 47.22C43.4243 48.0075 44.1553 49.076 44.4846 50.384C44.9729 52.3198 44.3981 54.0161 43.0978 55.5443C45.1822 56.4613 46.6109 57.9263 47.4898 59.9282C51.1732 55.883 51.3266 49.2963 46.9039 44.9868C42.4951 40.6883 35.3656 40.7737 31.1242 45.1052C26.7322 49.5937 27.1647 56.1474 30.5522 59.7767ZM20.7775 31.3533C22.8396 32.2703 24.285 33.7215 25.1556 35.7289C28.7887 31.849 29.0789 25.1218 24.5445 20.7737C19.8427 16.266 12.6044 16.5909 8.27096 21.52C4.26675 26.0718 5.14572 32.441 8.3463 35.6656C9.21132 33.6582 10.6874 32.24 12.6993 31.3396C10.3442 28.6988 10.9079 25.3145 12.9588 23.4586C15.0516 21.5613 18.294 21.5172 20.451 23.398C22.3345 25.0447 23.3474 28.3298 20.7775 31.3533ZM60.1275 22.0817C59.7034 19.8678 58.004 18.1109 55.7968 17.7667C54.6835 17.5932 53.5338 17.6235 52.4009 17.6263C50.0179 17.6318 47.861 19.2757 47.1578 21.5282C47.0211 21.9633 47.1271 22.1671 47.4926 22.4067C51.335 24.9153 56.2656 24.8079 60.1275 22.0817ZM23.3195 37.4417C22.6721 35.1066 21.2518 33.537 18.7991 33.1377C17.5992 32.9422 16.3435 32.9642 15.1241 33.0496C12.8528 33.2066 10.9748 34.7927 10.3024 36.9213C10.174 37.3233 10.2521 37.5216 10.5981 37.7584C14.3205 40.3 19.6167 40.2009 23.3195 37.4417ZM39.2917 57.2021C38.6778 57.2021 38.2592 57.1965 37.8435 57.2021C35.4242 57.2406 33.2366 58.9066 32.6282 61.2031C32.578 61.3959 32.6868 61.7429 32.8431 61.8585C36.2948 64.3974 41.7249 64.4084 45.2631 61.9301C45.5673 61.7181 45.6175 61.5391 45.5143 61.2059C45.1906 60.1485 44.6185 59.2563 43.773 58.5348C42.4253 57.3783 40.8236 57.0726 39.2917 57.2021ZM35.7284 51.7388C35.7367 53.5314 37.238 54.9964 39.0657 54.9964C40.8934 54.9964 42.4448 53.4516 42.4169 51.6589C42.389 49.8773 40.8571 48.3931 39.0573 48.4013C37.1933 48.4123 35.72 49.8911 35.7284 51.7388ZM13.4053 27.501C13.4025 29.3129 14.8702 30.7916 16.6923 30.8081C18.534 30.8274 20.0799 29.3349 20.0938 27.523C20.1078 25.7276 18.5507 24.2048 16.7175 24.2158C14.8953 24.2268 13.4081 25.7028 13.4053 27.501ZM5.58382 8.82004C7.43105 8.82004 8.94902 7.31929 8.94344 5.49912C8.93786 3.72024 7.42268 2.23326 5.60893 2.225C3.77285 2.21949 2.23814 3.73677 2.2493 5.54593C2.26046 7.33031 3.77843 8.82004 5.58382 8.82004ZM35.7312 5.55144C35.7423 3.76155 34.2495 2.25254 32.4469 2.23051C30.5885 2.20848 29.0566 3.67894 29.0398 5.49912C29.0231 7.28625 30.5131 8.79526 32.3213 8.8228C34.1658 8.85034 35.72 7.3606 35.7312 5.55144ZM56.9381 12.1382C56.9465 10.3511 55.448 8.84483 53.6427 8.82555C51.787 8.80628 50.2579 10.2822 50.2467 12.1024C50.2356 13.8868 51.7312 15.3931 53.5394 15.4151C55.3839 15.4399 56.9297 13.9474 56.9381 12.1382ZM61.3804 35.2085C59.575 35.2195 58.0598 36.7175 58.057 38.4964C58.0542 40.311 59.5918 41.82 61.4278 41.8035C63.2723 41.787 64.7763 40.2697 64.7512 38.4468C64.7289 36.6707 63.1941 35.2002 61.3804 35.2085ZM8.94344 48.3848C8.93507 46.5977 7.42547 45.1107 5.61451 45.1052C3.76169 45.1024 2.2493 46.5894 2.25209 48.4151C2.25488 50.1967 3.76448 51.6865 5.57823 51.6975C7.41989 51.7085 8.95181 50.1995 8.94344 48.3848ZM18.9888 58.2815C18.9805 56.4971 17.4681 55.0046 15.6627 54.9991C13.8155 54.9936 12.2919 56.4916 12.2947 58.3118C12.2975 60.1182 13.8462 61.6162 15.6906 61.5942C17.4932 61.5721 18.9972 60.0631 18.9888 58.2815Z" fill="#3AAB87"/>
<path d="M44.6716 40.8094C46.6527 41.7512 48.2823 43.0179 49.6496 44.7142C51.8317 43.318 53.9998 41.9302 56.154 40.5506C55.4397 36.9075 56.6033 34.3989 59.455 33.347C61.9831 32.4135 64.8461 33.4213 66.2189 35.7234C67.5918 38.0255 67.0951 40.9609 65.0219 42.6957C63.0574 44.3397 59.9573 44.6591 57.4097 42.3873C55.275 43.7531 53.1236 45.13 50.9164 46.5426C53.0037 50.7419 53.0957 54.9523 50.8299 59.0966C49.1362 62.1945 46.5244 64.2762 43.1341 65.3722C36.719 67.4457 29.0007 64.3286 26.3331 56.9349C24.7259 57.3039 23.1074 57.6674 21.5002 58.0695C21.369 58.1025 21.2463 58.4082 21.2323 58.5954C21.0342 61.2885 19.0251 63.4143 16.3156 63.7696C13.7959 64.1028 11.279 62.569 10.3805 60.154C9.41223 57.5463 10.6288 54.5943 13.182 53.3579C15.7352 52.1215 18.8047 52.9724 20.3422 55.3488C20.465 55.5388 20.5794 55.7371 20.7189 55.9684C22.4098 55.5719 24.0952 55.1781 25.8197 54.7761C25.2644 50.5932 26.4727 46.9722 29.2714 43.8165C27.8092 42.2331 26.375 40.6773 24.9156 39.0967C20.6686 42.0514 16.1426 42.6269 11.2567 40.669C10.587 41.8503 9.92287 43.0179 9.26155 44.1827C11.6222 47.2227 11.7924 49.825 9.78893 52.0417C7.9696 54.0546 4.98946 54.5007 2.69297 53.1046C0.382534 51.7002 -0.58294 48.9438 0.368582 46.471C1.40661 43.7724 3.92912 42.5415 7.28595 43.1335C7.9389 41.977 8.60022 40.8039 9.25596 39.6474C8.51093 38.9893 7.76311 38.4055 7.10737 37.7391C1.2922 31.816 2.39719 22.112 9.40386 17.6263C9.90333 17.3069 9.97588 17.0866 9.70522 16.5579C8.82624 14.8451 8.00866 13.102 7.18829 11.3617C7.01807 10.9982 6.85623 10.866 6.40977 10.9459C3.49102 11.4663 0.692267 9.4589 0.0951243 6.46015C-0.457372 3.68995 1.49032 0.773816 4.30303 0.168008C6.85344 -0.382726 9.34805 0.738018 10.5423 2.974C11.7394 5.21273 11.2511 7.84249 9.31177 9.61035C9.21132 9.70122 9.10807 9.79209 8.96855 9.91325C9.98426 12.0198 10.9972 14.1181 12.0045 16.2026C19.1479 14.1594 24.6422 16.2908 28.6826 22.4232C32.6896 20.7517 36.7385 19.0609 40.8571 17.3427C40.073 14.8286 39.953 12.3062 40.6813 9.72049C39.4731 9.27991 38.3095 8.85584 37.1375 8.43178C36.2055 9.74252 35.0308 10.6044 33.4626 10.9128C30.5048 11.4966 27.5553 9.61035 26.9386 6.71899C26.2941 3.70648 28.1776 0.790338 31.1717 0.156993C34.7601 -0.60302 38.0611 2.07355 37.9495 5.68912C37.9328 6.22333 38.0862 6.45464 38.5829 6.61435C39.5289 6.9145 40.4553 7.27248 41.4431 7.62495C43.4549 3.76981 46.5327 1.24469 50.8411 0.311199C54.0528 -0.382726 57.1278 0.0936588 60.0075 1.64673C65.6804 4.70881 68.3257 11.4443 66.3584 17.2738C64.3521 23.2245 57.7836 27.8507 50.1072 25.9809C48.3046 30.899 46.4965 35.8253 44.6716 40.8094ZM26.5731 37.6042C28.0353 39.1875 29.4779 40.7489 30.9345 42.324C34.4894 39.8071 38.3346 39.0168 42.5648 40.0467C44.3869 35.0708 46.1923 30.1472 48.0033 25.1989C45.238 23.9019 43.1843 21.9496 41.7333 19.3776C37.6147 21.0987 33.5686 22.7894 29.4974 24.4884C30.9652 29.412 29.9272 33.749 26.5731 37.6042ZM62.0026 20.3166C65.5241 16.5744 65.9706 9.94905 61.4781 5.46332C57.1223 1.11527 49.8254 1.19788 45.5952 5.56796C41.0915 10.2217 41.8393 16.8718 45.171 20.2891C46.3179 18.0999 46.583 17.8328 49.4933 15.9218C47.3978 13.0029 47.5261 10.1308 49.8505 8.03525C51.9042 6.18203 55.1299 6.14623 57.2395 7.95264C59.6197 9.99035 59.7843 12.8459 57.6692 15.9741C59.6755 16.8718 61.132 18.312 62.0026 20.3166ZM30.5522 59.7767C31.1633 58.9506 31.6963 58.0254 32.4301 57.2957C33.1612 56.5687 34.0932 56.04 34.9359 55.4259C32.8068 53.0495 33.1556 49.8663 34.9554 47.9745C36.9171 45.9148 39.9865 45.6008 42.2997 47.22C43.4243 48.0075 44.1553 49.076 44.4846 50.384C44.9729 52.3198 44.3981 54.0161 43.0978 55.5443C45.1822 56.4613 46.6109 57.9263 47.4898 59.9282C51.1732 55.883 51.3266 49.2963 46.9039 44.9868C42.4951 40.6883 35.3656 40.7737 31.1242 45.1052C26.7322 49.5937 27.1647 56.1474 30.5522 59.7767ZM20.7775 31.3533C22.8396 32.2703 24.285 33.7215 25.1556 35.7289C28.7887 31.849 29.0789 25.1218 24.5445 20.7737C19.8427 16.266 12.6044 16.5909 8.27096 21.52C4.26675 26.0718 5.14572 32.441 8.3463 35.6656C9.21132 33.6582 10.6874 32.24 12.6993 31.3396C10.3442 28.6988 10.9079 25.3145 12.9588 23.4586C15.0516 21.5613 18.294 21.5172 20.451 23.398C22.3345 25.0447 23.3474 28.3298 20.7775 31.3533ZM60.1275 22.0817C59.7034 19.8678 58.004 18.1109 55.7968 17.7667C54.6835 17.5932 53.5338 17.6235 52.4009 17.6263C50.0179 17.6318 47.861 19.2757 47.1578 21.5282C47.0211 21.9633 47.1271 22.1671 47.4926 22.4067C51.335 24.9153 56.2656 24.8079 60.1275 22.0817ZM23.3195 37.4417C22.6721 35.1066 21.2518 33.537 18.7991 33.1377C17.5992 32.9422 16.3435 32.9642 15.1241 33.0496C12.8528 33.2066 10.9748 34.7927 10.3024 36.9213C10.174 37.3233 10.2521 37.5216 10.5981 37.7584C14.3205 40.3 19.6167 40.2009 23.3195 37.4417ZM39.2917 57.2021C38.6778 57.2021 38.2592 57.1965 37.8435 57.2021C35.4242 57.2406 33.2366 58.9066 32.6282 61.2031C32.578 61.3959 32.6868 61.7429 32.8431 61.8585C36.2948 64.3974 41.7249 64.4084 45.2631 61.9301C45.5673 61.7181 45.6175 61.5391 45.5143 61.2059C45.1906 60.1485 44.6185 59.2563 43.773 58.5348C42.4253 57.3783 40.8236 57.0726 39.2917 57.2021ZM35.7284 51.7388C35.7367 53.5314 37.238 54.9964 39.0657 54.9964C40.8934 54.9964 42.4448 53.4516 42.4169 51.6589C42.389 49.8773 40.8571 48.3931 39.0573 48.4013C37.1933 48.4123 35.72 49.8911 35.7284 51.7388ZM13.4053 27.501C13.4025 29.3129 14.8702 30.7916 16.6923 30.8081C18.534 30.8274 20.0799 29.3349 20.0938 27.523C20.1078 25.7276 18.5507 24.2048 16.7175 24.2158C14.8953 24.2268 13.4081 25.7028 13.4053 27.501ZM5.58382 8.82004C7.43105 8.82004 8.94902 7.31929 8.94344 5.49912C8.93786 3.72024 7.42268 2.23326 5.60893 2.225C3.77285 2.21949 2.23814 3.73677 2.2493 5.54593C2.26046 7.33031 3.77843 8.82004 5.58382 8.82004ZM35.7312 5.55144C35.7423 3.76155 34.2495 2.25254 32.4469 2.23051C30.5885 2.20848 29.0566 3.67894 29.0398 5.49912C29.0231 7.28625 30.5131 8.79526 32.3213 8.8228C34.1658 8.85034 35.72 7.3606 35.7312 5.55144ZM56.9381 12.1382C56.9465 10.3511 55.448 8.84483 53.6427 8.82555C51.787 8.80628 50.2579 10.2822 50.2467 12.1024C50.2356 13.8868 51.7312 15.3931 53.5394 15.4151C55.3839 15.4399 56.9297 13.9474 56.9381 12.1382ZM61.3804 35.2085C59.575 35.2195 58.0598 36.7175 58.057 38.4964C58.0542 40.311 59.5918 41.82 61.4278 41.8035C63.2723 41.787 64.7763 40.2697 64.7512 38.4468C64.7289 36.6707 63.1941 35.2002 61.3804 35.2085ZM8.94344 48.3848C8.93507 46.5977 7.42547 45.1107 5.61451 45.1052C3.76169 45.1024 2.2493 46.5894 2.25209 48.4151C2.25488 50.1967 3.76448 51.6865 5.57823 51.6975C7.41989 51.7085 8.95181 50.1995 8.94344 48.3848ZM18.9888 58.2815C18.9805 56.4971 17.4681 55.0046 15.6627 54.9991C13.8155 54.9936 12.2919 56.4916 12.2947 58.3118C12.2975 60.1182 13.8462 61.6162 15.6906 61.5942C17.4932 61.5721 18.9972 60.0631 18.9888 58.2815Z" stroke="#3AAB87" mask="url(#path-1-outside-1)"/>
</svg>
