<svg width="57" height="78" viewBox="0 0 57 78" fill="none" xmlns="http://www.w3.org/2000/svg">
<path d="M2.33545 0.442627C1.39854 0.442627 0.621582 1.22622 0.621582 2.17114V71.2196C0.621582 71.5653 0.712989 71.8879 0.918653 72.1875C1.03291 72.3719 1.19287 72.5102 1.35283 72.6485L7.86553 77.2578C8.45967 77.6727 9.23662 77.6727 9.83076 77.2578L15.3608 73.3399L20.8909 77.2578C21.4851 77.6727 22.262 77.6727 22.8562 77.2578L28.3862 73.3399L33.9163 77.2578C34.2134 77.4653 34.5562 77.5805 34.8989 77.5805C35.2417 77.5805 35.5845 77.4653 35.8815 77.2578L41.4116 73.3399L46.9417 77.2578C47.5358 77.6727 48.3128 77.6727 48.9069 77.2578L55.4196 72.6485C55.6481 72.4871 55.8081 72.3028 55.9452 72.0723C56.0823 71.8188 56.1509 71.5422 56.1509 71.2426V2.17114C56.1509 1.22622 55.3739 0.442627 54.437 0.442627H2.33545ZM52.7231 70.3207L47.9243 73.7086L42.3942 69.7907C42.0972 69.5832 41.7544 69.468 41.4116 69.468C41.0688 69.468 40.7261 69.5832 40.429 69.7907L34.8989 73.7086L29.3688 69.7907C28.7747 69.3758 27.9978 69.3758 27.4036 69.7907L21.8735 73.7086L16.3435 69.7907C15.7493 69.3758 14.9724 69.3758 14.3782 69.7907L8.84814 73.7086L4.04932 70.3207V3.89966H52.7231V70.3207Z" fill="#3AAB87"/>
<path d="M35.493 45.1766H13.6926C12.7557 45.1766 11.9788 45.9602 11.9788 46.9052C11.9788 47.8501 12.7557 48.6337 13.6926 48.6337H35.493C36.4299 48.6337 37.2069 47.8501 37.2069 46.9052C37.2069 45.9602 36.4299 45.1766 35.493 45.1766Z" fill="#3AAB87"/>
<path d="M46.3932 45.1766H42.0742C41.1373 45.1766 40.3604 45.9602 40.3604 46.9052C40.3604 47.8501 41.1373 48.6337 42.0742 48.6337H46.3932C47.3301 48.6337 48.107 47.8501 48.107 46.9052C48.107 45.9602 47.3301 45.1766 46.3932 45.1766Z" fill="#3AAB87"/>
<path d="M35.493 54.6028H13.6926C12.7557 54.6028 11.9788 55.3864 11.9788 56.3313C11.9788 57.2762 12.7557 58.0598 13.6926 58.0598H35.493C36.4299 58.0598 37.2069 57.2762 37.2069 56.3313C37.2069 55.3864 36.4299 54.6028 35.493 54.6028Z" fill="#3AAB87"/>
<path d="M46.3932 54.6028H42.0742C41.1373 54.6028 40.3604 55.3864 40.3604 56.3313C40.3604 57.2762 41.1373 58.0598 42.0742 58.0598H46.3932C47.3301 58.0598 48.107 57.2762 48.107 56.3313C48.107 55.3864 47.3301 54.6028 46.3932 54.6028Z" fill="#3AAB87"/>
<g clip-path="url(#clip0)">
<path d="M37.777 14.0845V21.7585L20.4148 24.856L17.0253 11.2939H11.8374C11.4705 11.2939 11.1186 11.4409 10.8592 11.7026C10.5997 11.9643 10.454 12.3192 10.454 12.6892C10.454 13.0593 10.5997 13.4142 10.8592 13.6758C11.1186 13.9375 11.4705 14.0845 11.8374 14.0845H14.9087L19.3772 32.223H37.777V29.4325H21.5354L21.0788 27.5768L40.5439 24.1025V14.0845H37.777ZM19.7922 33.6183C19.3818 33.6183 18.9806 33.741 18.6393 33.971C18.2981 34.201 18.0321 34.5278 17.875 34.9103C17.718 35.2927 17.6769 35.7135 17.7569 36.1195C17.837 36.5255 18.0347 36.8984 18.3249 37.1911C18.6151 37.4838 18.9849 37.6831 19.3874 37.7639C19.7899 37.8446 20.2072 37.8032 20.5864 37.6448C20.9656 37.4864 21.2897 37.2181 21.5177 36.8739C21.7457 36.5298 21.8674 36.1251 21.8674 35.7112C21.8674 35.1561 21.6488 34.6238 21.2596 34.2313C20.8704 33.8388 20.3426 33.6183 19.7922 33.6183ZM36.3936 33.6183C35.9832 33.6183 35.5819 33.741 35.2407 33.971C34.8994 34.201 34.6335 34.5278 34.4764 34.9103C34.3193 35.2927 34.2782 35.7135 34.3583 36.1195C34.4384 36.5255 34.636 36.8984 34.9262 37.1911C35.2164 37.4838 35.5862 37.6831 35.9887 37.7639C36.3913 37.8446 36.8085 37.8032 37.1877 37.6448C37.5669 37.4864 37.891 37.2181 38.119 36.8739C38.3471 36.5298 38.4688 36.1251 38.4688 35.7112C38.4688 35.1561 38.2501 34.6238 37.861 34.2313C37.4718 33.8388 36.944 33.6183 36.3936 33.6183Z" fill="#3AAB87"/>
</g>
<defs>
<clipPath id="clip0">
<rect width="33.2027" height="33.4865" fill="white" transform="translate(10.1082 7.10815)"/>
</clipPath>
</defs>
</svg>
