<svg width="87" height="88" viewBox="0 0 87 88" fill="none" xmlns="http://www.w3.org/2000/svg">
<path d="M67.9688 24.75H8.15625V38.5H67.9688V24.75Z" stroke="#3AAB87" stroke-width="3.5" stroke-miterlimit="10"/>
<path d="M48.9375 24.75H27.1875V38.5H48.9375V24.75Z" stroke="#3AAB87" stroke-width="3.5" stroke-miterlimit="10"/>
<path d="M29.9062 74.25V38.5" stroke="#3AAB87" stroke-width="3.5" stroke-miterlimit="10"/>
<path d="M58.9969 12.0999C56.2781 6.5999 48.6656 6.8749 45.4031 12.6499L38.0625 24.7499H51.1125C57.3656 24.4749 61.7156 17.5999 58.9969 12.0999Z" stroke="#3AAB87" stroke-width="3.5" stroke-miterlimit="10"/>
<path d="M17.1281 12.0999C19.8469 6.5999 27.4594 6.8749 30.7219 12.6499L38.0625 24.7499H25.0125C18.7594 24.4749 14.4094 17.5999 17.1281 12.0999Z" stroke="#3AAB87" stroke-width="3.5" stroke-miterlimit="10"/>
<path d="M46.4906 74.25H10.875V38.5H65.25V42.075" stroke="#3AAB87" stroke-width="3.5" stroke-miterlimit="10"/>
<path d="M66.1226 48.5113V51.3652C68.4246 52.2058 70.3743 53.8154 71.6499 55.9281C72.9254 58.0409 73.4506 60.5306 73.1387 62.986C72.8268 65.4415 71.6964 67.7159 69.9342 69.4338C68.172 71.1517 65.8833 72.2103 63.4461 72.4349V69.7081C66.3789 69.4249 68.7754 67.9223 68.7754 64.8548C68.7754 61.1823 65.8189 60.3471 62.6465 59.951C60.8194 59.7302 59.2533 59.3557 59.2533 58.0164C59.2533 56.8714 60.276 55.9689 62.4068 55.9689C64.0678 55.9689 65.4915 56.8066 66.0159 57.6851L68.2985 56.497C67.328 54.4976 65.4345 53.6983 63.4461 53.4966V48.036C63.1258 48.0144 62.8031 48 62.4756 48C59.298 48.0018 56.2237 49.1419 53.7978 51.2181C51.372 53.2943 49.7514 56.1724 49.2234 59.3421C48.6953 62.5118 49.294 65.7682 50.9133 68.534C52.5326 71.2997 55.0677 73.396 58.0693 74.4511V71.53C55.9582 70.5711 54.209 68.9492 53.0813 66.905C51.9537 64.8608 51.5077 62.5033 51.8095 60.1824C52.1114 57.8615 53.145 55.7008 54.7569 54.0213C56.3689 52.3417 58.4733 51.2326 60.7577 50.8587V53.5879C58.4798 54.0055 56.4273 55.3449 56.4273 57.9276C56.4273 61.3792 59.2984 62.2169 62.4068 62.5889C64.4284 62.8097 65.9281 63.4026 65.9281 64.8548C65.9281 66.535 64.2315 67.1638 62.4282 67.1638C60.5797 67.1638 58.8191 66.4174 58.1452 64.7228L55.7534 65.9757C56.6788 68.2776 58.4442 69.3361 60.7577 69.6577V75.0896C61.3275 75.1628 61.9013 75.1997 62.4756 75.2C65.7226 75.2018 68.8605 74.0148 71.3097 71.8583C73.7589 69.7019 75.3538 66.7216 75.7998 63.4682C76.2458 60.2148 75.5128 56.9079 73.7362 54.1587C71.9596 51.4094 69.2594 49.4034 66.1345 48.5113H66.1226Z" fill="#3AAB87"/>
</svg>
