<svg width="83" height="84" viewBox="0 0 83 84" fill="none" xmlns="http://www.w3.org/2000/svg">
<path d="M71.9325 33.7533L71.9328 33.7537C72.243 34.141 72.2963 34.673 72.0971 35.1124C71.8957 35.5564 71.4401 35.8508 70.9471 35.8508H65.4556C65.34 37.1935 65.1337 38.5354 64.8367 39.847L64.8366 39.8471C63.4787 45.8113 60.3421 51.0899 55.7831 55.11M71.9325 33.7533L55.6832 54.998M71.9325 33.7533L63.8582 23.7389L63.8582 23.7389L56.9582 15.1878L71.9325 33.7533ZM55.7831 55.11C55.7829 55.1102 55.7826 55.1103 55.7824 55.1105L55.6832 54.998M55.7831 55.11C55.7833 55.1097 55.7836 55.1095 55.7838 55.1093L55.6832 54.998M55.7831 55.11C55.4755 55.3881 55.1839 55.6338 54.892 55.8632M55.6832 54.998C55.3776 55.2744 55.0881 55.5182 54.7986 55.7458M54.892 55.8632C54.8923 55.863 54.8926 55.8627 54.8929 55.8625L54.7986 55.7458M54.892 55.8632C52.8712 57.4971 50.6565 58.8369 48.3126 59.8662L48.3124 59.8663C45.4343 61.1247 42.3941 61.893 39.2569 62.1381L39.255 62.1383C38.5132 62.1872 37.7859 62.2199 37.0416 62.2199C35.2792 62.2199 33.5167 62.0564 31.7864 61.7296C28.5847 61.1248 25.5448 59.9807 22.7318 58.3466L22.7316 58.3465C19.6753 56.5649 16.9912 54.2278 14.7603 51.4174M54.892 55.8632C54.8918 55.8634 54.8915 55.8636 54.8913 55.8638L54.7986 55.7458M54.7986 55.7458L14.7603 51.4174M14.7603 51.4174L14.8776 51.3239M14.7603 51.4174L48.2523 59.7288C45.3893 60.9806 42.3655 61.7447 39.2452 61.9886C38.5053 62.0374 37.7815 62.0699 37.0416 62.0699C35.2885 62.0699 33.5353 61.9073 31.8143 61.5822C28.6296 60.9806 25.6058 59.8427 22.8071 58.2169C19.7672 56.4449 17.0972 54.1201 14.8776 51.3239M14.7603 51.4174C14.7602 51.4173 14.7602 51.4172 14.7601 51.4172L14.8776 51.3239M14.7603 51.4174C12.8203 48.9826 11.3005 46.27 10.2335 43.3616M14.8776 51.3239C12.9475 48.9016 11.4356 46.2029 10.374 43.3091M10.374 43.3091L10.2337 43.3622C10.2336 43.362 10.2336 43.3618 10.2335 43.3616M10.374 43.3091C10.1649 42.7564 10.4062 42.1549 10.9209 41.8947M10.374 43.3091L10.2332 43.3608C10.2333 43.361 10.2334 43.3613 10.2335 43.3616M10.2335 43.3616C9.99748 42.7367 10.2708 42.0552 10.8532 41.7609L10.9209 41.8947M10.9209 41.8947L10.8532 41.7609C11.4379 41.4654 12.1493 41.6689 12.4956 42.2215L12.4965 42.223C12.8303 42.7693 13.2124 43.3005 13.6273 43.8167L13.6278 43.8172C16.7234 47.7041 21.1265 50.1388 26.0246 50.6871C30.9222 51.2354 35.7395 49.8167 39.5848 46.6881L39.585 46.6878C42.215 44.5582 44.1733 41.792 45.3289 38.6803M10.9209 41.8947C11.4356 41.6346 12.0629 41.8135 12.3685 42.3012C12.7062 42.8539 13.0922 43.3904 13.5104 43.9106C16.6308 47.8286 21.07 50.2834 26.0079 50.8362L45.3289 38.6803M45.3289 38.6803C41.806 42.1636 37.0775 44.1419 32.0234 44.1419C21.5004 44.1419 12.9262 35.4896 12.9262 24.841C12.9262 14.1925 21.4843 5.54006 32.0234 5.54006C41.0448 5.54006 48.718 11.9261 50.649 20.5679L54.986 15.1894C55.2256 14.874 55.5923 14.7091 55.9727 14.7091C56.3581 14.7091 56.7219 14.894 56.958 15.1876L45.3289 38.6803ZM46.1092 26.1771L46.109 26.1774L44.8366 27.7547C45.0479 26.8162 45.1533 25.8336 45.1533 24.841C45.1533 17.5089 39.249 11.5552 32.0073 11.5552C24.7655 11.5552 18.8612 17.5252 18.8612 24.841C18.8612 32.1568 24.7655 38.1268 32.0073 38.1268C35.0103 38.1268 37.7778 37.0965 40.0015 35.3795C40.2427 35.6805 40.5986 35.8508 40.9823 35.8508H44.455C41.3362 39.4702 36.8243 41.5659 32.0073 41.5659C22.8915 41.5659 15.4619 34.0588 15.4619 24.841C15.4619 15.6232 22.8915 8.11607 32.0073 8.11607C40.5451 8.11607 47.674 14.7219 48.4833 23.2496L46.1092 26.1771ZM64.4061 33.3073V33.2748H64.2561C63.5795 33.2748 63.0166 33.8104 62.9804 34.5062L62.9803 34.508C62.9164 36.1076 62.6926 37.708 62.3405 39.277C61.109 44.7084 58.2465 49.509 54.0881 53.1785L54.0871 53.1794C53.8002 53.4372 53.5288 53.6631 53.272 53.8741C51.4328 55.3611 49.4179 56.5894 47.2754 57.5268L47.3355 57.6642L47.2754 57.5268C44.6529 58.6743 41.8869 59.3692 39.0251 59.5792L39.0244 59.5793C36.7539 59.7571 34.4671 59.6278 32.228 59.2075C29.3015 58.6579 26.535 57.6235 23.9762 56.1364C21.3782 54.612 19.073 52.6651 17.1255 50.3347C19.7106 51.9176 22.6289 52.9354 25.7341 53.2775C31.3233 53.8997 36.7997 52.2783 41.1733 48.7254C45.466 45.238 48.2035 40.2768 48.8837 34.7436L48.8838 34.7437L48.8841 34.7401C48.9201 34.3765 48.8125 34.0102 48.5753 33.7336C48.3389 33.4579 47.9923 33.291 47.625 33.291H47.0138H43.6766L55.9727 18.0568L61.8875 25.3903L61.8876 25.3904L68.2692 33.3073H64.4061ZM32.0073 35.5508C26.1726 35.5508 21.413 30.7423 21.413 24.841C21.413 18.9397 26.1726 14.1312 32.0073 14.1312C37.8419 14.1312 42.6015 18.9397 42.6015 24.841C42.6015 30.7423 37.8419 35.5508 32.0073 35.5508Z" fill="#3AAB87" stroke="#3AAB87" stroke-width="0.3"/>
<path d="M31.474 63.3535L31.474 63.3535L31.4722 63.3532C28.8312 62.8516 26.2863 62.0104 23.9015 60.8618L23.9015 60.8618L23.899 60.8606C23.5013 60.6779 23.0456 60.6955 22.6631 60.9348L22.6631 60.9348L22.6603 60.9366C22.2997 61.1735 22.0619 61.5766 22.0619 62.0211V76.425C22.0619 77.1403 22.6262 77.713 23.3378 77.713H32.0072C32.7188 77.713 33.2831 77.1403 33.2831 76.425V64.7523C33.2831 64.1298 32.8315 63.5767 32.2092 63.4827C32.0912 63.4604 31.9766 63.4414 31.8656 63.423C31.8546 63.4212 31.8436 63.4194 31.8327 63.4176C31.71 63.3973 31.5917 63.3773 31.474 63.3535ZM30.7313 75.137H24.6298V64.0015C26.5959 64.8087 28.6344 65.4246 30.7313 65.8352V75.137Z" fill="#3AAB87" stroke="#3AAB87" stroke-width="0.3"/>
<path d="M47.3481 62.0266L47.3478 62.0267C44.7732 62.9803 42.0866 63.5625 39.3518 63.7732C39.2993 63.7735 39.2479 63.7778 39.203 63.7816L39.2004 63.7818C39.1511 63.786 39.1092 63.7894 39.0683 63.7894V63.7892L39.0601 63.7896C38.3831 63.8266 37.8567 64.3986 37.8567 65.0774V76.4086C37.8567 77.124 38.421 77.6966 39.1326 77.6966H47.7859C48.4976 77.6966 49.0618 77.124 49.0618 76.4086V63.2403C49.0618 62.8195 48.8628 62.4329 48.5184 62.1929C48.1848 61.9328 47.745 61.8807 47.3481 62.0266ZM46.51 75.1369H40.4085V66.2699C42.4762 66.0596 44.5283 65.6438 46.51 65.0223V75.1369Z" fill="#3AAB87" stroke="#3AAB87" stroke-width="0.3"/>
<path d="M36.7224 28.5088C36.6323 28.5082 36.5428 28.5292 36.4613 28.5666C36.4122 28.5863 36.361 28.6086 36.3135 28.6292C36.2899 28.6395 36.2673 28.6493 36.2462 28.6583C36.246 28.6584 36.2458 28.6584 36.2456 28.6585L36.1447 28.7003L36.0117 28.753L35.917 28.7905V28.7927C34.5064 29.3533 33.0335 29.6798 31.6725 29.7091L31.6725 29.7091L31.6709 29.7091C31.622 29.7107 31.5724 29.7107 31.5209 29.7107H31.5208C29.3821 29.7118 27.6274 28.7377 25.8246 27.7369C25.7939 27.7198 25.7631 27.7027 25.7323 27.6856L25.7324 27.6856L25.729 27.6838C25.6474 27.6413 25.5594 27.6156 25.4667 27.6156C25.3488 27.6156 25.2272 27.6589 25.136 27.7445M36.7224 28.5088C37.0029 28.5091 37.28 28.7189 37.2847 29.0455L37.2847 29.0464C37.2864 29.2337 37.1819 29.3999 37.0442 29.5029C36.8659 29.6454 36.6774 29.7735 36.4894 29.886L36.4853 29.8889L36.48 29.8925L36.4799 29.8924C35.0453 30.794 33.1988 31.3452 31.563 31.3821L31.563 31.3821L31.5597 31.3822C31.5102 31.3833 31.4596 31.3844 31.4092 31.3844H31.4092C28.8223 31.3832 26.9056 29.9656 25.1876 28.4744C25.0776 28.3859 24.9909 28.2451 24.9911 28.0811M36.7224 28.5088C36.7222 28.5088 36.722 28.5088 36.7217 28.5088V28.6588L36.723 28.5088C36.7228 28.5088 36.7226 28.5088 36.7224 28.5088ZM24.9911 28.0811C24.9905 27.9541 25.0444 27.8304 25.136 27.7445M24.9911 28.0811C24.9911 28.0809 24.9911 28.0806 24.9911 28.0804L25.1411 28.0808L24.9911 28.0818C24.9911 28.0815 24.9911 28.0813 24.9911 28.0811ZM25.136 27.7445C25.136 27.7446 25.136 27.7446 25.1359 27.7446L25.2387 27.8539L25.1362 27.7444C25.1361 27.7444 25.1361 27.7445 25.136 27.7445Z" fill="#3AAB87" stroke="#3AAB87" stroke-width="0.3"/>
<path d="M37.0968 29.8033C37.0954 29.9085 37.1362 30.0349 37.2316 30.1236C37.3229 30.2101 37.4378 30.2421 37.533 30.2421H37.5358V30.2421L37.5376 30.2421C37.6753 30.2405 37.7874 30.1854 37.8758 30.1165L37.876 30.1168L37.8838 30.1098C38.5865 29.4778 38.8237 28.4829 38.8334 27.9234L38.8336 27.9234L38.8334 27.9169L38.8312 27.8357H38.8313L38.8311 27.8297C38.8247 27.6692 38.7898 27.5334 38.7121 27.4151L38.7122 27.415L38.7082 27.4095L38.7023 27.4013L38.7025 27.4012L38.6976 27.3951L38.6906 27.3864L38.6908 27.3862L38.6843 27.3791C38.6035 27.2911 38.5226 27.2556 38.4593 27.2279C38.4577 27.2271 38.4561 27.2264 38.4545 27.2257L38.4546 27.2256L38.4482 27.2231C38.2386 27.1422 37.948 27.1037 37.6151 27.1026V27.1026H37.6145C37.425 27.1026 37.2192 27.1165 37.0092 27.1508L37.0078 27.108L36.8171 27.1715L36.5561 27.2584L36.546 27.2618L36.542 27.2638L36.4056 27.3081L36.302 27.3418V27.3593C36.1542 27.4277 36.0172 27.5091 35.8887 27.6019L35.8887 27.6019L35.8861 27.6038C35.7776 27.6859 35.6627 27.8129 35.6566 28.0144L35.6566 28.0145C35.6529 28.1361 35.7114 28.2669 35.8117 28.3476C35.9075 28.4255 36.017 28.449 36.1065 28.449C36.1225 28.449 36.1441 28.4486 36.1672 28.4451L36.1746 28.4445L36.1746 28.445L36.1866 28.4429L36.1965 28.4412L36.1965 28.4413L36.2022 28.4401C36.2792 28.4238 36.376 28.4114 36.495 28.3962C36.5627 28.3876 36.6374 28.378 36.7198 28.3663C36.9028 28.3464 37.0934 28.3317 37.2564 28.3317L37.257 28.3317C37.3622 28.3313 37.4504 28.3378 37.5099 28.3486C37.5022 28.475 37.4507 28.6988 37.3752 28.9345L37.3752 28.9345L37.3749 28.9354C37.2953 29.1902 37.1979 29.4464 37.132 29.6196C37.1112 29.6737 37.097 29.7348 37.0968 29.8033ZM37.0968 29.8033C37.0968 29.8029 37.0968 29.8025 37.0968 29.8021L37.2468 29.8045H37.0968C37.0968 29.8041 37.0968 29.8037 37.0968 29.8033Z" fill="#3AAB87" stroke="#3AAB87" stroke-width="0.3"/>
<path d="M31.3963 27.5243C31.9524 27.3485 32.4214 27.038 32.9481 26.5079C32.9704 26.5394 32.9918 26.5699 33.0126 26.5996C33.2255 26.9035 33.3833 27.1288 33.8545 27.5256L33.8731 27.5412L33.8957 27.5502C34.0754 27.6216 34.2841 27.6316 34.4585 27.5016L34.4587 27.5017L34.4649 27.4965C34.8236 27.1977 35.4503 26.6603 35.7817 26.3597C35.8912 26.2703 35.939 26.1529 35.9389 26.0326C35.9388 25.9177 35.8956 25.8087 35.8418 25.7202L35.8372 25.7127L35.8317 25.7057C35.809 25.6766 35.7865 25.6482 35.7644 25.6202C35.6227 25.4407 35.4953 25.2794 35.3958 25.0834C35.2835 24.8624 35.2063 24.5943 35.2063 24.2134V21.5242C35.2063 21.4256 35.207 21.3269 35.2077 21.2282C35.2111 20.7685 35.2144 20.3113 35.1447 19.8863C35.0587 19.3619 34.8603 18.8727 34.4116 18.4566L34.4116 18.4566L34.4107 18.4558C33.6852 17.7935 32.5659 17.5501 31.7101 17.5501H31.3511V17.5498L31.3424 17.5503C30.5645 17.5954 29.7525 17.7862 29.0853 18.2155C28.4145 18.647 27.8966 19.3157 27.7087 20.2974C27.6692 20.4609 27.7093 20.5948 27.7984 20.6897C27.8793 20.776 27.9867 20.8151 28.059 20.8329L28.0675 20.835L28.0763 20.8361L29.7491 21.0452L29.7706 21.0479L29.7919 21.0444C30.0594 21.0006 30.177 20.7775 30.2134 20.6003C30.3444 20.0263 30.8093 19.7292 31.3587 19.6719H31.4714C31.7949 19.6719 32.1295 19.808 32.3035 20.0552C32.4035 20.206 32.4513 20.3877 32.4723 20.5912C32.4894 20.7561 32.4882 20.9243 32.4871 21.0954C32.4868 21.1387 32.4865 21.1822 32.4865 21.2259V21.3262C32.485 21.3263 32.4836 21.3264 32.4822 21.3265C32.1289 21.3526 31.7304 21.3821 31.3317 21.4348C30.6463 21.5252 29.9391 21.6455 29.3491 21.925C28.1919 22.3957 27.4068 23.4045 27.4068 24.8707C27.4068 25.7859 27.7023 26.4926 28.1999 26.9702C28.6962 27.4465 29.3785 27.6806 30.1267 27.6806C30.618 27.6806 31.0196 27.6183 31.3873 27.5269L31.3874 27.5271L31.3963 27.5243ZM32.1797 24.9435L32.1793 24.9433L32.1743 24.9533C31.9873 25.3264 31.6705 25.5647 31.3309 25.6488C31.295 25.6509 31.2571 25.6579 31.2292 25.6631C31.2248 25.6639 31.2207 25.6646 31.2169 25.6653C31.176 25.6726 31.1428 25.6777 31.1124 25.6777C30.8264 25.6777 30.6088 25.5688 30.4597 25.3854C30.3077 25.1985 30.2168 24.9213 30.2168 24.5724C30.2168 24.1264 30.3481 23.8123 30.5519 23.5855C30.7576 23.3566 31.0485 23.2038 31.389 23.1038C31.7189 23.0284 32.0973 22.9963 32.4865 22.99V23.1979V23.1979C32.4865 23.2449 32.4866 23.2909 32.4868 23.3361C32.4886 23.9619 32.4899 24.4251 32.1797 24.9435Z" fill="#3AAB87" stroke="#3AAB87" stroke-width="0.3"/>
<path d="M55.8964 57.1398L55.8964 57.1398L55.8948 57.1411C55.3347 57.5939 54.7746 58.0145 54.1984 58.4189C53.851 58.6594 53.6516 59.0639 53.6516 59.4687V76.3924C53.6516 77.1077 54.2159 77.6804 54.9275 77.6804H63.5808C64.2925 77.6804 64.8567 77.1077 64.8567 76.3924V50.3809C64.8567 49.8117 64.4926 49.3139 63.946 49.1481C63.3973 48.9817 62.8131 49.2048 62.5046 49.7C60.9523 52.1747 59.0479 54.4069 56.8393 56.3482C56.486 56.6566 56.1828 56.9146 55.8964 57.1398ZM57.4811 59.1802L57.482 59.1795C57.7906 58.9332 58.1308 58.6384 58.5007 58.3133C59.8789 57.102 61.1459 55.7785 62.2889 54.3688V75.1369H56.2034V60.163C56.5907 59.8808 56.9772 59.5767 57.3506 59.2829C57.3943 59.2485 57.4378 59.2142 57.4811 59.1802Z" fill="#3AAB87" stroke="#3AAB87" stroke-width="0.3"/>
</svg>
