<svg width="72" height="69" viewBox="0 0 72 69" fill="none" xmlns="http://www.w3.org/2000/svg">
<g clip-path="url(#clip0)">
<path d="M39.5141 67.0173H39.8141V66.7173V63.9375V63.6375H39.5141H6.94972C5.92338 63.6375 4.93907 63.2297 4.21334 62.504C3.4876 61.7783 3.07989 60.794 3.07989 59.7676V12.8095H63.6375V34.5501V34.8501H63.9375H66.7173H67.0173V34.5501V6.94972C67.0173 5.99768 66.8298 5.05495 66.4655 4.17537C66.1012 3.2958 65.5672 2.49659 64.894 1.8234C64.2208 1.1502 63.4216 0.616185 62.542 0.251852C61.6624 -0.11248 60.7197 -0.3 59.7676 -0.3H6.94972C5.02698 -0.3 3.18298 0.463808 1.82339 1.8234C0.463808 3.18298 -0.3 5.02698 -0.3 6.94972V59.7676C-0.3 60.7197 -0.11248 61.6624 0.251852 62.542C0.616185 63.4216 1.1502 64.2208 1.8234 64.894C2.49659 65.5672 3.2958 66.1012 4.17537 66.4655C5.05495 66.8298 5.99768 67.0173 6.94972 67.0173H39.5141ZM63.6375 9.42961H3.07989V6.94972C3.07989 5.92338 3.4876 4.93907 4.21334 4.21334C4.93907 3.4876 5.92338 3.07989 6.94972 3.07989H59.7676C60.794 3.07989 61.7783 3.4876 62.504 4.21334C63.2297 4.93907 63.6375 5.92338 63.6375 6.94972V9.42961Z" fill="#3AAB87" stroke="#3AAB87" stroke-width="0.6"/>
</g>
<path d="M60.4786 38.6916V41.8584C63.0622 42.7911 65.2505 44.5771 66.6822 46.9215C68.1139 49.2659 68.7033 52.0284 68.3532 54.753C68.0031 57.4777 66.7344 60.0014 64.7566 61.9076C62.7787 63.8138 60.21 64.9885 57.4745 65.2377V62.2121C60.7662 61.8978 63.456 60.2305 63.456 56.8267C63.456 52.7517 60.1377 51.8248 56.577 51.3853C54.5263 51.1403 52.7686 50.7248 52.7686 49.2386C52.7686 47.9682 53.9165 46.9668 56.308 46.9668C58.1722 46.9668 59.7702 47.8963 60.3587 48.8711L62.9207 47.5527C61.8315 45.3341 59.7062 44.4472 57.4745 44.2235V38.1642C57.115 38.1402 56.7528 38.1243 56.3852 38.1243C52.8188 38.1263 49.3682 39.3913 46.6455 41.6951C43.9228 43.9989 42.1039 47.1925 41.5112 50.7097C40.9186 54.2268 41.5906 57.8403 43.408 60.9092C45.2254 63.9781 48.0708 66.3042 51.4397 67.4749V64.2336C49.0703 63.1696 47.107 61.3699 45.8413 59.1017C44.5757 56.8334 44.0751 54.2174 44.4139 51.6421C44.7527 49.0667 45.9128 46.6693 47.722 44.8056C49.5312 42.9419 51.8931 41.7112 54.4571 41.2964V44.3247C51.9004 44.7881 49.5968 46.2743 49.5968 49.1401C49.5968 52.9701 52.8192 53.8996 56.308 54.3124C58.577 54.5574 60.2602 55.2153 60.2602 56.8267C60.2602 58.691 58.356 59.3889 56.332 59.3889C54.2574 59.3889 52.2813 58.5605 51.5249 56.6802L48.8404 58.0705C49.8791 60.6247 51.8605 61.7992 54.4571 62.1561V68.1834C55.0966 68.2647 55.7406 68.3056 56.3852 68.3059C60.0296 68.3079 63.5515 66.9908 66.3004 64.5979C69.0493 62.2051 70.8394 58.8982 71.34 55.2881C71.8406 51.678 71.0179 48.0087 69.0239 44.958C67.0298 41.9074 63.9992 39.6815 60.4919 38.6916H60.4786Z" fill="#3AAB87"/>
<defs>
<clipPath id="clip0">
<rect width="66.7173" height="66.7173" fill="white"/>
</clipPath>
</defs>
</svg>
