<svg width="64" height="73" viewBox="0 0 64 73" fill="none" xmlns="http://www.w3.org/2000/svg">
<path d="M62.9325 28.7533L62.9328 28.7537C63.243 29.141 63.2963 29.673 63.0971 30.1124C62.8957 30.5564 62.4401 30.8508 61.9471 30.8508H56.4556C56.34 32.1935 56.1337 33.5354 55.8367 34.847L55.8366 34.8471C54.4787 40.8113 51.3421 46.0899 46.7831 50.11M62.9325 28.7533L46.6832 49.998M62.9325 28.7533L54.8582 18.7389L54.8582 18.7389L47.9582 10.1878L62.9325 28.7533ZM46.7831 50.11C46.7829 50.1102 46.7826 50.1103 46.7824 50.1105L46.6832 49.998M46.7831 50.11C46.7833 50.1097 46.7836 50.1095 46.7838 50.1093L46.6832 49.998M46.7831 50.11C46.4755 50.3881 46.1839 50.6338 45.892 50.8632M46.6832 49.998C46.3776 50.2744 46.0881 50.5182 45.7986 50.7458M45.892 50.8632C45.8923 50.863 45.8926 50.8627 45.8929 50.8625L45.7986 50.7458M45.892 50.8632C43.8712 52.4971 41.6565 53.8369 39.3126 54.8662L39.3124 54.8663C36.4343 56.1247 33.3941 56.893 30.2569 57.1381L30.255 57.1383C29.5132 57.1872 28.7859 57.2199 28.0416 57.2199C26.2792 57.2199 24.5167 57.0564 22.7864 56.7296C19.5847 56.1248 16.5448 54.9807 13.7318 53.3466L13.7316 53.3465C10.6753 51.5649 7.99122 49.2278 5.76028 46.4174M45.892 50.8632C45.8918 50.8634 45.8915 50.8636 45.8913 50.8638L45.7986 50.7458M45.7986 50.7458L5.76028 46.4174M5.76028 46.4174L5.8776 46.3239M5.76028 46.4174L39.2523 54.7288C36.3893 55.9806 33.3655 56.7447 30.2452 56.9886C29.5053 57.0374 28.7815 57.0699 28.0416 57.0699C26.2885 57.0699 24.5353 56.9073 22.8143 56.5822C19.6296 55.9806 16.6058 54.8427 13.8071 53.2169C10.7672 51.4449 8.09722 49.1201 5.8776 46.3239M5.76028 46.4174C5.76022 46.4173 5.76017 46.4172 5.76011 46.4172L5.8776 46.3239M5.76028 46.4174C3.82025 43.9826 2.30053 41.27 1.23348 38.3616M5.8776 46.3239C3.94749 43.9016 2.43558 41.2029 1.37402 38.3091M1.37402 38.3091L1.23372 38.3622C1.23364 38.362 1.23356 38.3618 1.23348 38.3616M1.37402 38.3091C1.16492 37.7564 1.40619 37.1549 1.92088 36.8947M1.37402 38.3091L1.23319 38.3608C1.23329 38.361 1.23339 38.3613 1.23348 38.3616M1.23348 38.3616C0.997481 37.7367 1.27079 37.0552 1.85322 36.7609L1.92088 36.8947M1.92088 36.8947L1.85322 36.7609C2.43791 36.4654 3.1493 36.6689 3.49557 37.2215L3.49646 37.223C3.83028 37.7693 4.21241 38.3005 4.62735 38.8167L4.62777 38.8172C7.72341 42.7041 12.1265 45.1388 17.0246 45.6871C21.9222 46.2354 26.7395 44.8167 30.5848 41.6881L30.585 41.6878C33.215 39.5582 35.1733 36.792 36.3289 33.6803M1.92088 36.8947C2.43558 36.6346 3.06286 36.8135 3.36846 37.3012C3.70623 37.8539 4.09225 38.3904 4.51044 38.9106C7.63077 42.8286 12.07 45.2834 17.0079 45.8362L36.3289 33.6803M36.3289 33.6803C32.806 37.1636 28.0775 39.1419 23.0234 39.1419C12.5004 39.1419 3.92617 30.4896 3.92617 19.841C3.92617 9.19252 12.4843 0.540063 23.0234 0.540063C32.0448 0.540063 39.718 6.92611 41.649 15.5679L45.986 10.1894C46.2256 9.87403 46.5923 9.7091 46.9727 9.7091C47.3581 9.7091 47.7219 9.89395 47.958 10.1876L36.3289 33.6803ZM37.1092 21.1771L37.109 21.1774L35.8366 22.7547C36.0479 21.8162 36.1533 20.8336 36.1533 19.841C36.1533 12.5089 30.249 6.55521 23.0073 6.55521C15.7655 6.55521 9.86124 12.5252 9.86124 19.841C9.86124 27.1568 15.7655 33.1268 23.0073 33.1268C26.0103 33.1268 28.7778 32.0965 31.0015 30.3795C31.2427 30.6805 31.5986 30.8508 31.9823 30.8508H35.455C32.3362 34.4702 27.8243 36.5659 23.0073 36.5659C13.8915 36.5659 6.46187 29.0588 6.46187 19.841C6.46187 10.6232 13.8915 3.11607 23.0073 3.11607C31.5451 3.11607 38.674 9.72191 39.4833 18.2496L37.1092 21.1771ZM55.4061 28.3073V28.2748H55.2561C54.5795 28.2748 54.0166 28.8104 53.9804 29.5062L53.9803 29.508C53.9164 31.1076 53.6926 32.708 53.3405 34.277C52.109 39.7084 49.2465 44.509 45.0881 48.1785L45.0871 48.1794C44.8002 48.4372 44.5288 48.6631 44.272 48.8741C42.4328 50.3611 40.4179 51.5894 38.2754 52.5268L38.3355 52.6642L38.2754 52.5268C35.6529 53.6743 32.8869 54.3692 30.0251 54.5792L30.0244 54.5793C27.7539 54.7571 25.4671 54.6278 23.228 54.2075C20.3015 53.6579 17.535 52.6235 14.9762 51.1364C12.3782 49.612 10.073 47.6651 8.12546 45.3347C10.7106 46.9176 13.6289 47.9354 16.7341 48.2775C22.3233 48.8997 27.7997 47.2783 32.1733 43.7254C36.466 40.238 39.2035 35.2768 39.8837 29.7436L39.8838 29.7437L39.8841 29.7401C39.9201 29.3765 39.8125 29.0102 39.5753 28.7336C39.3389 28.4579 38.9923 28.291 38.625 28.291H38.0138H34.6766L46.9727 13.0568L52.8875 20.3903L52.8876 20.3904L59.2692 28.3073H55.4061ZM23.0073 30.5508C17.1726 30.5508 12.413 25.7423 12.413 19.841C12.413 13.9397 17.1726 9.13121 23.0073 9.13121C28.8419 9.13121 33.6015 13.9397 33.6015 19.841C33.6015 25.7423 28.8419 30.5508 23.0073 30.5508Z" fill="#3AAB87" stroke="#3AAB87" stroke-width="0.3"/>
<path d="M22.474 58.3535L22.474 58.3535L22.4722 58.3532C19.8312 57.8516 17.2863 57.0104 14.9015 55.8618L14.9015 55.8618L14.899 55.8606C14.5013 55.6779 14.0456 55.6955 13.6631 55.9348L13.6631 55.9348L13.6603 55.9366C13.2997 56.1735 13.0619 56.5766 13.0619 57.0211V71.425C13.0619 72.1403 13.6262 72.713 14.3378 72.713H23.0072C23.7188 72.713 24.2831 72.1403 24.2831 71.425V59.7523C24.2831 59.1298 23.8315 58.5767 23.2092 58.4827C23.0912 58.4604 22.9766 58.4414 22.8656 58.423C22.8546 58.4212 22.8436 58.4194 22.8327 58.4176C22.71 58.3973 22.5917 58.3773 22.474 58.3535ZM21.7313 70.137H15.6298V59.0015C17.5959 59.8087 19.6344 60.4246 21.7313 60.8352V70.137Z" fill="#3AAB87" stroke="#3AAB87" stroke-width="0.3"/>
<path d="M38.3481 57.0266L38.3478 57.0267C35.7732 57.9803 33.0866 58.5625 30.3518 58.7732C30.2993 58.7735 30.2479 58.7778 30.203 58.7816L30.2004 58.7818C30.1511 58.786 30.1092 58.7894 30.0683 58.7894V58.7892L30.0601 58.7896C29.3831 58.8266 28.8567 59.3986 28.8567 60.0774V71.4086C28.8567 72.124 29.421 72.6966 30.1326 72.6966H38.7859C39.4976 72.6966 40.0618 72.124 40.0618 71.4086V58.2403C40.0618 57.8195 39.8628 57.4329 39.5184 57.1929C39.1848 56.9328 38.745 56.8807 38.3481 57.0266ZM37.51 70.1369H31.4085V61.2699C33.4762 61.0596 35.5283 60.6438 37.51 60.0223V70.1369Z" fill="#3AAB87" stroke="#3AAB87" stroke-width="0.3"/>
<path d="M27.7224 23.5088C27.6323 23.5082 27.5428 23.5292 27.4613 23.5666C27.4122 23.5863 27.361 23.6086 27.3135 23.6292C27.2899 23.6395 27.2673 23.6493 27.2462 23.6583C27.246 23.6584 27.2458 23.6584 27.2456 23.6585L27.1447 23.7003L27.0117 23.753L26.917 23.7905V23.7927C25.5064 24.3533 24.0335 24.6798 22.6725 24.7091L22.6725 24.7091L22.6709 24.7091C22.622 24.7107 22.5724 24.7107 22.5209 24.7107H22.5208C20.3821 24.7118 18.6274 23.7377 16.8246 22.7369C16.7939 22.7198 16.7631 22.7027 16.7323 22.6856L16.7324 22.6856L16.729 22.6838C16.6474 22.6413 16.5594 22.6156 16.4667 22.6156C16.3488 22.6156 16.2272 22.6589 16.136 22.7445M27.7224 23.5088C28.0029 23.5091 28.28 23.7189 28.2847 24.0455L28.2847 24.0464C28.2864 24.2337 28.1819 24.3999 28.0442 24.5029C27.8659 24.6454 27.6774 24.7735 27.4894 24.886L27.4853 24.8889L27.48 24.8925L27.4799 24.8924C26.0453 25.794 24.1988 26.3452 22.563 26.3821L22.563 26.3821L22.5597 26.3822C22.5102 26.3833 22.4596 26.3844 22.4092 26.3844H22.4092C19.8223 26.3832 17.9056 24.9656 16.1876 23.4744C16.0776 23.3859 15.9909 23.2451 15.9911 23.0811M27.7224 23.5088C27.7222 23.5088 27.722 23.5088 27.7217 23.5088V23.6588L27.723 23.5088C27.7228 23.5088 27.7226 23.5088 27.7224 23.5088ZM15.9911 23.0811C15.9905 22.9541 16.0444 22.8304 16.136 22.7445M15.9911 23.0811C15.9911 23.0809 15.9911 23.0806 15.9911 23.0804L16.1411 23.0808L15.9911 23.0818C15.9911 23.0815 15.9911 23.0813 15.9911 23.0811ZM16.136 22.7445C16.136 22.7446 16.136 22.7446 16.1359 22.7446L16.2387 22.8539L16.1362 22.7444C16.1361 22.7444 16.1361 22.7445 16.136 22.7445Z" fill="#3AAB87" stroke="#3AAB87" stroke-width="0.3"/>
<path d="M28.0968 24.8033C28.0954 24.9085 28.1362 25.0349 28.2316 25.1236C28.3229 25.2101 28.4378 25.2421 28.533 25.2421H28.5358V25.2421L28.5376 25.2421C28.6753 25.2405 28.7874 25.1854 28.8758 25.1165L28.876 25.1168L28.8838 25.1098C29.5865 24.4778 29.8237 23.4829 29.8334 22.9234L29.8336 22.9234L29.8334 22.9169L29.8312 22.8357H29.8313L29.8311 22.8297C29.8247 22.6692 29.7898 22.5334 29.7121 22.4151L29.7122 22.415L29.7082 22.4095L29.7023 22.4013L29.7025 22.4012L29.6976 22.3951L29.6906 22.3864L29.6908 22.3862L29.6843 22.3791C29.6035 22.2911 29.5226 22.2556 29.4593 22.2279C29.4577 22.2271 29.4561 22.2264 29.4545 22.2257L29.4546 22.2256L29.4482 22.2231C29.2386 22.1422 28.948 22.1037 28.6151 22.1026V22.1026H28.6145C28.425 22.1026 28.2192 22.1165 28.0092 22.1508L28.0078 22.108L27.8171 22.1715L27.5561 22.2584L27.546 22.2618L27.542 22.2638L27.4056 22.3081L27.302 22.3418V22.3593C27.1542 22.4277 27.0172 22.5091 26.8887 22.6019L26.8887 22.6019L26.8861 22.6038C26.7776 22.6859 26.6627 22.8129 26.6566 23.0144L26.6566 23.0145C26.6529 23.1361 26.7114 23.2669 26.8117 23.3476C26.9075 23.4255 27.017 23.449 27.1065 23.449C27.1225 23.449 27.1441 23.4486 27.1672 23.4451L27.1746 23.4445L27.1746 23.445L27.1866 23.4429L27.1965 23.4412L27.1965 23.4413L27.2022 23.4401C27.2792 23.4238 27.376 23.4114 27.495 23.3962C27.5627 23.3876 27.6374 23.378 27.7198 23.3663C27.9028 23.3464 28.0934 23.3317 28.2564 23.3317L28.257 23.3317C28.3622 23.3313 28.4504 23.3378 28.5099 23.3486C28.5022 23.475 28.4507 23.6988 28.3752 23.9345L28.3752 23.9345L28.3749 23.9354C28.2953 24.1902 28.1979 24.4464 28.132 24.6196C28.1112 24.6737 28.097 24.7348 28.0968 24.8033ZM28.0968 24.8033C28.0968 24.8029 28.0968 24.8025 28.0968 24.8021L28.2468 24.8045H28.0968C28.0968 24.8041 28.0968 24.8037 28.0968 24.8033Z" fill="#3AAB87" stroke="#3AAB87" stroke-width="0.3"/>
<path d="M22.3963 22.5243C22.9524 22.3485 23.4214 22.038 23.9481 21.5079C23.9704 21.5394 23.9918 21.5699 24.0126 21.5996C24.2255 21.9035 24.3833 22.1288 24.8545 22.5256L24.8731 22.5412L24.8957 22.5502C25.0754 22.6216 25.2841 22.6316 25.4585 22.5016L25.4587 22.5017L25.4649 22.4965C25.8236 22.1977 26.4503 21.6603 26.7817 21.3597C26.8912 21.2703 26.939 21.1529 26.9389 21.0326C26.9388 20.9177 26.8956 20.8087 26.8418 20.7202L26.8372 20.7127L26.8317 20.7057C26.809 20.6766 26.7865 20.6482 26.7644 20.6202C26.6227 20.4407 26.4953 20.2794 26.3958 20.0834C26.2835 19.8624 26.2063 19.5943 26.2063 19.2134V16.5242C26.2063 16.4256 26.207 16.3269 26.2077 16.2282C26.2111 15.7685 26.2144 15.3113 26.1447 14.8863C26.0587 14.3619 25.8603 13.8727 25.4116 13.4566L25.4116 13.4566L25.4107 13.4558C24.6852 12.7935 23.5659 12.5501 22.7101 12.5501H22.3511V12.5498L22.3424 12.5503C21.5645 12.5954 20.7525 12.7862 20.0853 13.2155C19.4145 13.647 18.8966 14.3157 18.7087 15.2974C18.6692 15.4609 18.7093 15.5948 18.7984 15.6897C18.8793 15.776 18.9867 15.8151 19.059 15.8329L19.0675 15.835L19.0763 15.8361L20.7491 16.0452L20.7706 16.0479L20.7919 16.0444C21.0594 16.0006 21.177 15.7775 21.2134 15.6003C21.3444 15.0263 21.8093 14.7292 22.3587 14.6719H22.4714C22.7949 14.6719 23.1295 14.808 23.3035 15.0552C23.4035 15.206 23.4513 15.3877 23.4723 15.5912C23.4894 15.7561 23.4882 15.9243 23.4871 16.0954C23.4868 16.1387 23.4865 16.1822 23.4865 16.2259V16.3262C23.485 16.3263 23.4836 16.3264 23.4822 16.3265C23.1289 16.3526 22.7304 16.3821 22.3317 16.4348C21.6463 16.5252 20.9391 16.6455 20.3491 16.925C19.1919 17.3957 18.4068 18.4045 18.4068 19.8707C18.4068 20.7859 18.7023 21.4926 19.1999 21.9702C19.6962 22.4465 20.3785 22.6806 21.1267 22.6806C21.618 22.6806 22.0196 22.6183 22.3873 22.5269L22.3874 22.5271L22.3963 22.5243ZM23.1797 19.9435L23.1793 19.9433L23.1743 19.9533C22.9873 20.3264 22.6705 20.5647 22.3309 20.6488C22.295 20.6509 22.2571 20.6579 22.2292 20.6631C22.2248 20.6639 22.2207 20.6646 22.2169 20.6653C22.176 20.6726 22.1428 20.6777 22.1124 20.6777C21.8264 20.6777 21.6088 20.5688 21.4597 20.3854C21.3077 20.1985 21.2168 19.9213 21.2168 19.5724C21.2168 19.1264 21.3481 18.8123 21.5519 18.5855C21.7576 18.3566 22.0485 18.2038 22.389 18.1038C22.7189 18.0284 23.0973 17.9963 23.4865 17.99V18.1979V18.1979C23.4865 18.2449 23.4866 18.2909 23.4868 18.3361C23.4886 18.9619 23.4899 19.4251 23.1797 19.9435Z" fill="#3AAB87" stroke="#3AAB87" stroke-width="0.3"/>
<path d="M46.8964 52.1398L46.8964 52.1398L46.8948 52.1411C46.3347 52.5939 45.7746 53.0145 45.1984 53.4189C44.851 53.6594 44.6516 54.0639 44.6516 54.4687V71.3924C44.6516 72.1077 45.2159 72.6804 45.9275 72.6804H54.5808C55.2925 72.6804 55.8567 72.1077 55.8567 71.3924V45.3809C55.8567 44.8117 55.4926 44.3139 54.946 44.1481C54.3973 43.9817 53.8131 44.2048 53.5046 44.7C51.9523 47.1747 50.0479 49.4069 47.8393 51.3482C47.486 51.6566 47.1828 51.9146 46.8964 52.1398ZM48.4811 54.1802L48.482 54.1795C48.7906 53.9332 49.1308 53.6384 49.5007 53.3133C50.8789 52.102 52.1459 50.7785 53.2889 49.3688V70.1369H47.2034V55.163C47.5907 54.8808 47.9772 54.5767 48.3506 54.2829C48.3943 54.2485 48.4378 54.2142 48.4811 54.1802Z" fill="#3AAB87" stroke="#3AAB87" stroke-width="0.3"/>
</svg>
