<svg width="555" height="1255" viewBox="0 0 555 1255" fill="none" xmlns="http://www.w3.org/2000/svg">
<g opacity="0.3">
<path d="M-47.1122 949.773C-75.8141 954.095 -60.6348 888.363 -87.4615 861.022C-105.663 842.472 -132.378 875.028 -148.712 839.863C-170.677 792.578 -148.768 780.034 -65.2904 819.92C18.1871 859.806 -13.5016 944.713 -47.1122 949.773Z" stroke="#2A9372"/>
<path d="M-40.6536 965.331C-74.2213 970.294 -56.5383 893.583 -87.9474 861.58C-109.257 839.867 -140.47 877.806 -159.615 836.697C-185.36 781.419 -159.746 766.834 -62.0591 813.648C35.6277 860.462 -1.34505 959.518 -40.6536 965.331Z" stroke="#2A9372"/>
<path d="M-61.4119 989.86C-104.711 996.109 -82.0209 897.437 -122.595 856.11C-150.122 828.071 -190.331 876.777 -215.097 823.78C-248.399 752.516 -215.377 733.849 -89.272 794.519C36.8335 855.189 -10.7075 982.542 -61.4119 989.86Z" stroke="#2A9372"/>
<path d="M-54.9547 1005.42C-103.12 1012.31 -77.9259 902.654 -123.082 856.665C-153.719 825.463 -198.424 879.553 -226.001 820.612C-263.083 741.355 -226.357 720.646 -86.0421 788.245C54.2726 855.843 1.44756 997.345 -54.9547 1005.42Z" stroke="#2A9372"/>
<path d="M-48.4969 1020.97C-101.528 1028.5 -73.8301 907.869 -123.568 857.218C-157.314 822.853 -206.518 882.326 -236.905 817.441C-277.766 730.19 -237.336 707.441 -82.8116 781.968C71.7125 856.495 13.6034 1012.14 -48.4969 1020.97Z" stroke="#2A9372"/>
<path d="M-42.0395 1036.52C-99.936 1044.7 -69.7348 913.089 -124.056 857.776C-160.91 820.248 -214.611 885.104 -247.809 814.275C-292.449 719.031 -248.315 694.241 -79.5814 775.696C89.1519 857.151 25.7587 1026.95 -42.0395 1036.52Z" stroke="#2A9372"/>
<path d="M-31.6107 1046.36C-94.5139 1053.77 -62.8436 913.449 -122.427 852.91C-162.852 811.837 -220.683 880.075 -257.429 803.404C-306.841 700.306 -259.056 674.776 -74.7869 766.002C109.483 857.227 42.0504 1037.69 -31.6107 1046.36Z" stroke="#2A9372"/>
<path d="M-9.72106 1147.35C-97.1203 1160.84 -50.6428 960.086 -132.206 876.929C-187.543 820.511 -269.008 920.144 -318.596 813.002C-385.277 668.929 -318.524 630.417 -64.5409 751.263C189.442 872.109 92.6255 1131.56 -9.72106 1147.35Z" stroke="#2A9372"/>
<path d="M8.67509 1218.94C-96.5653 1234.79 -40.9078 993.77 -139.272 893.519C-206.009 825.503 -303.965 944.875 -363.859 815.938C-444.397 642.558 -364.062 596.562 -57.9782 742.812C248.106 889.061 131.914 1200.39 8.67509 1218.94Z" stroke="#2A9372"/>
<path d="M32.3533 1275.97C-90.7283 1294.17 -25.8908 1012.9 -141.057 895.551C-219.194 815.937 -333.641 955.048 -403.84 804.316C-498.235 601.628 -404.318 548.149 -46.1334 719.801C312.051 891.454 176.485 1254.66 32.3533 1275.97Z" stroke="#2A9372"/>
<path d="M55.9994 1332.97C-84.9233 1353.53 -10.9058 1031.99 -142.874 897.554C-232.41 806.343 -363.349 965.192 -443.852 792.666C-552.105 560.67 -444.606 499.708 -34.3208 696.763C375.965 893.818 221.023 1308.9 55.9994 1332.97Z" stroke="#2A9372"/>
<path d="M79.6776 1390C-79.0862 1412.92 4.11133 1051.12 -144.659 899.586C-245.594 796.777 -393.024 975.365 -483.833 781.044C-605.943 519.741 -484.863 451.295 -22.476 673.753C439.911 896.211 265.594 1363.17 79.6776 1390Z" stroke="#2A9372"/>
<path d="M103.355 1447.04C-73.2502 1472.31 19.1273 1070.25 -146.445 901.621C-258.78 787.214 -422.701 985.541 -523.815 769.425C-659.782 478.815 -525.12 402.884 -10.6324 650.746C503.855 898.607 310.163 1417.45 103.355 1447.04Z" stroke="#2A9372"/>
<path d="M127.034 1504.07C-67.4121 1531.69 34.1454 1089.37 -148.229 903.653C-271.963 777.647 -452.376 995.714 -563.794 757.803C-713.619 437.885 -565.375 354.471 1.21345 627.736C567.802 901 354.735 1471.72 127.034 1504.07Z" stroke="#2A9372"/>
<path d="M150.711 1561.09C-61.5762 1591.07 49.1613 1108.49 -150.015 905.679C-285.148 768.076 -482.052 1005.88 -603.776 746.176C-767.458 396.951 -605.632 306.053 13.0571 604.721C631.746 903.388 399.304 1525.98 150.711 1561.09Z" stroke="#2A9372"/>
</g>
</svg>
