<svg width="827" height="860" viewBox="0 0 827 860" fill="none" xmlns="http://www.w3.org/2000/svg">
<path d="M29.1012 1133.73C32.3056 1280.33 132.341 1126.54 185.651 1225.84C221.82 1293.21 179.051 1463.96 241.201 1502.17C324.774 1553.55 337.152 1430.53 243.727 1067.21C150.301 703.884 25.3488 962.06 29.1012 1133.73Z" stroke="#F8F5F3"/>
<path d="M-49.0882 1143.36C-47.0153 1348.93 95.9463 1126.25 169.134 1262.02C218.789 1354.13 155.93 1596.72 242.537 1646.13C358.997 1712.57 378.407 1539.05 253.278 1035.4C128.149 531.762 -51.5156 902.649 -49.0882 1143.36Z" stroke="#F8F5F3"/>
<path d="M-104.915 1143.68C-102.123 1390.97 69.5278 1123.96 157.765 1287.72C217.631 1398.82 142.368 1690.26 246.622 1750.21C386.813 1830.83 409.91 1622.21 258.656 1015.61C107.402 409.012 -108.185 854.096 -104.915 1143.68Z" stroke="#F8F5F3"/>
<path d="M-150.637 1123.52C-147.126 1412.54 53.2147 1101.2 156.501 1292.94C226.578 1423.04 138.911 1763.33 260.813 1833.83C424.734 1928.62 451.519 1684.9 274.14 975.349C96.7618 265.796 -154.748 785.077 -150.637 1123.52Z" stroke="#F8F5F3"/>
<path d="M-196.362 1103.37C-192.133 1434.12 36.8979 1078.44 155.234 1298.17C235.522 1447.25 135.45 1836.4 275 1917.44C462.652 2026.41 493.124 1747.6 289.621 935.087C86.1173 122.579 -201.316 716.057 -196.362 1103.37Z" stroke="#F8F5F3"/>
<path d="M-242.084 1083.22C-237.135 1455.69 20.5848 1055.67 153.971 1303.4C244.469 1471.47 131.993 1909.47 289.191 2001.06C500.574 2124.21 534.733 1810.29 305.105 894.827C75.4767 -20.6374 -247.879 647.039 -242.084 1083.22Z" stroke="#F8F5F3"/>
<path d="M-287.806 1063.06C-282.138 1477.27 4.27182 1032.91 152.708 1308.63C253.416 1495.69 128.536 1982.55 303.382 2084.67C538.495 2222 576.342 1872.99 320.589 854.566C64.8361 -163.854 -294.443 578.019 -287.806 1063.06Z" stroke="#F8F5F3"/>
<path d="M-333.531 1042.91C-327.145 1498.84 -12.0451 1010.15 151.441 1313.85C262.36 1519.9 125.075 2055.62 317.568 2168.29C576.413 2319.79 617.946 1935.68 336.069 814.304C54.1916 -307.072 -341.011 508.999 -333.531 1042.91Z" stroke="#F8F5F3"/>
<path d="M-379.253 1022.75C-372.147 1520.42 -28.3581 987.387 150.177 1319.08C271.307 1544.12 121.618 2128.69 331.759 2251.9C614.334 2417.58 659.555 1998.37 351.553 774.042C43.5509 -450.289 -387.574 439.979 -379.253 1022.75Z" stroke="#F8F5F3"/>
</svg>
