<svg width="504" height="1257" viewBox="0 0 504 1257" fill="none" xmlns="http://www.w3.org/2000/svg">
<g opacity="0.3">
<path d="M650.809 -114.836C749.854 -172.68 700.319 107.785 794.301 177.306C858.065 224.473 948.974 58.2576 1007.03 173.514C1085.1 328.499 1009.91 409.066 719.486 370.716C429.067 332.366 534.825 -47.1005 650.809 -114.836Z" stroke="#2A9372"/>
<path d="M628.758 -198.667C748.028 -267.805 688.719 68.8399 802.06 152.636C878.959 209.488 988.279 10.1798 1058.39 148.781C1152.67 335.158 1062.18 431.663 712.171 384.655C362.167 337.647 489.089 -117.704 628.758 -198.667Z" stroke="#2A9372"/>
<path d="M600.942 -261.274C740.437 -341.707 671.353 51.1183 804.055 149.189C894.088 215.727 1021.82 -16.6749 1103.99 145.271C1214.48 363.04 1108.68 475.483 699.092 419.817C289.502 364.151 437.589 -167.084 600.942 -261.274Z" stroke="#2A9372"/>
<path d="M573.125 -323.881C732.845 -415.609 653.988 33.3967 806.049 145.742C909.217 221.965 1055.36 -43.5294 1149.58 141.762C1276.29 390.922 1155.19 519.303 686.012 454.979C216.838 390.655 386.089 -216.465 573.125 -323.881Z" stroke="#2A9372"/>
<path d="M545.31 -386.488C725.255 -489.511 636.624 15.6754 808.044 142.296C924.347 228.204 1088.9 -70.3837 1195.18 138.252C1338.1 418.804 1201.69 563.124 672.933 490.142C144.174 417.159 334.59 -265.845 545.31 -386.488Z" stroke="#2A9372"/>
<path d="M517.494 -449.098C717.664 -563.417 619.259 -2.04997 810.039 138.846C939.476 234.438 1122.44 -97.2418 1240.78 134.739C1399.91 446.682 1248.2 606.94 659.853 525.3C71.5087 443.659 283.09 -315.229 517.494 -449.098Z" stroke="#2A9372"/>
<path d="M489.677 -511.705C710.072 -637.319 601.892 -19.7715 812.032 135.399C954.604 240.676 1155.98 -124.097 1286.37 131.229C1461.72 474.564 1294.7 650.76 646.772 560.462C-1.15714 470.164 231.589 -364.609 489.677 -511.705Z" stroke="#2A9372"/>
<path d="M461.862 -574.307C702.482 -711.215 584.528 -37.4872 814.028 131.958C969.735 246.921 1189.52 -150.945 1331.97 127.725C1523.53 502.452 1341.21 694.586 633.694 595.63C-73.821 496.674 180.091 -413.984 461.862 -574.307Z" stroke="#2A9372"/>
</g>
</svg>
