<svg width="786" height="723" viewBox="0 0 786 723" fill="none" xmlns="http://www.w3.org/2000/svg">
<g opacity="0.3">
<path d="M235.857 -26.7295C231.952 -51.8277 261.006 -34.998 270.704 -56.6975C277.284 -71.4198 261.512 -96.3802 275.294 -108.555C293.827 -124.926 300.74 -105.249 289.785 -35.1933C278.829 34.8628 240.43 2.66105 235.857 -26.7295Z" stroke="#F8F5F3"/>
<path d="M216.685 -57.248C210.626 -92.2182 252.239 -67.6784 265.571 -97.3738C274.617 -117.521 251.703 -152.79 271.031 -169.107C297.021 -191.048 307.243 -163.473 293.113 -66.7624C278.983 29.9478 223.782 -16.2971 216.685 -57.248Z" stroke="#F8F5F3"/>
<path d="M203.2 -52.1769C195.982 -94.2735 245.935 -64.8681 262.007 -100.682C272.911 -124.98 245.444 -167.375 268.695 -187.097C299.961 -213.618 312.193 -180.443 295.043 -63.9127C277.893 52.6173 211.652 -2.88083 203.2 -52.1769Z" stroke="#F8F5F3"/>
<path d="M192.805 -44.5653C184.429 -93.7882 242.721 -59.5172 261.533 -101.449C274.295 -129.899 242.275 -179.42 269.449 -202.548C305.99 -233.647 320.233 -194.872 300.063 -58.5225C279.892 77.8274 202.613 13.076 192.805 -44.5653Z" stroke="#F8F5F3"/>
<path d="M182.413 -85.0318C172.879 -141.381 239.511 -102.244 261.062 -150.295C275.683 -182.895 239.11 -239.543 270.207 -266.076C312.024 -301.755 328.277 -257.38 305.086 -101.21C281.896 54.9593 193.578 -19.0454 182.413 -85.0318Z" stroke="#F8F5F3"/>
<path d="M172.021 -77.4209C161.329 -140.897 236.301 -96.8943 260.591 -151.063C277.071 -187.815 235.945 -251.589 270.965 -281.527C318.057 -321.785 336.32 -271.81 310.109 -95.8209C283.899 80.1686 184.542 -3.08929 172.021 -77.4209Z" stroke="#F8F5F3"/>
<path d="M161.626 -69.8105C149.776 -140.413 233.088 -91.5446 260.117 -151.832C278.456 -192.734 232.776 -263.635 271.72 -296.978C324.087 -341.815 344.36 -286.241 315.129 -90.4318C285.898 105.377 175.503 12.8663 161.626 -69.8105Z" stroke="#F8F5F3"/>
<path d="M151.234 -62.1988C138.226 -139.927 229.878 -86.1937 259.647 -152.599C279.844 -197.653 229.611 -275.68 272.478 -312.429C330.12 -361.845 352.404 -300.671 320.153 -85.0417C287.902 130.587 166.468 28.8231 151.234 -62.1988Z" stroke="#F8F5F3"/>
<path d="M140.839 -54.5882C126.672 -139.443 226.664 -80.8438 259.172 -153.368C281.228 -202.573 226.442 -287.726 273.232 -327.88C336.15 -381.875 360.443 -315.101 325.172 -79.6524C289.901 155.797 157.429 44.7789 140.839 -54.5882Z" stroke="#F8F5F3"/>
<path d="M135.168 -40.5766C120.849 -132.603 227.38 -70.8942 262.941 -150.459C287.067 -204.441 229.236 -295.962 279.77 -340.603C347.722 -400.631 373.072 -328.483 332.902 -71.6105C292.732 185.262 151.935 67.1888 135.168 -40.5766Z" stroke="#F8F5F3"/>
<path d="M64.8376 -20.2115C42.6187 -148.436 195.2 -58.4564 244.086 -167.34C277.254 -241.213 193.237 -370.531 264.105 -430.36C359.4 -510.811 396.883 -409.702 345.073 -55.0976C293.264 299.506 90.8564 129.942 64.8376 -20.2115Z" stroke="#F8F5F3"/>
<path d="M15.394 -1.60109C-11.0715 -155.955 172.089 -48.1353 231.019 -179.453C271.002 -268.547 170.29 -423.994 255.543 -496.309C370.182 -593.551 415.035 -471.909 352.152 -44.6323C289.268 382.644 46.3856 179.151 15.394 -1.60109Z" stroke="#F8F5F3"/>
<path d="M-22.7137 26.3063C-53.4257 -154.178 160.314 -28.5174 229.289 -182.269C276.086 -286.583 158.679 -468.161 258.317 -552.962C392.3 -666.994 444.523 -524.819 370.566 -24.8701C296.608 475.079 13.2508 237.657 -22.7137 26.3063Z" stroke="#F8F5F3"/>
<path d="M-60.8212 54.2117C-95.7798 -152.403 148.539 -8.90139 227.558 -185.087C281.17 -304.622 147.068 -512.33 261.091 -609.617C414.418 -740.439 474.012 -577.732 388.98 -5.10982C303.948 567.512 -19.884 296.162 -60.8212 54.2117Z" stroke="#F8F5F3"/>
<path d="M-98.9294 82.1192C-138.135 -150.625 136.764 10.7167 225.827 -187.902C286.254 -322.658 135.457 -556.496 263.865 -666.27C436.535 -813.882 503.499 -630.642 407.394 14.6526C311.288 659.947 -53.0193 354.668 -98.9294 82.1192Z" stroke="#F8F5F3"/>
<path d="M-137.04 110.024C-180.492 -148.85 124.985 30.3325 224.093 -190.721C291.335 -340.697 123.843 -600.665 266.636 -722.925C458.649 -887.327 532.984 -683.555 425.805 34.4126C318.625 752.38 -86.1574 413.173 -137.04 110.024Z" stroke="#F8F5F3"/>
<path d="M-175.148 137.933C-222.846 -147.072 113.21 49.9514 222.363 -193.535C296.419 -358.733 112.232 -644.831 269.41 -779.576C480.767 -960.768 562.472 -736.464 444.219 54.1758C325.965 844.816 -119.292 471.68 -175.148 137.933Z" stroke="#F8F5F3"/>
<path d="M-213.252 165.839C-265.197 -145.295 101.439 69.5687 220.636 -196.352C301.506 -376.77 100.624 -688.998 272.188 -836.23C502.888 -1034.21 591.964 -789.375 462.636 73.9373C333.309 937.25 -152.424 530.185 -213.252 165.839Z" stroke="#F8F5F3"/>
</g>
</svg>
