<svg width="827" height="723" viewBox="0 0 827 723" fill="none" xmlns="http://www.w3.org/2000/svg">
<g opacity="0.3">
<path d="M714.306 831.247C713.545 878.523 666.731 827.478 642.666 858.784C626.339 880.024 646.865 935.739 618.432 947.2C580.198 962.612 573.899 922.73 615.15 806.764C656.401 690.798 715.198 775.887 714.306 831.247Z" stroke="#F8F5F3"/>
<path d="M726.781 827.394C725.823 882.647 671.185 823.126 643.016 859.783C623.904 884.653 647.813 949.708 614.567 963.185C569.862 981.308 562.557 934.715 610.933 799.067C659.309 663.419 727.902 762.692 726.781 827.394Z" stroke="#F8F5F3"/>
<path d="M739.248 823.541C738.094 886.771 675.632 818.774 643.358 860.782C621.461 889.282 648.754 963.677 610.695 979.17C559.517 1000 551.206 946.7 606.707 791.37C662.208 636.039 740.599 749.497 739.248 823.541Z" stroke="#F8F5F3"/>
<path d="M751.715 819.689C750.365 890.896 680.078 814.423 643.7 861.781C619.019 893.912 649.694 977.647 606.822 995.156C549.172 1018.7 539.856 958.686 602.482 783.673C665.108 608.66 753.296 736.303 751.715 819.689Z" stroke="#F8F5F3"/>
<path d="M764.186 815.835C762.64 895.021 684.528 810.071 644.046 862.78C616.58 898.542 650.638 991.617 602.953 1011.14C538.831 1037.39 528.509 970.671 598.26 775.976C668.011 581.281 765.996 723.108 764.186 815.835Z" stroke="#F8F5F3"/>
<path d="M776.657 811.982C774.915 899.145 688.979 805.72 644.392 863.78C614.141 903.171 651.582 1005.59 599.084 1027.13C528.49 1056.09 517.163 982.657 594.039 768.279C670.914 553.901 778.697 709.913 776.657 811.982Z" stroke="#F8F5F3"/>
<path d="M789.128 808.129C787.19 903.269 693.429 801.368 644.738 864.778C611.702 907.8 652.527 1019.55 595.216 1043.11C518.15 1074.78 505.817 994.642 589.817 760.582C673.818 526.522 791.397 696.717 789.128 808.129Z" stroke="#F8F5F3"/>
<path d="M797.9 795.635C794.695 898.397 694.66 790.593 641.35 860.202C605.181 907.429 647.95 1027.12 585.8 1053.9C502.227 1089.92 489.849 1003.68 583.274 749.004C676.7 494.325 801.652 675.299 797.9 795.635Z" stroke="#F8F5F3"/>
<path d="M876.088 802.388C874.015 946.48 731.054 790.394 657.866 885.563C608.212 950.132 671.069 1120.18 584.463 1154.81C468.003 1201.38 448.593 1079.75 573.722 726.711C698.851 373.672 878.516 633.653 876.088 802.388Z" stroke="#F8F5F3"/>
<path d="M931.915 802.608C929.123 975.951 757.472 788.786 669.235 903.574C609.369 981.454 684.632 1185.74 580.378 1227.77C440.187 1284.28 417.09 1138.04 568.344 712.836C719.598 287.629 935.185 599.62 931.915 802.608Z" stroke="#F8F5F3"/>
<path d="M977.636 788.481C974.126 991.074 773.785 772.83 670.498 907.239C600.422 998.43 688.088 1236.97 566.186 1286.38C402.265 1352.83 375.481 1181.99 552.859 684.614C730.238 187.238 981.748 551.239 977.636 788.481Z" stroke="#F8F5F3"/>
<path d="M1023.36 774.353C1019.13 1006.2 790.102 756.875 671.766 910.902C591.479 1015.4 691.55 1288.19 552 1344.99C364.348 1421.38 333.876 1225.94 537.379 656.392C740.883 86.8468 1028.32 502.858 1023.36 774.353Z" stroke="#F8F5F3"/>
<path d="M1069.08 760.227C1064.14 1021.32 806.415 740.92 673.029 914.567C582.531 1032.38 695.007 1339.41 537.809 1403.61C326.426 1489.93 292.267 1269.88 521.895 628.171C751.523 -13.5433 1074.88 454.478 1069.08 760.227Z" stroke="#F8F5F3"/>
<path d="M1114.81 746.099C1109.14 1036.45 822.728 724.965 674.292 918.231C573.584 1049.36 698.464 1390.63 523.618 1462.22C288.505 1558.48 250.658 1313.83 506.411 599.949C762.164 -113.934 1121.44 406.098 1114.81 746.099Z" stroke="#F8F5F3"/>
<path d="M1160.53 731.972C1154.14 1051.57 839.045 709.009 675.559 921.895C564.64 1066.33 701.925 1441.85 509.432 1520.83C250.587 1627.03 209.053 1357.78 490.931 571.726C772.808 -214.325 1168.01 357.716 1160.53 731.972Z" stroke="#F8F5F3"/>
<path d="M1206.25 717.844C1199.15 1066.69 855.358 693.053 676.823 925.558C555.693 1083.31 705.382 1493.07 495.241 1579.44C212.666 1695.58 167.445 1401.72 475.447 543.504C783.449 -314.717 1214.57 309.335 1206.25 717.844Z" stroke="#F8F5F3"/>
</g>
</svg>
