<svg width="786" height="860" viewBox="0 0 786 860" fill="none" xmlns="http://www.w3.org/2000/svg">
<g opacity="0.3">
<path d="M593.196 -133.48C601.572 -203.701 543.28 -154.81 524.468 -214.63C511.706 -255.216 543.726 -325.862 516.552 -358.856C480.011 -403.222 465.768 -347.906 485.938 -153.391C506.109 41.1249 583.388 -51.249 593.196 -133.48Z" stroke="#F8F5F3"/>
<path d="M603.588 -122.623C613.122 -203.01 546.49 -147.178 524.939 -215.726C510.318 -262.234 546.891 -343.047 515.794 -380.899C473.977 -431.798 457.724 -368.493 480.915 -145.703C504.105 77.0877 592.423 -28.4868 603.588 -122.623Z" stroke="#F8F5F3"/>
<path d="M613.979 -111.765C624.672 -202.319 549.7 -139.546 525.409 -216.823C508.929 -269.252 550.056 -360.232 515.036 -402.941C467.944 -460.373 449.681 -389.08 475.891 -138.015C502.102 113.051 601.459 -5.72434 613.979 -111.765Z" stroke="#F8F5F3"/>
<path d="M624.375 -100.908C636.225 -201.628 552.913 -131.913 525.884 -217.919C507.545 -276.27 553.225 -377.416 514.281 -424.984C461.914 -488.948 441.641 -409.666 470.872 -130.326C500.103 149.014 610.498 17.0384 624.375 -100.908Z" stroke="#F8F5F3"/>
<path d="M634.766 -90.049C647.775 -200.936 556.123 -124.28 526.354 -219.014C506.157 -283.287 556.39 -394.599 513.523 -447.025C455.881 -517.521 433.597 -430.251 465.848 -122.636C498.099 184.979 619.533 39.8022 634.766 -90.049Z" stroke="#F8F5F3"/>
<path d="M645.162 -79.1916C659.329 -200.245 559.337 -116.648 526.829 -220.11C504.773 -290.305 559.559 -411.784 512.769 -469.068C449.851 -546.096 425.558 -450.838 460.829 -114.948C496.1 220.942 628.572 62.5647 645.162 -79.1916Z" stroke="#F8F5F3"/>
<path d="M650.833 -59.2031C665.152 -190.488 558.621 -102.454 523.06 -215.961C498.934 -292.971 556.765 -423.535 506.231 -487.219C438.279 -572.855 412.929 -469.928 453.099 -103.476C493.269 262.976 634.066 94.5342 650.833 -59.2031Z" stroke="#F8F5F3"/>
<path d="M721.163 -30.1501C743.382 -213.074 590.801 -84.7099 541.915 -240.042C508.747 -345.429 592.764 -529.913 521.896 -615.265C426.601 -730.036 389.118 -585.794 440.928 -79.9183C492.737 425.957 695.145 184.057 721.163 -30.1501Z" stroke="#F8F5F3"/>
<path d="M770.607 -3.60069C797.072 -223.801 613.912 -69.9861 554.982 -257.322C514.999 -384.423 615.711 -606.184 530.458 -709.348C415.819 -848.072 370.966 -674.539 433.849 -64.9887C496.733 544.561 739.615 254.259 770.607 -3.60069Z" stroke="#F8F5F3"/>
<path d="M808.715 36.2118C839.427 -221.266 625.687 -41.9993 556.712 -261.34C509.915 -410.154 627.322 -669.192 527.684 -790.169C393.701 -952.845 341.477 -750.02 415.435 -36.7961C489.393 676.428 772.75 337.724 808.715 36.2118Z" stroke="#F8F5F3"/>
<path d="M846.822 76.0214C881.781 -218.733 637.462 -14.0153 558.443 -265.36C504.831 -435.888 638.933 -732.202 524.91 -870.992C371.583 -1057.62 311.989 -825.505 397.021 -8.60625C482.052 808.292 805.885 421.186 846.822 76.0214Z" stroke="#F8F5F3"/>
<path d="M884.93 115.833C924.135 -216.198 649.237 13.9711 560.173 -269.377C499.747 -461.619 650.544 -795.211 522.136 -951.813C349.466 -1162.39 282.501 -900.987 378.607 19.586C474.712 940.159 839.02 504.65 884.93 115.833Z" stroke="#F8F5F3"/>
<path d="M923.041 155.644C966.493 -213.665 661.016 41.9556 561.908 -273.397C494.666 -487.352 662.158 -858.221 519.365 -1032.64C327.352 -1267.17 253.017 -976.471 360.196 47.7762C467.376 1072.02 872.158 588.112 923.041 155.644Z" stroke="#F8F5F3"/>
<path d="M961.149 195.457C1008.85 -211.128 672.791 69.9437 563.638 -277.413C489.582 -513.082 673.769 -921.227 516.591 -1113.45C305.234 -1371.94 223.529 -1051.95 341.782 75.9702C460.036 1203.89 905.293 671.578 961.149 195.457Z" stroke="#F8F5F3"/>
<path d="M999.253 235.268C1051.2 -208.595 684.562 97.9289 565.365 -281.432C484.494 -538.815 685.376 -984.237 513.813 -1194.28C283.112 -1476.72 194.037 -1127.43 323.364 104.161C452.691 1335.76 938.424 755.041 999.253 235.268Z" stroke="#F8F5F3"/>
</g>
</svg>
