<svg width="162" height="38" viewBox="0 0 162 38" fill="none" xmlns="http://www.w3.org/2000/svg">
<path d="M10.1883 23.3401H4.34V29.4205H0.444336V8.75635C3.69233 8.75635 6.94033 8.72412 10.1883 8.72412C20.2836 8.72412 20.3158 23.3401 10.1883 23.3401ZM4.34 19.7667H10.1883C15.1763 19.7667 15.1473 12.4458 10.1883 12.4458H4.34V19.7667Z" fill="#404F68"/>
<path d="M38.737 29.4205H34.1034L28.0811 22.512H24.3304V29.4205H20.4219V8.72412C23.6989 8.72412 26.9791 8.75635 30.2561 8.75635C35.1249 8.78535 37.6962 12.0333 37.6962 15.6036C37.6962 18.4391 36.4073 21.3037 32.4698 22.0996L38.7273 29.1562L38.737 29.4205ZM24.3304 12.3878V18.9998H30.2658C32.7437 18.9998 33.8102 17.3468 33.8102 15.6938C33.8102 14.0408 32.7179 12.3878 30.2658 12.3878H24.3304Z" fill="#404F68"/>
<path d="M60.6453 19.2062C60.5873 24.5518 57.3103 29.8943 50.0474 29.8943C42.7845 29.8943 39.4141 24.6678 39.4141 19.2352C39.4141 13.8025 42.8973 8.34082 50.0474 8.34082C57.1975 8.34082 60.7001 13.8025 60.6453 19.2062ZM43.2453 19.2964C43.3355 22.6894 45.1786 26.3208 50.0377 26.3208C54.8969 26.3208 56.74 22.6604 56.8044 19.2674C56.8624 15.7809 54.9162 11.8853 50.0377 11.8853C45.1593 11.8853 43.168 15.8099 43.255 19.2964H43.2453Z" fill="#404F68"/>
<path d="M116.647 25.5248H105.84L104.071 29.4205H99.8467L109.117 8.75635H113.37L122.641 29.4205H118.378L116.647 25.5248ZM111.244 13.0935L107.422 21.8998H115.097L111.244 13.0935Z" fill="#3AAB87"/>
<path d="M132.234 29.5107H128.193L119.6 8.75635H123.972L130.201 24.8449L136.458 8.75635H140.828L132.234 29.5107Z" fill="#3AAB87"/>
<path d="M161.555 29.4205H156.919L150.896 22.512H147.149V29.4205H143.25V8.72412C146.527 8.72412 149.804 8.75635 153.081 8.75635C157.953 8.78535 160.521 12.0333 160.521 15.6036C160.521 18.4391 159.232 21.3037 155.295 22.0996L161.555 29.1562V29.4205ZM147.149 12.3878V18.9998H153.081C155.562 18.9998 156.625 17.3468 156.625 15.6938C156.625 14.0408 155.533 12.3878 153.081 12.3878H147.149Z" fill="#3AAB87"/>
<path d="M86.2456 1.42901V5.26023C89.3716 6.38869 92.0192 8.54943 93.7515 11.3857C95.4837 14.222 96.1969 17.5641 95.7733 20.8604C95.3497 24.1567 93.8147 27.21 91.4216 29.5162C89.0286 31.8223 85.9207 33.2434 82.611 33.5449V29.8844C86.5936 29.5042 89.8481 27.4871 89.8481 23.3691C89.8481 18.4391 85.8332 17.3178 81.5251 16.7861C79.044 16.4897 76.9173 15.987 76.9173 14.189C76.9173 12.652 78.3061 11.4405 81.1996 11.4405C83.4552 11.4405 85.3885 12.565 86.1006 13.7443L89.2004 12.1493C87.8825 9.46523 85.3112 8.39223 82.611 8.12157V0.79101C82.176 0.76201 81.7378 0.742676 81.2931 0.742676C76.978 0.745097 72.8031 2.27558 69.5089 5.06273C66.2147 7.84988 64.0139 11.7136 63.2969 15.9687C62.5798 20.2238 63.3929 24.5954 65.5918 28.3082C67.7907 32.021 71.2334 34.8351 75.3094 36.2516V32.3301C72.4426 31.0429 70.0672 28.8656 68.5359 26.1214C67.0046 23.3773 66.3989 20.2124 66.8088 17.0967C67.2187 13.981 68.6223 11.0806 70.8113 8.82582C73.0003 6.57107 75.858 5.08225 78.9602 4.58034V8.24401C75.8669 8.80467 73.0797 10.6027 73.0797 14.0698C73.0797 18.7033 76.9785 19.8279 81.1996 20.3273C83.945 20.6238 85.9814 21.4197 85.9814 23.3691C85.9814 25.6247 83.6775 26.4689 81.2286 26.4689C78.7185 26.4689 76.3276 25.4668 75.4125 23.1919L72.1645 24.8739C73.4212 27.964 75.8185 29.385 78.9602 29.8168V37.1087C79.734 37.207 80.5131 37.2565 81.2931 37.2569C85.7024 37.2593 89.9636 35.6658 93.2895 32.7709C96.6154 29.876 98.7813 25.8752 99.387 21.5077C99.9927 17.1402 98.9973 12.701 96.5847 9.01028C94.1721 5.31954 90.5053 2.62663 86.2617 1.42901H86.2456Z" fill="#3AAB87"/>
</svg>
