<svg width="32" height="27" viewBox="0 0 32 27" fill="none" xmlns="http://www.w3.org/2000/svg">
<path d="M2.09994 26.72C0.939938 22.3893 0.359938 18.5227 0.359938 15.12C0.359938 10.5573 1.48127 7.03866 3.72394 4.564C5.9666 2.012 9.2146 0.735998 13.4679 0.735998V6.188C11.4573 6.188 9.98794 6.768 9.05994 7.92799C8.20927 9.01066 7.78394 10.712 7.78394 13.032V15.468H14.0479V26.72H2.09994ZM19.6159 26.72C18.5333 22.6987 17.9919 18.832 17.9919 15.12C17.9919 10.5573 19.0746 7.03866 21.2399 4.564C23.4826 2.012 26.7306 0.735998 30.9839 0.735998V6.188C27.1946 6.188 25.2999 8.46933 25.2999 13.032V15.468H31.5639V26.72H19.6159Z" fill="#3E4E69"/>
</svg>
