<svg width="10" height="17" viewBox="0 0 10 17" fill="none" xmlns="http://www.w3.org/2000/svg">
<path d="M8.92835 0.302222L6.81306 0.298828C4.43661 0.298828 2.90084 1.87449 2.90084 4.31325V6.16416H0.774015C0.590232 6.16416 0.441406 6.31316 0.441406 6.49694V9.17871C0.441406 9.3625 0.590401 9.51132 0.774015 9.51132H2.90084V16.2783C2.90084 16.4621 3.04967 16.6109 3.23345 16.6109H6.00835C6.19214 16.6109 6.34096 16.4619 6.34096 16.2783V9.51132H8.82772C9.0115 9.51132 9.16033 9.3625 9.16033 9.17871L9.16134 6.49694C9.16134 6.4087 9.12622 6.32419 9.06394 6.26174C9.00166 6.19929 8.91681 6.16416 8.82857 6.16416H6.34096V4.59512C6.34096 3.84097 6.52067 3.45813 7.50305 3.45813L8.92801 3.45762C9.11162 3.45762 9.26045 3.30862 9.26045 3.12501V0.634834C9.26045 0.451388 9.11179 0.302562 8.92835 0.302222Z" fill="#C4C4C4"/>
</svg>
