<svg width="17" height="17" viewBox="0 0 17 17" fill="none" xmlns="http://www.w3.org/2000/svg">
<g clip-path="url(#clip0)">
<path d="M12.8965 0H5.41552C2.98076 0 1 1.98076 1 4.41552V11.8966C1 14.3313 2.98076 16.312 5.41552 16.312H12.8966C15.3313 16.312 17.312 14.3313 17.312 11.8966V4.41552C17.312 1.98076 15.3313 0 12.8965 0V0ZM9.15601 12.6162C6.69662 12.6162 4.69582 10.6154 4.69582 8.15601C4.69582 5.69662 6.69662 3.69582 9.15601 3.69582C11.6154 3.69582 13.6162 5.69662 13.6162 8.15601C13.6162 10.6154 11.6154 12.6162 9.15601 12.6162ZM13.7229 4.74768C12.9961 4.74768 12.4049 4.15654 12.4049 3.42974C12.4049 2.70295 12.9961 2.11168 13.7229 2.11168C14.4497 2.11168 15.0409 2.70295 15.0409 3.42974C15.0409 4.15654 14.4497 4.74768 13.7229 4.74768Z" fill="#2A9372"/>
<path d="M8.79664 4.76648C6.86466 4.76648 5.29272 6.33829 5.29272 8.27039C5.29272 10.2024 6.86466 11.7743 8.79664 11.7743C10.7287 11.7743 12.3006 10.2024 12.3006 8.27039C12.3006 6.33829 10.7287 4.76648 8.79664 4.76648Z" fill="#2A9372"/>
<path d="M13.3636 3.18237C13.1642 3.18237 13.002 3.34466 13.002 3.54403C13.002 3.7434 13.1642 3.90568 13.3636 3.90568C13.5631 3.90568 13.7254 3.74352 13.7254 3.54403C13.7254 3.34453 13.5631 3.18237 13.3636 3.18237Z" fill="#2A9372"/>
</g>
<defs>
<clipPath id="clip0">
<rect width="16.3121" height="16.3121" fill="white" transform="translate(0.640625 0.114258)"/>
</clipPath>
</defs>
</svg>
