<svg width="18" height="17" viewBox="0 0 18 17" fill="none" xmlns="http://www.w3.org/2000/svg">
<g clip-path="url(#clip0)">
<path d="M17.0659 16.6104V16.6097H17.0699V10.6273C17.0699 7.70063 16.4399 5.44617 13.0184 5.44617C11.3736 5.44617 10.2698 6.34877 9.81922 7.20447H9.77165V5.71939H6.52759V16.6097H9.90554V11.2172C9.90554 9.79741 10.1747 8.42448 11.933 8.42448C13.6655 8.42448 13.6913 10.0448 13.6913 11.3083V16.6104H17.0659Z" fill="#C4C4C4"/>
<path d="M1.02661 5.72058H4.40865V16.6109H1.02661V5.72058Z" fill="#C4C4C4"/>
<path d="M2.71662 0.298828C1.63527 0.298828 0.757812 1.17628 0.757812 2.25763C0.757812 3.33899 1.63527 4.23479 2.71662 4.23479C3.79797 4.23479 4.67542 3.33899 4.67542 2.25763C4.67474 1.17628 3.79729 0.298828 2.71662 0.298828V0.298828Z" fill="#C4C4C4"/>
</g>
<defs>
<clipPath id="clip0">
<rect width="16.3121" height="16.3121" fill="white" transform="translate(0.757812 0.298828)"/>
</clipPath>
</defs>
</svg>
