<svg width="16" height="18" viewBox="0 0 16 18" fill="none" xmlns="http://www.w3.org/2000/svg">
<g clip-path="url(#clip0)">
<path d="M15.156 5.96123C15.8067 5.47035 16.354 4.85764 16.8 4.15214V4.15143C16.2047 4.42839 15.5714 4.61256 14.91 4.70181C15.59 4.27043 16.1094 3.59256 16.3534 2.77585C15.7194 3.17748 15.0194 3.46081 14.2734 3.61948C13.6714 2.93806 12.8134 2.5166 11.8774 2.5166C10.0614 2.5166 8.59938 4.08273 8.59938 6.00231C8.59938 6.27856 8.62138 6.54419 8.67538 6.79706C5.94871 6.65539 3.53538 5.26706 1.91405 3.15127C1.63138 3.67331 1.46472 4.27043 1.46472 4.91289C1.46472 6.11989 2.04938 7.18948 2.92205 7.80927C2.39472 7.79864 1.87805 7.63573 1.44005 7.38002V7.41827C1.44005 9.11189 2.57672 10.5186 4.06805 10.8431C3.80072 10.921 3.51005 10.9578 3.20805 10.9578C2.99805 10.9578 2.78605 10.9451 2.58738 10.8983C3.01205 12.2781 4.21872 13.2932 5.65205 13.3265C4.53605 14.2537 3.11872 14.8126 1.58472 14.8126C1.31605 14.8126 1.05805 14.7998 0.800049 14.7651C2.25338 15.7603 3.97472 16.3291 5.83205 16.3291C11.6207 16.3291 15.3934 11.1979 15.156 5.96123Z" fill="#C4C4C4"/>
</g>
<defs>
<clipPath id="clip0">
<rect width="16" height="17" fill="white" transform="translate(0 0.922852)"/>
</clipPath>
</defs>
</svg>
