<svg width="271" height="252" viewBox="0 0 271 252" fill="none" xmlns="http://www.w3.org/2000/svg">
<path d="M144.485 21.6222C144.337 21.6222 144.189 21.5852 144.079 21.5113C143.45 21.1047 142.785 20.6981 142.12 20.2915C141.75 20.0698 141.639 19.5893 141.861 19.2197C142.083 18.8501 142.563 18.7392 142.933 18.961C143.598 19.3675 144.3 19.8111 144.966 20.2176C145.335 20.4394 145.446 20.9199 145.187 21.2895C145.003 21.5113 144.744 21.6222 144.485 21.6222Z" fill="#99D7FF"/>
<path d="M40.2165 135.647C40.1056 135.647 39.9578 135.61 39.8469 135.537C38.1467 134.613 36.7791 133.873 35.7442 133.282C35.3746 133.06 35.2267 132.58 35.4485 132.21C35.6702 131.84 36.1508 131.693 36.5204 131.914C37.5553 132.506 38.8859 133.245 40.5861 134.132C40.9557 134.354 41.1036 134.797 40.9188 135.204C40.7709 135.5 40.5122 135.647 40.2165 135.647ZM30.5696 129.697C30.4218 129.697 30.237 129.66 30.0891 129.549C28.8324 128.625 27.5758 127.664 26.393 126.666C26.0604 126.407 26.0234 125.89 26.2822 125.557C26.5409 125.224 27.0583 125.187 27.391 125.446C28.5368 126.407 29.7565 127.368 31.0131 128.255C31.3458 128.514 31.4197 128.994 31.161 129.364C31.0501 129.586 30.8284 129.697 30.5696 129.697ZM21.9207 122.415C21.7359 122.415 21.5141 122.341 21.3663 122.194C20.2205 121.122 19.1486 119.976 18.0768 118.867C17.7811 118.534 17.8181 118.054 18.1138 117.758C18.4464 117.463 18.9269 117.5 19.2226 117.795C20.2575 118.904 21.3294 120.013 22.4382 121.048C22.7339 121.343 22.7708 121.861 22.4751 122.157C22.3273 122.341 22.1425 122.415 21.9207 122.415ZM14.3437 114.025C14.1219 114.025 13.8632 113.914 13.7154 113.729C12.7544 112.473 11.8303 111.216 10.9802 109.922C10.7215 109.553 10.8324 109.072 11.202 108.851C11.5716 108.592 12.0521 108.703 12.2739 109.072C13.124 110.329 14.0111 111.586 14.9721 112.769C15.2308 113.101 15.1569 113.619 14.8242 113.877C14.6764 113.951 14.5285 114.025 14.3437 114.025ZM8.1712 104.526C7.87551 104.526 7.61677 104.378 7.46893 104.12C6.72971 102.752 6.02746 101.311 5.39912 99.906C5.21431 99.4995 5.39911 99.0559 5.80568 98.8711C6.21225 98.6863 6.6558 98.8711 6.84061 99.2777C7.46895 100.645 8.13421 102.05 8.83647 103.38C9.05824 103.75 8.91043 104.23 8.50386 104.452C8.42994 104.489 8.31904 104.526 8.1712 104.526ZM3.77282 94.1031C3.44017 94.1031 3.14448 93.8814 3.03359 93.5487C2.5531 92.0703 2.14652 90.5548 1.77691 89.0394C1.66602 88.6329 1.92474 88.1893 2.36828 88.0785C2.77485 87.9676 3.21842 88.2263 3.3293 88.6698C3.69891 90.1483 4.10545 91.6267 4.58594 93.0682C4.73379 93.4748 4.4751 93.9183 4.06852 94.0661C3.92068 94.1031 3.84674 94.1031 3.77282 94.1031ZM1.29644 83.0887C0.926829 83.0887 0.557181 82.793 0.52022 82.4234C0.483259 82.0538 0.446334 81.7212 0.372412 81.3516C0.224567 80.1688 0.113675 78.9491 0.0397526 77.7663C0.00279149 77.3228 0.335442 76.9532 0.778975 76.9532C1.22251 76.9162 1.5921 77.2489 1.5921 77.6924C1.66602 78.8752 1.77693 80.0579 1.88781 81.2037C1.92477 81.5364 1.9617 81.9059 1.99867 82.2386C2.07259 82.6821 1.73996 83.0517 1.33339 83.1257C1.33339 83.0887 1.29644 83.0887 1.29644 83.0887ZM0.778975 71.7786C0.778975 71.7786 0.742014 71.7786 0.778975 71.7786C0.298481 71.7786 -0.0341606 71.409 0.00280052 70.9654C0.0767228 69.4131 0.18757 67.8607 0.335415 66.3083C0.372376 65.8648 0.778966 65.5691 1.18554 65.6061C1.62907 65.643 1.92477 66.0496 1.88781 66.4562C1.73996 67.9716 1.59211 69.524 1.55515 71.0394C1.55515 71.446 1.18555 71.7786 0.778975 71.7786ZM2.14652 60.5424C2.10956 60.5424 2.03563 60.5424 1.99867 60.5424C1.59209 60.4685 1.29641 60.025 1.4073 59.6184C1.70299 58.103 2.0726 56.5876 2.51613 55.0722C2.62701 54.6656 3.07054 54.4069 3.47711 54.5177C3.88368 54.6286 4.14241 55.0722 4.03153 55.4788C3.62495 56.9572 3.25538 58.4357 2.95969 59.9141C2.84881 60.2837 2.51613 60.5424 2.14652 60.5424ZM5.32517 49.6758C5.21428 49.6758 5.14039 49.6758 5.0295 49.6389C4.62293 49.491 4.4381 49.0475 4.58594 48.6409C5.14036 47.1995 5.73175 45.721 6.39705 44.3165C6.58185 43.9099 7.0254 43.7621 7.43198 43.9099C7.83855 44.0947 7.98639 44.5382 7.83854 44.9448C7.2102 46.3493 6.61881 47.7539 6.06439 49.1584C5.95351 49.4911 5.65782 49.6758 5.32517 49.6758ZM10.1671 39.4746C10.0193 39.4746 9.90838 39.4376 9.7975 39.3637C9.42789 39.1419 9.28002 38.6614 9.50179 38.2918C10.278 36.9612 11.0911 35.5937 11.9412 34.3C12.163 33.9304 12.6804 33.8565 13.0131 34.0783C13.3827 34.3 13.4936 34.8175 13.2349 35.1501C12.3848 36.4068 11.6086 37.7374 10.8324 39.068C10.6845 39.3267 10.4258 39.4746 10.1671 39.4746ZM16.4875 30.0864C16.3026 30.0864 16.1548 30.0125 16.0069 29.9016C15.6743 29.6429 15.6004 29.1255 15.8961 28.7928C16.8571 27.5731 17.892 26.3903 18.9269 25.2076C19.2226 24.8749 19.7031 24.8749 20.0357 25.1706C20.3684 25.4663 20.3684 25.9468 20.0727 26.2795C19.0378 27.3883 18.0398 28.571 17.1158 29.7908C16.9679 29.9756 16.7462 30.0864 16.4875 30.0864ZM24.2123 21.8072C23.9906 21.8072 23.7688 21.7332 23.6209 21.5484C23.3252 21.2158 23.3622 20.7353 23.6579 20.4396C24.8037 19.4047 26.0234 18.3698 27.2801 17.4458C27.6127 17.187 28.1302 17.2609 28.3889 17.5936C28.6476 17.9262 28.5737 18.4437 28.2411 18.7024C27.0213 19.6264 25.8756 20.5874 24.7298 21.6224C24.5819 21.7332 24.3971 21.8072 24.2123 21.8072ZM136.611 17.15C136.5 17.15 136.389 17.1131 136.278 17.0761C134.911 16.4108 133.543 15.7455 132.102 15.1542C131.695 14.9694 131.51 14.5258 131.695 14.1193C131.88 13.7127 132.324 13.5279 132.73 13.7127C134.172 14.341 135.576 15.0063 136.981 15.6716C137.35 15.8564 137.535 16.3369 137.35 16.7065C137.202 17.0022 136.907 17.15 136.611 17.15ZM33.3417 15.1172C33.083 15.1172 32.8242 14.9693 32.6764 14.7476C32.4546 14.378 32.5655 13.8975 32.9721 13.6757C34.3027 12.8995 35.7072 12.1603 37.1117 11.458C37.5183 11.2732 37.9619 11.4211 38.1467 11.8277C38.3315 12.2342 38.1836 12.6778 37.7771 12.8626C36.4095 13.5279 35.0419 14.2671 33.7483 15.0063C33.6004 15.0802 33.4526 15.1172 33.3417 15.1172ZM126.188 12.7517C126.114 12.7517 126.003 12.7517 125.929 12.7147C124.488 12.1973 123.046 11.7168 121.568 11.2732C121.161 11.1624 120.903 10.7188 121.05 10.3122C121.161 9.90567 121.605 9.64695 122.011 9.7948C123.49 10.2383 125.005 10.7558 126.447 11.2732C126.853 11.4211 127.075 11.8646 126.927 12.2712C126.816 12.5669 126.521 12.7517 126.188 12.7517ZM43.5799 10.3492C43.2473 10.3492 42.9516 10.1644 42.8407 9.83175C42.6929 9.42518 42.9146 8.98164 43.3212 8.83379C44.7627 8.31634 46.2781 7.83586 47.7935 7.39232C48.2001 7.28144 48.6436 7.50321 48.7545 7.94674C48.8654 8.35331 48.6436 8.79684 48.2001 8.90772C46.7216 9.31429 45.2432 9.79478 43.8387 10.3122C43.7648 10.3492 43.6539 10.3492 43.5799 10.3492ZM115.358 9.53607C115.284 9.53607 115.248 9.53607 115.174 9.49911C113.695 9.1295 112.18 8.79685 110.664 8.50116C110.258 8.42724 109.962 7.9837 110.036 7.57713C110.11 7.17056 110.554 6.87486 110.96 6.94879C112.512 7.24447 114.028 7.61409 115.506 7.94674C115.913 8.05762 116.172 8.46419 116.098 8.90772C116.024 9.31429 115.691 9.53607 115.358 9.53607ZM54.4835 7.39232C54.1139 7.39232 53.7812 7.13359 53.7073 6.76398C53.6334 6.32045 53.8921 5.91387 54.3357 5.83995C55.8141 5.54426 57.3665 5.28554 58.9558 5.06378C59.3624 4.98986 59.7689 5.28554 59.8428 5.72907C59.9168 6.17261 59.6211 6.5422 59.1776 6.61613C57.6252 6.83789 56.1098 7.09663 54.6313 7.39232C54.5944 7.39232 54.5574 7.39232 54.4835 7.39232ZM104.233 7.35535C104.196 7.35535 104.159 7.35535 104.122 7.35535C102.607 7.13358 101.091 6.91183 99.5391 6.72703C99.0956 6.69007 98.7999 6.28349 98.8368 5.83995C98.8738 5.39642 99.2804 5.10072 99.7239 5.13768C101.276 5.32249 102.829 5.54426 104.344 5.76603C104.788 5.83995 105.083 6.24653 105.009 6.6531C104.935 7.09663 104.603 7.35535 104.233 7.35535ZM92.9969 6.06171C92.96 6.06171 92.96 6.06171 92.923 6.06171C91.4076 5.95083 89.8553 5.83995 88.3029 5.76603C87.8594 5.72906 87.5267 5.35945 87.5637 4.95288C87.6006 4.50934 87.9333 4.21365 88.3768 4.21365C89.9292 4.28758 91.4816 4.39848 93.0339 4.50936C93.4775 4.54632 93.7731 4.91593 93.7362 5.35946C93.7362 5.72907 93.4035 6.06171 92.9969 6.06171ZM65.7197 5.8769C65.3131 5.8769 64.9804 5.58122 64.9435 5.13768C64.9065 4.69415 65.2392 4.32454 65.6458 4.28758C67.1612 4.1767 68.7135 4.06582 70.3028 3.9919C70.7094 3.95493 71.116 4.32455 71.116 4.73112C71.1529 5.17465 70.7833 5.54427 70.3768 5.54427C68.8244 5.61819 67.2721 5.69211 65.7936 5.83995C65.7566 5.87691 65.7197 5.8769 65.7197 5.8769ZM81.6869 5.50729C81.6499 5.50729 81.6499 5.50729 81.6869 5.50729C80.1715 5.47033 78.693 5.47034 77.2885 5.47034H77.0298C76.5862 5.47034 76.2536 5.10074 76.2536 4.69417C76.2536 4.25063 76.6232 3.91797 77.0298 3.91797H77.2885C78.693 3.91797 80.1715 3.91798 81.6869 3.95494C82.1304 3.95494 82.463 4.32454 82.463 4.76807C82.4261 5.17464 82.0935 5.50729 81.6869 5.50729Z" fill="#99D7FF"/>
<path d="M116.689 246.457C173.172 246.457 218.961 242.949 218.961 238.621C218.961 234.293 173.172 230.785 116.689 230.785C60.2064 230.785 14.418 234.293 14.418 238.621C14.418 242.949 60.2064 246.457 116.689 246.457Z" fill="#F78500"/>
<path d="M151.244 209.754L143.815 203.101C140.599 193.011 139.01 181.701 141.486 170.612C141.486 170.612 149.692 172.202 158.488 175.935L162.48 184.288L164.402 178.818C168.579 181.109 172.497 183.955 175.306 187.393L173.051 198.74L178.447 192.641C178.891 193.75 179.187 194.933 179.371 196.152C182.107 214.966 181.737 238.288 181.737 238.288H162.85C162.85 238.288 153.942 227.495 147.326 212.231L151.244 209.754Z" fill="#217F91"/>
<path d="M162.299 230.489C166.882 232.744 170.171 232.781 171.317 232.67C165.44 225.019 160.34 215.335 156.385 206.612C156.089 206.612 155.831 206.649 155.535 206.649C150.397 206.649 146.331 204.468 143.485 202.103C143.375 201.77 143.264 201.401 143.153 201.031C146.073 203.618 150.397 206.206 156.089 206.021C154.943 203.47 153.835 200.883 152.8 198.296C148.475 197.742 144.225 195.117 141.231 192.9C141.194 192.604 141.12 192.308 141.083 192.013C143.929 194.23 148.253 197.002 152.541 197.668C147.219 184.472 143.855 173.791 143.818 173.68L142.746 171.277L144.262 172.941C144.336 173.162 147.071 181.811 151.247 192.715C153.465 188.021 152.282 176.526 151.876 173.458C152.097 173.532 152.282 173.606 152.504 173.68C152.947 177.302 154.093 189.019 151.506 193.491C154.167 200.403 157.531 208.275 161.412 215.779C163.001 213.376 160.377 197.889 164.775 191.791C167.473 188.058 167.843 183.733 167.695 180.85C167.917 180.998 168.102 181.109 168.323 181.257C168.397 184.214 167.954 188.464 165.293 192.16C160.857 198.296 163.888 214.3 161.744 216.37C162.52 217.848 163.297 219.29 164.11 220.694C168.545 206.76 168.471 206.28 167.88 200.772C167.547 197.594 167.214 194.6 169.321 192.493C171.169 190.645 171.761 187.023 171.946 184.066C172.13 184.251 172.315 184.399 172.537 184.583C172.315 187.54 171.65 191.052 169.765 192.937C166.364 196.3 169.913 202.325 168.36 208.312C166.993 213.709 164.849 220.362 164.516 221.434C166.18 224.317 167.917 227.089 169.728 229.676C170.467 229.048 173.609 225.98 172.722 219.512C171.983 214.263 176.935 207.573 180.188 203.803C180.225 204.099 180.262 204.358 180.262 204.653C177.083 208.46 172.648 214.67 173.276 219.438C174.237 226.349 170.837 229.528 170.024 230.193C172.204 233.261 174.533 236.07 176.898 238.436H176.048C175.642 237.992 175.198 237.586 174.792 237.105C172.463 237.844 168.841 237.438 165.256 234.777C163.075 233.15 160.746 232.965 158.824 233.224C158.713 233.039 158.566 232.855 158.455 232.67C160.562 232.3 163.186 232.485 165.625 234.259C169.691 237.29 173.165 236.846 174.348 236.551C173.424 235.516 172.5 234.407 171.613 233.298C168.619 233.742 164.664 232.485 161.892 231.08C160.081 230.193 158.233 229.861 156.57 229.824C156.459 229.639 156.311 229.417 156.2 229.232C158.159 229.158 160.266 229.491 162.299 230.489Z" fill="#A7CBD3"/>
<path opacity="0.34" d="M176.159 195.229L178.45 192.642C178.894 193.75 179.19 194.933 179.374 196.153C182.109 214.966 181.74 238.289 181.74 238.289C181.74 238.289 174.311 221.213 176.159 195.229Z" fill="#195F6D"/>
<path d="M243.759 223.504C242.946 223.504 232.818 218.366 215.521 223.504C198.223 228.642 185.582 238.325 185.582 238.325C185.582 238.325 205.356 242.132 223.467 239.176C241.578 236.219 243.759 223.504 243.759 223.504Z" fill="#004A58"/>
<path d="M187.65 236.884C198.997 229.085 216.406 220.953 231.043 221.212C227.975 229.861 223.835 236.181 215.593 240.062C203.137 240.912 191.346 239.36 187.133 238.695C187.281 238.14 187.465 237.549 187.65 236.884Z" fill="#003842"/>
<path d="M187.207 162.813L194.636 170.612L191.716 154.312C194.414 149.766 197.408 145.516 200.66 141.856C209.605 131.766 225.72 116.76 225.72 116.76C229.453 124.337 232.003 131.655 233.593 138.752L225.276 147.253L234.923 146.292C242.057 201.068 192.011 238.362 192.011 238.362H181.699C181.699 238.362 177.079 193.787 180.812 180.111C182.365 174.308 184.545 168.431 187.207 162.813Z" fill="#004A58"/>
<path d="M179.927 185.027C180.038 184.14 180.148 183.29 180.259 182.514C182.44 188.465 188.169 202.806 194.416 206.576C194.637 205.984 194.859 205.393 195.081 204.802C188.871 202.51 183.845 187.134 181.368 178.042C181.59 177.339 181.812 176.6 182.034 175.898C184.621 185.84 189.832 201.66 195.487 203.693C197.261 199.073 199.368 194.563 201.771 190.572C203.767 187.319 205.763 182.847 207.758 177.709C202.399 173.606 198.296 156.272 196.448 147.068C196.744 146.662 197.077 146.218 197.372 145.812C199.036 154.387 203.212 172.276 208.202 176.563C209.644 172.756 211.048 168.654 212.416 164.403C207.869 157.602 206.354 143.15 205.873 136.239C206.243 135.832 206.613 135.462 207.019 135.056C207.389 141.117 208.719 155.68 212.896 162.925C219.586 141.672 225.204 118.276 225.278 117.906L225.722 117.093V117.98C225.648 118.386 219.401 148.029 211.529 170.871C220.399 173.828 230.12 167.582 235.368 163.368C235.331 163.923 235.294 164.477 235.221 165.031C233.89 166.066 232.375 167.138 230.674 168.173C225.611 171.241 220.769 172.83 216.407 172.83C214.559 172.83 212.822 172.571 211.159 172.017C209.015 178.19 206.76 183.808 204.543 188.169C212.526 190.941 224.132 187.873 230.6 185.656C230.416 186.136 230.268 186.617 230.083 187.097C225.389 188.65 218.514 190.461 212.083 190.461C209.237 190.461 206.465 190.091 203.988 189.204C203.619 189.906 203.212 190.608 202.843 191.237C192.457 208.313 188.206 235.775 187.836 238.325H186.617C186.728 237.586 188.908 222.691 194.046 207.758C187.947 204.284 182.551 191.976 179.927 185.027Z" fill="#CFD5F1"/>
<path opacity="0.44" d="M192.014 238.325H182.441C182.441 238.325 184.659 217.812 203.731 204.21L206.023 207.796L206.355 202.436C207.464 201.734 208.61 201.069 209.83 200.403L212.824 207.352L214.117 198.334C217.961 196.67 222.286 195.229 227.127 194.194C214.635 221.102 192.828 237.697 192.014 238.325Z" fill="#6670A4"/>
<path d="M150.765 202.362L152.761 211.233L155.164 204.876C157.677 206.428 160.153 208.202 162.482 210.198L163.184 214.596L165.55 213.044C171.685 219.327 176.231 227.57 176.934 238.289H161.003C161.003 238.289 126.777 228.827 125.595 193.972C125.595 193.972 138.088 195.783 150.765 202.362Z" fill="#469AA8"/>
<path d="M170.799 238.325H168.138C149.436 228.198 128.516 197.668 127.591 196.301L126.298 194.305L128.589 195.635C128.811 195.968 151.875 229.64 170.799 238.325Z" fill="#A7CBD3"/>
<path d="M203.804 209.163L205.763 212.23L206.059 207.647C207.02 207.056 207.981 206.464 209.015 205.91L211.566 211.861L212.675 204.136C217.886 201.844 224.096 200.181 231.525 199.405C231.525 199.405 229.935 220.99 220.399 230.526C210.864 240.025 195.931 238.399 195.931 238.399H185.582C185.582 238.399 187.504 220.842 203.804 209.163Z" fill="#E0AA1A"/>
<path d="M194.748 238.399H193.195C216 222.728 229.824 200.773 229.972 200.551L231.154 199.849L230.711 201.031C230.6 201.253 217.072 222.691 194.748 238.399Z" fill="#F3DDA3"/>
<path d="M185.582 238.325C185.582 238.325 204.691 229.824 217.332 230.859C230.009 231.894 243.056 245.976 243.056 245.976C243.056 245.976 238.917 247.454 232.929 248.933L227.274 244.461L228.863 249.857C219.512 251.816 207.537 253.146 199.368 249.672C184.103 243.241 185.582 238.325 185.582 238.325Z" fill="#AD2500"/>
<path d="M185.582 238.325C185.582 238.325 185.841 238.214 186.58 237.882C190.387 237.66 202.584 236.995 213.229 237.401C215.003 236.034 215.742 233.003 216.038 230.785C216.334 230.785 216.629 230.822 216.925 230.822C216.629 232.929 216.001 235.738 214.449 237.438C214.929 237.475 218.404 237.734 219.586 237.919C221.471 236.588 221.878 233.853 221.878 231.709C222.174 231.783 222.469 231.894 222.765 231.968C222.728 234.001 222.321 236.514 220.732 238.067C221.878 238.251 222.987 238.51 224.059 238.769C226.498 238.362 227.939 236.329 228.753 234.666C229.011 234.814 229.27 234.962 229.529 235.11C228.827 236.588 227.607 238.362 225.685 239.212C226.646 239.471 227.533 239.73 228.42 240.025C231.562 239.175 232.781 238.14 233.225 237.475C233.447 237.66 233.705 237.808 233.927 237.993C233.41 238.732 232.264 239.656 229.788 240.506C235.997 242.687 240.432 244.978 240.506 245.015L242.133 245.976L239.841 245.754C239.73 245.68 229.714 239.878 217.812 238.547C220.954 241.06 222.284 246.346 223.061 249.377C223.172 249.894 223.319 250.412 223.43 250.855C223.135 250.892 222.876 250.929 222.58 251.003C222.469 250.633 222.358 250.19 222.211 249.598C221.36 246.198 219.771 239.952 215.816 238.362C215.188 238.325 212.009 238.214 211.233 238.177C214.227 240.765 216.482 247.861 217.516 251.557C217.221 251.594 216.925 251.594 216.629 251.631C215.262 246.752 212.527 238.991 209.496 238.14C197.742 237.993 185.582 238.325 185.582 238.325Z" fill="#DE9C8C"/>
<path d="M265.427 123.45C265.427 130.103 260.031 135.462 253.415 135.462C246.799 135.462 241.402 130.066 241.402 123.45C241.402 116.797 246.799 111.438 253.415 111.438C260.031 111.438 265.427 116.834 265.427 123.45Z" fill="#99D7FF"/>
<path d="M253.416 119.273C254.377 119.273 255.19 118.46 255.19 117.499H251.642C251.642 118.46 252.418 119.273 253.416 119.273Z" fill="white"/>
<path d="M261.067 119.199L255.855 117.536C255.818 117.536 255.781 117.536 255.744 117.536H255.707C255.707 118.83 254.672 119.865 253.379 119.865C252.085 119.865 251.05 118.83 251.05 117.536H251.013C250.976 117.536 250.939 117.536 250.902 117.536L245.691 119.199C245.543 119.236 245.432 119.421 245.469 119.606L246.171 122.267C246.208 122.452 246.393 122.526 246.541 122.489L248.648 121.971C248.833 121.935 249.054 122.082 249.054 122.267L249.202 129.142C249.202 129.327 249.35 129.475 249.535 129.475H257.26C257.445 129.475 257.592 129.327 257.592 129.142L257.74 122.267C257.74 122.045 257.925 121.898 258.147 121.971L260.254 122.489C260.438 122.526 260.586 122.415 260.623 122.267L261.325 119.606C261.325 119.421 261.252 119.236 261.067 119.199Z" fill="white"/>
<path d="M98.7669 67.2328C98.7669 73.8858 93.3706 79.2451 86.7546 79.2451C80.1016 79.2451 74.7422 73.8488 74.7422 67.2328C74.7422 60.5798 80.1385 55.2204 86.7546 55.2204C93.4076 55.1834 98.7669 60.5798 98.7669 67.2328Z" fill="#99D7FF"/>
<path d="M80.0268 61.2079C80.5443 62.3537 83.3903 68.3044 86.1254 69.635C86.1624 69.635 86.1993 69.672 86.1993 69.672L89.0823 70.1155C89.1192 70.1155 89.1192 70.1155 89.1562 70.1525L92.0392 71.52C92.0761 71.52 92.1131 71.557 92.1501 71.557C92.2979 71.557 92.4457 71.6679 92.4457 71.8527V72.2223C92.4457 72.3332 92.3718 72.4441 92.224 72.4811C91.6696 72.6289 89.8954 72.9985 84.9427 72.7767C84.8318 72.7767 84.7578 72.7028 84.6839 72.6289C84.2773 71.8157 82.2444 68.0088 80.2485 67.3435C80.0637 67.2695 79.8789 67.4174 79.8789 67.6022V72.555C79.8789 72.7028 79.7681 72.8507 79.5833 72.8507H79.1397C78.9918 72.8507 78.881 72.7398 78.8441 72.5919C78.7332 71.2983 78.2526 65.7541 77.7721 65.2736C77.2177 64.7192 76.7373 61.5405 79.6572 61.097C79.842 61.0231 79.9529 61.0601 80.0268 61.2079Z" fill="white"/>
<path d="M82.3887 69.8931C82.4996 70.928 82.5735 71.852 82.6105 72.2585C82.6105 72.4064 82.7583 72.5173 82.9062 72.5173H83.3497C83.4975 72.5173 83.6454 72.4064 83.6454 72.2216V71.7781C83.2388 71.1128 82.8322 70.4844 82.3887 69.8931Z" fill="white"/>
<path d="M95.8451 71.2244C95.8081 71.2244 95.7711 71.2244 95.7342 71.1874L92.8512 69.8198C92.8142 69.8198 92.8142 69.7829 92.7773 69.7829L89.8943 69.3393C89.8573 69.3393 89.8204 69.3393 89.8204 69.3024C87.0483 67.9348 84.2393 62.021 83.7218 60.8752C83.6848 60.7644 83.537 60.6904 83.4261 60.7274C82.2064 60.9122 81.5781 61.6145 81.3193 62.3537C82.1694 64.0169 83.2043 65.7171 84.2392 67.0477C85.0154 67.3804 85.7546 68.1566 86.4569 69.0436L89.229 69.4502C89.3029 69.4502 89.4138 69.4872 89.4877 69.5242L92.2968 70.8547C92.7403 70.8917 93.1099 71.2613 93.1099 71.7418V72.1114C93.1099 72.2223 93.073 72.3332 93.036 72.444C94.8101 72.3701 95.6602 72.2223 95.9929 72.1114C96.1038 72.0745 96.2147 71.9636 96.2147 71.8527V71.4831C96.1408 71.3722 96.0299 71.2244 95.8451 71.2244Z" fill="white"/>
<path d="M261.322 15.8195C261.322 22.4725 255.925 27.8319 249.309 27.8319C242.693 27.8319 237.297 22.4355 237.297 15.8195C237.297 9.20345 242.693 3.80713 249.309 3.80713C255.925 3.80713 261.322 9.16649 261.322 15.8195Z" fill="#99D7FF"/>
<path d="M250.937 13.8233L251.639 10.1272H250.974V8.39008C250.974 8.24224 250.863 8.13135 250.715 8.13135C250.567 8.13135 250.456 8.24224 250.456 8.39008V10.1272H248.276V8.39008C248.276 8.24224 248.165 8.13135 248.017 8.13135C247.869 8.13135 247.758 8.24224 247.758 8.39008V10.1272H247.019C247.019 10.1272 247.684 12.8624 247.684 13.8233C247.684 13.8233 245.43 15.8932 244.284 18.6653C243.138 21.4374 243.249 22.4723 243.249 22.4723C243.249 22.4723 244.801 22.731 246.095 22.4723C247.389 22.2135 247.241 23.3593 248.756 22.9527C250.309 22.5462 252.009 22.2135 252.563 22.731C253.118 23.2854 255.151 22.7679 255.151 22.7679C255.151 22.7679 254.855 16.3367 250.937 13.8233Z" fill="white"/>
<path d="M98.7669 110.144C98.7669 116.797 93.3706 122.157 86.7546 122.157C80.1016 122.157 74.7422 116.76 74.7422 110.144C74.7422 103.491 80.1385 98.1318 86.7546 98.1318C93.4076 98.1318 98.7669 103.491 98.7669 110.144Z" fill="#99D7FF"/>
<path d="M90.0448 109.182L87.4945 106.115C86.8662 105.375 85.7574 105.265 85.0182 105.893L76.8867 112.657L81.6917 118.423L89.8231 111.659C90.5623 111.031 90.6732 109.922 90.0448 109.182ZM86.7553 109.293C86.4227 108.887 86.4597 108.258 86.8662 107.889C87.2728 107.556 87.9012 107.593 88.2708 108C88.6034 108.406 88.5664 109.035 88.1599 109.404C87.7533 109.774 87.1249 109.7 86.7553 109.293Z" fill="white"/>
<path d="M87.8996 108.074C87.9366 108.074 91.7805 107.335 93.222 106.115C94.4787 105.08 94.5526 102.973 92.2241 103.232C90.413 103.417 88.8975 106.189 88.3062 107.335C88.1214 107.741 87.53 107.445 87.7148 107.039C88.491 105.45 90.0804 102.788 92.1502 102.567C95.0701 102.271 95.4767 105.08 93.6286 106.595C92.0763 107.889 88.1583 108.665 88.0105 108.702C87.6039 108.813 87.4931 108.185 87.8996 108.074Z" fill="white"/>
<path d="M263.099 67.2316C263.099 73.8846 257.703 79.244 251.087 79.244C244.471 79.244 239.074 73.8476 239.074 67.2316C239.074 60.5786 244.471 55.2192 251.087 55.2192C257.703 55.2192 263.099 60.5786 263.099 67.2316Z" fill="#99D7FF"/>
<path d="M243.849 64.6073V68.9688C243.849 69.1166 243.959 69.2275 244.107 69.2275H251.241C251.647 68.5622 252.498 67.5273 254.198 65.7531C254.678 65.2726 255.122 64.7922 255.565 64.3486H244.07C243.96 64.3486 243.849 64.4595 243.849 64.6073Z" fill="white"/>
<path d="M252.61 69.2275H257.785C257.933 69.2275 258.044 69.1166 258.044 68.9688V64.6073C258.044 64.4595 257.933 64.3486 257.785 64.3486H257.23C255.567 65.9749 253.571 67.9708 252.61 69.2275Z" fill="white"/>
<path d="M257.19 64.3486C257.006 64.5334 256.858 64.6812 256.673 64.8661H258.04V64.3486H257.19Z" fill="#99D7FF"/>
<path d="M243.849 64.8661H250.169V67.1577L251.056 66.0858L251.758 67.1577V64.8661H255.085C255.27 64.6812 255.417 64.5334 255.602 64.3486H243.849V64.8661Z" fill="#99D7FF"/>
<path d="M255.558 64.3488C256.667 63.2399 257.628 62.3529 257.998 61.9463H244.174C244.174 61.9833 244.174 62.0571 244.137 62.0941C243.989 62.6485 243.768 63.4247 243.509 64.3118C243.546 64.3118 243.546 64.3118 243.583 64.3118H255.558V64.3488Z" fill="white"/>
<path d="M258.48 64.3491C258.628 64.3491 258.739 64.2381 258.739 64.0903V62.8706C258.296 63.2772 257.778 63.7946 257.224 64.3491H258.48Z" fill="white"/>
<path d="M251.383 73.4044C249.572 73.4044 241.145 73.2565 241.145 71.4085C241.145 69.4495 243.251 62.1682 243.325 61.8725C243.362 61.7246 243.547 61.6138 243.695 61.6507C243.843 61.6877 243.954 61.8725 243.917 62.0203C243.88 62.0943 241.736 69.5235 241.736 71.3715C241.736 71.4085 241.81 71.5193 242.179 71.7041C245.136 73.0717 257.999 73.1087 259.514 71.7781C259.514 71.7781 259.588 71.7041 259.588 71.6672C259.292 70.5953 256.299 70.7062 254.303 70.7431C252.455 70.7801 251.087 70.8541 251.124 70.0779C251.161 68.7473 257.37 62.8335 258.331 61.9464C258.627 61.6507 259.034 62.1312 258.738 62.3899C257.814 63.24 252.011 68.8212 251.715 70.0409C252.824 70.5214 259.514 69.1538 260.143 71.4824C260.18 71.6302 260.216 71.9259 259.884 72.2216C258.701 73.3304 252.972 73.4044 251.383 73.4044Z" fill="white"/>
<path d="M242.953 185.507C242.953 192.16 248.349 197.519 254.965 197.519C261.618 197.519 266.978 192.123 266.978 185.507C266.978 178.891 261.582 173.495 254.965 173.495C248.312 173.495 242.953 178.854 242.953 185.507Z" fill="#99D7FF"/>
<path d="M255.704 180.555C250.936 180.555 247.055 182.218 247.055 184.288C247.055 185.323 248.016 186.247 249.605 186.912L248.792 190.497L251.749 187.614C252.931 187.873 254.299 188.021 255.741 188.021C260.509 188.021 264.39 186.358 264.39 184.288C264.39 182.218 260.472 180.555 255.704 180.555Z" fill="white"/>
<path d="M259.102 185.212C259.102 185.619 259.434 185.914 259.804 185.914C260.173 185.914 260.506 185.582 260.506 185.212C260.506 184.842 260.173 184.51 259.804 184.51C259.434 184.51 259.102 184.805 259.102 185.212Z" fill="#99D7FF"/>
<path d="M257.223 185.212C257.223 185.619 257.555 185.914 257.925 185.914C258.295 185.914 258.627 185.582 258.627 185.212C258.627 184.842 258.295 184.51 257.925 184.51C257.555 184.51 257.223 184.805 257.223 185.212Z" fill="#99D7FF"/>
<path d="M255.332 185.212C255.332 185.619 255.665 185.914 256.034 185.914C256.404 185.914 256.736 185.582 256.736 185.212C256.736 184.842 256.404 184.51 256.034 184.51C255.665 184.51 255.332 184.805 255.332 185.212Z" fill="#99D7FF"/>
<path d="M200.596 45.7212H137.614C129.076 45.7212 122.164 52.6329 122.164 61.1709V193.566C122.164 202.104 129.076 209.015 137.614 209.015H200.596C209.134 209.015 216.045 202.104 216.045 193.566V61.1709C216.045 52.6329 209.134 45.7212 200.596 45.7212Z" fill="#331579"/>
<path d="M137.652 204.802C131.443 204.802 126.379 199.849 126.379 193.751V63.7584C126.379 57.6598 131.443 52.707 137.652 52.707H200.634C206.843 52.707 211.907 57.6598 211.907 63.7584V193.751C211.907 199.849 206.843 204.802 200.634 204.802H137.652Z" fill="#2BADFF"/>
<path d="M198.672 51.6347H138.869C137.539 51.6347 136.43 50.5259 136.43 49.1953C136.43 47.8647 137.539 46.7559 138.869 46.7559H198.672C200.003 46.7559 201.112 47.8647 201.112 49.1953C201.112 50.5628 200.003 51.6347 198.672 51.6347Z" fill="#190B3D"/>
<path d="M199.371 49.2322C199.371 50.3411 198.484 51.2281 197.375 51.2281C196.266 51.2281 195.379 50.3411 195.379 49.2322C195.379 48.1234 196.266 47.2363 197.375 47.2363C198.484 47.2363 199.371 48.1604 199.371 49.2322Z" fill="#331579"/>
<path d="M188.987 50.0825H153.874C153.393 50.0825 153.023 49.7129 153.023 49.2324C153.023 48.752 153.393 48.3823 153.874 48.3823H188.987C189.467 48.3823 189.837 48.752 189.837 49.2324C189.837 49.7129 189.43 50.0825 188.987 50.0825Z" fill="#0E061E"/>
<path d="M205.288 66.6406H133.066V172.793H205.288V66.6406Z" fill="white"/>
<path d="M201.073 71.1499H165.184V114.542H201.073V71.1499Z" fill="#FFF7CF"/>
<path d="M201.073 120.9H165.184V164.292H201.073V120.9Z" fill="#FFF7CF"/>
<path d="M161.006 74.1436H138.164V78.5049H161.006V74.1436Z" fill="#FFF7CF"/>
<path d="M161.006 83.0146H138.164V87.376H161.006V83.0146Z" fill="#FFF7CF"/>
<path d="M161.006 91.9224H138.164V96.2837H161.006V91.9224Z" fill="#FFF7CF"/>
<path d="M161.006 122.045H138.164V126.407H161.006V122.045Z" fill="#FFF7CF"/>
<path d="M161.006 130.953H138.164V135.315H161.006V130.953Z" fill="#FFF7CF"/>
<path d="M161.006 139.824H138.164V144.186H161.006V139.824Z" fill="#FFF7CF"/>
<path d="M163.599 178.781C163.599 179.484 163.008 180.075 162.305 180.075C161.603 180.075 161.012 179.484 161.012 178.781C161.012 178.079 161.603 177.488 162.305 177.488C163.008 177.488 163.599 178.079 163.599 178.781Z" fill="#331579"/>
<path d="M168.365 178.781C168.365 179.484 167.773 180.075 167.071 180.075C166.369 180.075 165.777 179.484 165.777 178.781C165.777 178.079 166.369 177.488 167.071 177.488C167.773 177.488 168.365 178.079 168.365 178.781Z" fill="#331579"/>
<path d="M173.169 178.781C173.169 179.484 172.578 180.075 171.876 180.075C171.173 180.075 170.582 179.484 170.582 178.781C170.582 178.079 171.173 177.488 171.876 177.488C172.615 177.488 173.169 178.079 173.169 178.781Z" fill="#331579"/>
<path d="M197.895 64.1271C197.895 64.7924 198.412 65.3099 199.077 65.3099C199.743 65.3099 200.26 64.7924 200.26 64.1271C200.26 63.4618 199.743 62.9443 199.077 62.9443C198.412 62.9443 197.895 63.4618 197.895 64.1271Z" fill="#331579"/>
<path d="M199.081 64.7557C199.428 64.7557 199.71 64.4744 199.71 64.1273C199.71 63.7803 199.428 63.499 199.081 63.499C198.734 63.499 198.453 63.7803 198.453 64.1273C198.453 64.4744 198.734 64.7557 199.081 64.7557Z" fill="#270F5B"/>
<path d="M192.762 64.1271C192.762 64.7924 193.279 65.3099 193.944 65.3099C194.61 65.3099 195.127 64.7924 195.127 64.1271C195.127 63.4618 194.61 62.9443 193.944 62.9443C193.279 62.9443 192.762 63.4618 192.762 64.1271Z" fill="#331579"/>
<path d="M193.316 64.1278C193.316 64.4974 193.612 64.7562 193.945 64.7562C194.277 64.7562 194.573 64.4605 194.573 64.1278C194.573 63.7582 194.277 63.4995 193.945 63.4995C193.612 63.4995 193.316 63.7582 193.316 64.1278Z" fill="#270F5B"/>
<path d="M193.203 60.9858L190.985 57.1788C190.874 56.994 190.874 56.7723 191.022 56.6244C191.133 56.4396 191.355 56.3287 191.577 56.3287H200.336C200.447 56.3287 200.558 56.4026 200.558 56.5135C200.558 56.6244 200.447 56.6983 200.336 56.6983H191.577C191.466 56.6983 191.429 56.7723 191.392 56.7723C191.355 56.8092 191.318 56.8832 191.392 56.9571L193.61 60.7641C193.647 60.838 193.72 60.875 193.794 60.875H199.523L200.965 55.7743C201.15 55.1829 201.704 54.7764 202.295 54.7764H203.922C204.033 54.7764 204.143 54.8872 204.143 54.9981C204.143 55.109 204.033 55.2199 203.922 55.2199H202.295C201.889 55.2199 201.482 55.5156 201.371 55.9222L199.486 62.5752H193.277C193.166 62.5752 193.055 62.4643 193.055 62.3534C193.055 62.2425 193.166 62.1316 193.277 62.1316H199.154L199.412 61.2815H193.794C193.536 61.3185 193.314 61.1706 193.203 60.9858Z" fill="#331579"/>
<path d="M181.963 64.0906C184.331 64.0906 186.251 62.171 186.251 59.8031C186.251 57.4352 184.331 55.5156 181.963 55.5156C179.595 55.5156 177.676 57.4352 177.676 59.8031C177.676 62.171 179.595 64.0906 181.963 64.0906Z" fill="#FD5E5A"/>
<path d="M181.045 58.6203H180.601C180.934 57.1418 182.523 57.2157 183.04 58.0659C183.336 58.5463 183.262 59.1747 182.634 59.5443C183.373 59.84 183.706 60.6901 183.262 61.4663C182.671 62.4642 180.749 62.5751 180.453 60.8749H180.897C181.377 62.649 183.669 61.5032 182.893 60.2835C182.634 59.8769 182.227 59.803 181.71 59.803V59.3964C182.227 59.3964 182.745 59.1377 182.745 58.6572C182.745 58.0289 181.895 57.7332 181.414 58.1028C181.266 58.1767 181.155 58.3615 181.045 58.6203Z" fill="white"/>
<path d="M205.288 183.068H151.066V185.508H205.288V183.068Z" fill="#8D75BB"/>
<path d="M205.288 188.502H151.066V190.941H205.288V188.502Z" fill="#8D75BB"/>
<path d="M172.875 108.592L170.546 109.738L171.692 112.066L169.068 111.77L169.105 114.395L166.739 113.249L166.111 115.799L164.041 114.173L162.932 116.575L161.158 114.616L159.717 116.834L158.238 114.616L156.501 116.575L155.392 114.173L153.322 115.799L152.694 113.249L150.292 114.395L150.366 111.77L147.741 112.066L148.887 109.738L146.559 108.592L148.887 107.446L147.741 105.08L150.366 105.376L150.292 102.752L152.694 103.898L153.322 101.347L155.392 102.974L156.464 100.571L158.238 102.53L159.717 100.312L161.158 102.53L162.932 100.571L164.041 102.974L166.111 101.347L166.739 103.898L169.105 102.752L169.068 105.376L171.692 105.08L170.546 107.446L172.875 108.592Z" fill="#ED0009"/>
<path d="M155.241 106.633L154.613 107.187C154.021 106.374 153.356 106.855 153.652 107.224C154.132 107.853 155.278 108.296 155.278 109.257C155.278 110.588 153.319 111.068 152.543 109.553L153.245 109.146C153.763 110.07 154.465 109.701 154.465 109.294C154.465 108.703 152.765 108.075 152.765 107.04C152.802 106.079 154.132 105.339 155.241 106.633Z" fill="white"/>
<path d="M157.46 106.042H158.31L159.974 110.366H159.123L158.791 109.479H157.017L156.647 110.366H155.797L157.46 106.042ZM157.867 107.187L157.275 108.666H158.421L157.867 107.187Z" fill="white"/>
<path d="M160.602 106.042H161.415V109.59H162.634V110.366H160.602V106.042Z" fill="white"/>
<path d="M163.262 106.042H165.627V106.855H164.075V107.631H165.627V108.407H164.075V109.553H165.627V110.366H163.262V106.042Z" fill="white"/>
<path d="M53.0457 125.003C53.0457 125.003 50.0148 125.261 49.6452 128.995C49.2756 132.728 46.06 132.839 45.136 131.064C44.175 129.253 45.9121 128.514 45.9121 128.514C45.9121 128.514 42.6965 129.179 42.9922 131.582C43.3249 133.984 46.2818 134.797 46.2818 134.797C46.2818 134.797 42.5487 133.319 42.0682 136.83C41.5507 140.379 45.0251 141.155 45.0251 141.155C45.0251 141.155 43.8054 139.122 45.1729 138.383C46.5405 137.643 47.8341 142.005 47.8341 142.005C47.8341 142.005 47.6863 144.223 50.5323 141.746C53.4153 139.27 56.5939 142.929 56.2613 143.927C55.9656 144.925 60.29 142.411 60.0313 140.416C59.7725 138.42 62.212 138.752 61.8054 140.083C61.8054 140.083 65.058 137.644 62.6925 135.869C60.327 134.095 60.6227 134.613 61.0662 133.134C61.5097 131.656 60.4009 127.479 58.8485 126.001C57.3701 124.522 53.0457 125.003 53.0457 125.003Z" fill="#000A40"/>
<path d="M13.5728 158.86C3.00193 171.02 31.7577 243.168 31.7577 243.168H115.327C115.327 243.168 128.226 210.346 124.419 201.106C120.206 190.794 94.4068 199.332 94.4068 199.332C94.4068 199.332 91.7456 165.18 86.2753 160.153C69.6059 144.814 27.5072 142.855 13.5728 158.86Z" fill="#0086AC"/>
<path d="M23.2202 152.059C26.8424 150.432 55.2655 143.558 63.3231 169.024C64.9863 174.235 66.0582 179.853 66.8344 185.176C67.7584 191.237 68.4607 197.336 68.9412 203.435C68.9412 203.508 68.9411 203.619 68.9781 203.693C68.9781 203.693 94.777 195.155 98.9906 205.467C101.911 212.638 94.814 234.001 91.4875 243.205H31.7582C31.7582 243.205 2.96554 171.057 13.5734 158.896C16.0128 156.05 19.3393 153.796 23.2202 152.059Z" fill="#005971"/>
<path d="M94.4063 199.332C94.4063 199.332 120.205 190.794 124.419 201.106C127.191 207.944 120.907 227.607 117.433 237.439L114.55 243.205H79.585L94.4063 199.332Z" fill="#00145D"/>
<path d="M114.882 243.167H66.2412L69.8264 216.223H123.716L114.882 243.167Z" fill="#00627D"/>
<path d="M118.096 243.204L110.629 243.167C110.629 243.167 129.406 210.013 124.009 200.773C122.42 198.112 99.0236 199.923 94.4404 199.295C103.015 192.716 137.094 185.767 139.015 196.818C140.864 207.389 118.096 243.204 118.096 243.204Z" fill="#0086AC"/>
<path d="M74.0426 161.853C73.9317 161.742 73.3403 159.34 73.2294 159.118C71.4553 159.82 70.5313 160.744 68.8311 161.521C69.3485 162.666 68.868 165.254 69.3485 165.734C72.5641 168.95 84.7243 170.872 88.4205 168.654C88.9749 168.322 89.3445 166.178 89.3445 166.178C89.3445 166.178 75.2993 163.11 74.0426 161.853Z" fill="#FD5E5A"/>
<path d="M71.2679 146.551C69.4937 140.046 62.3232 137.865 62.3232 137.865C62.3232 137.865 64.2452 156.161 67.276 163.036C69.0132 162.26 72.8941 160.005 74.6683 159.303C73.6334 157.233 72.4876 151.06 71.2679 146.551Z" fill="#80003B"/>
<path d="M65.8708 193.085C65.8708 193.085 100.023 175.011 106.528 175.011C113.033 175.011 113.809 178.966 113.809 181.516C113.809 184.066 100.725 202.14 89.8216 208.313C78.955 214.485 64.5771 193.048 64.5771 193.048H65.8708V193.085Z" fill="#B73000"/>
<path d="M53.3449 188.317C50.4989 191.348 48.6509 196.485 48.7248 198.001C48.7248 198.001 66.3183 197.151 67.9076 195.487C68.4251 194.933 68.6469 194.379 69.3122 189.389C63.1766 189.648 59.5914 187.8 53.3449 188.317Z" fill="#B73000"/>
<path d="M49.5732 136.867C49.5732 136.867 43.5485 137.644 41.5156 139.048C41.5156 139.048 47.9469 151.504 49.758 158.6C51.1995 164.366 49.758 184.325 48.4274 193.085C54.6738 192.605 64.0619 190.239 70.1975 189.98C71.602 179.262 69.3474 158.009 69.0517 151.837C68.5712 142.855 67.5732 136.683 49.5732 136.867Z" fill="#CD3179"/>
<path d="M120.353 193.085C118.578 189.981 49.3872 187.319 48.574 199.295C47.7609 211.27 59.7363 216.925 81.1737 214.264C102.574 211.64 127.042 204.765 120.353 193.085Z" fill="#FB9900"/>
<path d="M119.281 192.494C118.874 192.346 118.505 192.235 118.098 192.161C117.285 191.976 116.509 191.829 115.696 191.681C101.318 189.278 65.5026 188.613 52.4184 194.859C51.6791 195.229 50.9769 195.672 50.3116 196.19C49.6463 196.707 49.0549 197.336 48.7222 198.112C48.6483 198.297 48.5744 198.518 48.5005 198.703C48.4635 198.925 48.4266 199.11 48.4266 199.332C48.4266 199.738 48.3896 200.145 48.4266 200.551C48.4635 201.364 48.5744 202.178 48.7222 202.991C48.6114 202.178 48.5374 201.364 48.5744 200.551C48.6114 199.738 48.5744 198.888 48.944 198.223C49.3136 197.521 49.868 196.966 50.5333 196.486C51.1987 196.042 51.9009 195.635 52.6401 195.303C64.6894 189.98 102.575 190.387 115.659 191.902C116.472 192.013 117.285 192.124 118.061 192.272C118.468 192.346 118.874 192.42 119.244 192.531C119.614 192.642 120.057 192.753 120.316 193.048C120.094 192.789 119.651 192.642 119.281 192.494Z" fill="#FFF7CF"/>
<path d="M72.7099 213.303C72.7099 213.303 69.1986 216.481 71.4902 217.849C73.7818 219.217 79.0303 217.295 83.2069 219.29C87.4204 221.286 92.2624 221.434 92.7429 220.584C93.2603 219.734 91.4862 215.114 86.7922 213.377C82.0981 211.64 72.7099 213.303 72.7099 213.303Z" fill="#FC7575"/>
<path d="M88.0893 213.303C88.0893 213.303 86.2412 212.859 86.2412 213.451C86.2412 214.042 87.4609 214.19 87.4609 214.19C87.4609 214.19 87.35 215.114 88.2371 215.41C89.0872 215.742 89.235 215.816 89.235 215.816C89.235 215.816 88.9024 216.481 89.9003 216.962C90.8983 217.442 90.8983 217.442 90.8983 217.442C90.8983 217.442 90.7135 218.514 91.4527 218.736C91.4527 218.736 90.233 220.141 91.9332 220.769C93.5964 221.397 93.966 220.141 93.966 219.771C93.966 219.401 92.7463 218.847 92.7463 218.847C92.7463 218.847 93.2638 217.405 91.9332 217.258C91.9332 217.258 92.1919 215.41 90.3438 215.557C90.3438 215.557 90.8244 214.485 88.9024 213.968C88.9024 214.005 88.7176 213.303 88.0893 213.303Z" fill="#E80000"/>
<path d="M82.5423 201.106C76.5176 190.794 39.7043 199.332 39.7043 199.332C38.7063 190.313 35.3798 168.839 29.6878 161.668C24.772 155.496 12.7227 152.539 10.6528 165.808C6.91977 189.722 35.5647 251.854 31.7946 243.168H69.5319C69.5319 243.168 87.9386 210.346 82.5423 201.106Z" fill="#007697"/>
<path d="M69.5326 243.168H55.2656C55.2656 243.168 74.5593 210.494 70.124 200.737C67.5367 195.008 63.0274 197.003 58.4812 196.375C68.5347 195.488 81.9146 194.564 84.9454 199.813C90.3048 209.09 69.5326 243.168 69.5326 243.168Z" fill="#0086AC"/>
<path d="M29.6533 161.668C35.3453 168.839 38.6718 190.313 39.6698 199.332C39.7437 199.332 61.4769 194.527 73.3044 195.746C89.1977 197.964 60.8485 242.28 60.6267 243.167H55.2674C55.6 242.133 73.9697 201.438 68.5734 199.147C63.6206 197.04 38.7827 202.252 36.4911 202.51C35.4932 193.492 32.1667 172.017 26.4746 164.847C23.2221 160.781 16.9017 158.12 12.3555 160.559C16.4212 153.574 25.5506 156.494 29.6533 161.668Z" fill="#0086AC"/>
<path d="M62.585 196.042C64.0264 195.931 64.47 195.894 62.585 196.042V196.042Z" fill="#0086AC"/>
<path d="M31.0928 162.999C31.2037 163.368 36.9326 170.687 40.4439 198.223C49.6103 196.19 75.631 192.124 83.4667 197.188C85.6844 198.629 85.8691 199.997 86.0909 200.366C89.6022 209.496 74.9656 234.74 69.4954 243.167C73.8198 235.332 88.3086 208.35 84.2428 200.403C80.325 192.789 47.3557 198.74 38.8546 200.403C37.3762 188.465 36.4521 180.999 32.9778 169.578C32.9408 169.504 32.0537 167.064 32.1277 167.212C30.0578 162.296 27.9511 158.97 22.8504 157.196C20.7436 156.457 18.4151 156.235 16.2344 157.011C20.2631 155.237 26.8792 156.826 31.0928 162.999Z" fill="#A6A8FE"/>
<path d="M66.022 114.95C66.2068 115.43 67.2417 125.04 65.5784 127.554C63.8782 130.067 61.0692 128.736 58.5928 127.997C56.1164 127.221 54.4531 126.223 54.4531 126.223C54.4531 126.223 64.6544 111.549 66.022 114.95Z" fill="#000F60"/>
<path d="M61.1411 128.92C61.3259 129.253 57.8885 136.645 58.2951 139.084C58.2951 139.084 61.5477 149.101 59.5518 148.731C57.8146 148.436 50.792 139.343 50.9398 137.717C51.1246 135.536 54.7099 125.446 54.7099 125.446L61.1411 128.92Z" fill="#FC7575"/>
<path d="M60.1437 131.766C56.8912 133.282 53.7864 131.138 54.23 126.888C54.7104 125.446 54.6735 125.631 54.7105 125.52L61.1417 128.957C61.2156 129.068 60.7721 130.066 60.1437 131.766Z" fill="#FD5E5A"/>
<path d="M65.6518 111.401C65.6518 111.401 68.6827 112.99 68.2022 115.873C67.7586 118.756 67.5738 121.196 66.0584 124.226C64.543 127.257 61.3274 130.953 57.9639 130.695C54.6374 130.436 52.9372 124.226 53.7873 121.38C54.6374 118.571 54.97 113.471 58.0009 111.216C61.0317 108.961 65.6518 111.401 65.6518 111.401Z" fill="#FC7575"/>
<path d="M57.4834 125.076C58.9618 126.333 61.4382 127.109 61.4382 127.109C61.4382 127.109 61.1425 127.405 60.736 127.663C60.0337 127.405 58.6292 126.813 57.5573 126.037C57.4834 125.52 57.4834 125.076 57.4834 125.076Z" fill="white"/>
<path d="M57.5957 126.074C58.6306 126.85 60.0351 127.441 60.7744 127.7C59.1111 128.735 57.9653 127.996 57.5957 126.074Z" fill="#2E0028"/>
<path d="M65.6508 111.401C65.6508 111.401 68.6817 112.99 68.2012 115.873C67.7946 118.461 67.6098 120.715 66.464 123.413C66.0574 122.896 65.503 122.231 64.542 121.676C61.696 120.087 60.735 114.839 61.0307 111.29C61.0677 111.216 61.2894 110.071 62.0286 109.701C64.542 109.479 65.6508 111.401 65.6508 111.401Z" fill="#FD5E5A"/>
<path d="M61.6956 124.338C61.8804 123.451 62.1022 122.527 62.3609 121.64C62.2131 122.822 61.9913 123.636 61.8434 124.486C61.326 124.486 60.6977 124.56 60.0693 124.079C60.5868 124.375 61.1781 124.375 61.6956 124.338Z" fill="#172866"/>
<path d="M60.8069 121.085C60.8069 120.531 60.5112 119.902 59.9938 119.57C59.0328 118.978 57.9239 120.272 57.2217 120.05C57.6652 120.457 58.7371 119.829 59.4024 119.792C59.735 119.755 59.9938 119.939 60.2525 120.161C60.4743 120.42 60.6591 120.753 60.8069 121.085Z" fill="#172866"/>
<path d="M59.0319 120.05C58.921 120.383 59.0689 120.678 59.3646 120.789C59.6603 120.863 59.956 120.678 60.0669 120.383C60.1777 120.05 60.0299 119.754 59.7342 119.644C59.4385 119.533 59.1428 119.717 59.0319 120.05Z" fill="#172866"/>
<path d="M63.0264 122.12C63.359 121.677 63.9504 121.344 64.5787 121.418C65.7245 121.529 65.7985 123.229 66.5377 123.451C65.9463 123.525 65.4288 122.379 64.9483 121.935C64.6896 121.714 64.3939 121.677 64.0243 121.714C63.6916 121.788 63.359 121.935 63.0264 122.12Z" fill="#172866"/>
<path d="M65.0587 122.342C64.9478 122.638 64.6152 122.822 64.3564 122.749C64.0607 122.638 63.9498 122.305 64.0607 122.009C64.1716 121.714 64.5043 121.529 64.763 121.603C65.0587 121.714 65.1696 122.046 65.0587 122.342Z" fill="#172866"/>
<path d="M61.9178 118.756C62.0657 118.719 61.4373 117.537 60.3654 117.093C59.2936 116.649 57.7412 117.5 57.7412 117.5C57.7412 117.5 59.6632 117.019 60.2546 117.537C60.846 118.054 61.1786 118.978 61.9178 118.756Z" fill="#172866"/>
<path d="M63.5047 108.186C61.1022 107.742 57.5539 106.042 54.6709 109.331C52.9707 111.179 51.825 109.146 49.5334 116.576C46.133 127.627 54.2274 126.814 54.2274 126.814C54.2274 126.814 53.71 126.112 55.0776 119.976C55.0776 120.013 55.1145 120.05 55.1145 120.05C55.1145 120.05 55.3363 119.163 55.7059 118.017C55.8168 117.685 55.9276 117.352 56.0385 117.019C56.4081 115.947 56.8147 114.802 57.1843 114.099C58.1083 112.325 59.0694 111.586 60.9913 111.29C62.9133 110.995 68.2357 115.134 68.2357 115.134C69.1227 111.549 65.9441 108.629 63.5047 108.186Z" fill="#1B2B80"/>
<path d="M66.4635 109.775C69.1987 111.327 68.7182 116.132 70.3814 119.274C72.0447 122.416 70.3814 125.705 68.5334 127.627C66.6853 129.549 65.3178 127.516 65.3178 127.516C65.3178 127.516 66.1309 128.329 67.3137 126.629C68.4964 124.892 67.905 123.081 64.9851 121.011C62.0652 118.941 61.0303 111.253 61.0303 111.253C61.326 109.923 63.7284 108.222 66.4635 109.775Z" fill="#2846A6"/>
<path d="M65.2808 127.516C66.2048 128.514 68.6073 126.259 68.0159 124.116C67.6094 122.489 65.9461 121.344 64.6894 120.272C62.7675 118.239 61.6956 113.878 61.0303 111.216C61.1781 114.21 62.1391 118.535 64.172 120.789L64.6894 121.233C65.2439 121.676 66.9441 122.748 67.4985 124.264C67.942 125.446 67.1289 126.851 66.4266 127.405C66.0939 127.664 65.6504 127.812 65.2808 127.516Z" fill="#023135"/>
<path d="M55.6337 120.568C55.6337 120.568 55.8924 116.761 54.2662 117.204C52.6399 117.648 52.8986 122.009 54.1553 122.416C55.4489 122.786 55.6337 120.568 55.6337 120.568Z" fill="#FC7575"/>
<path d="M54.9321 118.202C54.9321 118.202 55.967 122.046 54.6734 121.27C53.4167 120.494 53.8233 117.204 54.9321 118.202Z" fill="#FD5E5A"/>
<path d="M59.0691 122.822C58.8104 123.192 57.9972 123.081 57.258 122.564C56.5188 122.046 56.1492 121.307 56.4449 120.937C56.7036 120.568 57.5167 120.679 58.256 121.196C58.9582 121.714 59.3278 122.453 59.0691 122.822Z" fill="#FD5E5A"/>
<path d="M65.6512 124.596C65.5773 125.003 64.949 125.261 64.2097 125.151C63.4705 125.04 62.9161 124.596 62.99 124.19C63.0639 123.783 63.6923 123.524 64.4315 123.635C65.1707 123.746 65.6882 124.19 65.6512 124.596Z" fill="#FD5E5A"/>
<path d="M83.7232 153.093C82.984 152.835 80.9881 152.835 79.214 152.908C78.9183 152.761 78.5857 152.65 78.29 152.539C79.8054 152.169 81.5795 151.689 81.9861 151.245C82.6144 150.617 78.1052 151.8 76.4419 152.28C74.2982 152.539 73.1893 156.087 71.7109 157.566C70.1955 159.081 58.8853 164.958 56.2981 165.512C54.2282 165.956 52.8977 161.077 52.3063 158.859C49.0907 161.04 47.8709 164.219 45.3945 167.139C46.4664 170.576 48.1666 174.42 49.682 175.27C55.1892 178.412 68.7909 164.699 71.563 161.89C74.3351 159.118 76.9593 155.459 76.9593 155.459C76.9593 155.459 79.2509 154.535 80.2119 154.535C81.062 154.535 81.136 154.239 80.7664 153.869C82.7992 153.611 84.3885 153.315 83.7232 153.093Z" fill="#FC7575"/>
<path d="M53.1954 161.816C52.8258 160.744 52.5302 159.635 52.3454 158.896C49.1297 161.077 47.91 164.255 45.4336 167.175C45.7293 168.136 46.062 169.134 46.4316 170.058C48.0209 167.878 51.1256 163.812 53.1954 161.816Z" fill="#FD5E5A"/>
<path d="M50.8672 174.087C50.8672 174.087 51.052 175.528 51.4586 175.528C51.8651 175.528 54.1197 174.937 54.1197 174.308C54.1197 173.68 50.8672 173.458 50.8672 174.087Z" fill="#FD5E5A"/>
<path d="M103.572 147.401L85.1658 145.184L73.6709 167.139H88.5662L103.572 147.401Z" fill="#603E6B"/>
<path d="M88.6772 161.816C88.6772 159.894 89.2685 158.268 88.1227 159.414C86.9769 160.559 87.8271 163.294 86.94 163.812C86.0529 164.329 83.6875 156.604 82.3569 156.604C81.322 156.604 82.9852 159.672 83.4657 161.668C82.4677 160.153 80.8783 157.898 80.0652 157.639C79.1042 157.344 81.5067 161.114 82.6525 162.925C81.3588 161.964 79.1412 158.711 78.4759 159.081C77.6258 159.561 80.2501 162.592 81.6915 164.034C83.133 165.475 78.0693 161.705 78.0693 163.073C78.0693 164.44 81.1002 165.143 82.1721 166.214C82.9482 166.991 84.9441 168.062 85.979 168.58C88.6771 169.947 89.823 167.323 89.0099 164.292C88.862 163.516 88.6772 162.629 88.6772 161.816Z" fill="#FC7575"/>
<path d="M84.5008 144.186L72.7842 166.732L73.6713 167.138L85.1662 145.183L103.573 147.401L102.464 146.551L84.5008 144.186Z" fill="#907897"/>
<path d="M42.8073 137.865C42.8073 137.865 38.8894 138.161 37.7806 141.45C36.6718 144.74 43.5835 168.95 43.5835 168.95L53.563 159.783C53.563 159.82 49.3864 137.865 42.8073 137.865Z" fill="#FF0076"/>
<path d="M86.7541 51.1172C78.0312 51.1172 70.9717 58.1767 70.9717 66.8996C70.9717 75.6224 78.0312 82.682 86.7541 82.682C95.4769 82.682 102.536 75.6224 102.536 66.8996C102.536 58.1767 95.4769 51.1172 86.7541 51.1172ZM86.7541 80.6122C79.214 80.6122 73.0414 74.4766 73.0414 66.8996C73.0414 59.3225 79.177 53.187 86.7541 53.187C94.3311 53.187 100.467 59.3225 100.467 66.8996C100.467 74.4766 94.2941 80.6122 86.7541 80.6122Z" fill="#7FCDFF"/>
<path d="M251.079 51.4131C242.357 51.4131 235.297 58.4727 235.297 67.1955C235.297 75.9183 242.357 82.9779 251.079 82.9779C259.802 82.9779 266.862 75.9183 266.862 67.1955C266.862 58.5096 259.802 51.4131 251.079 51.4131ZM251.079 80.9081C243.539 80.9081 237.367 74.7725 237.367 67.1955C237.367 59.6554 243.502 53.4829 251.079 53.4829C258.656 53.4829 264.792 59.6185 264.792 67.1955C264.755 74.7725 258.619 80.9081 251.079 80.9081Z" fill="#7FCDFF"/>
<path d="M249.267 0C240.544 0 233.484 7.05958 233.484 15.7824C233.484 24.5052 240.544 31.5648 249.267 31.5648C257.99 31.5648 265.049 24.5052 265.049 15.7824C265.049 7.09654 257.99 0 249.267 0ZM249.267 29.495C241.727 29.495 235.554 23.3594 235.554 15.7824C235.554 8.24234 241.69 2.06981 249.267 2.06981C256.807 2.06981 262.979 8.20537 262.979 15.7824C262.979 23.3594 256.807 29.495 249.267 29.495Z" fill="#7FCDFF"/>
<path d="M253.411 107.667C244.688 107.667 237.629 114.727 237.629 123.45C237.629 132.173 244.688 139.232 253.411 139.232C262.134 139.232 269.194 132.173 269.194 123.45C269.194 114.764 262.097 107.667 253.411 107.667ZM253.411 137.162C245.871 137.162 239.699 131.027 239.699 123.45C239.699 115.91 245.834 109.737 253.411 109.737C260.988 109.737 267.124 115.873 267.124 123.45C267.087 131.027 260.951 137.162 253.411 137.162Z" fill="#7FCDFF"/>
<path d="M254.962 169.726C246.239 169.726 239.18 176.785 239.18 185.508C239.18 194.231 246.239 201.29 254.962 201.29C263.685 201.29 270.745 194.231 270.745 185.508C270.745 176.785 263.685 169.726 254.962 169.726ZM254.962 199.221C247.422 199.221 241.25 193.085 241.25 185.508C241.25 177.931 247.385 171.795 254.962 171.795C262.502 171.795 268.675 177.931 268.675 185.508C268.675 193.085 262.502 199.221 254.962 199.221Z" fill="#7FCDFF"/>
<path d="M86.7541 94.584C78.0312 94.584 70.9717 101.644 70.9717 110.366C70.9717 119.089 78.0312 126.149 86.7541 126.149C95.4769 126.149 102.536 119.089 102.536 110.366C102.536 101.644 95.4769 94.584 86.7541 94.584ZM86.7541 124.079C79.214 124.079 73.0414 117.943 73.0414 110.366C73.0414 102.789 79.177 96.6538 86.7541 96.6538C94.3311 96.6538 100.467 102.789 100.467 110.366C100.467 117.943 94.2941 124.079 86.7541 124.079Z" fill="#7FCDFF"/>
<path d="M140.34 83.3473C140.193 83.3473 140.082 83.3473 139.934 83.3104L101.31 72.7395C100.496 72.5177 100.016 71.6676 100.238 70.8175C100.459 69.9674 101.31 69.4869 102.123 69.7087L140.747 80.2796C141.56 80.5013 142.041 81.3514 141.819 82.2015C141.634 82.8668 141.006 83.3473 140.34 83.3473Z" fill="#7FCDFF"/>
<path d="M143.965 116.132L101.719 115.984C100.868 115.984 100.203 115.282 100.203 114.395C100.203 113.545 100.905 112.843 101.719 112.843L143.965 112.991C144.815 112.991 145.481 113.693 145.481 114.58C145.481 115.43 144.815 116.132 143.965 116.132Z" fill="#7FCDFF"/>
<path d="M197.344 74.1444C197.011 74.1444 196.678 74.0335 196.383 73.8487C195.68 73.3682 195.569 72.4072 196.087 71.7788L235.45 23.6554C235.968 23.0271 236.966 22.8793 237.668 23.3967C238.37 23.8772 238.481 24.8382 237.964 25.4665L198.563 73.5529C198.268 73.9226 197.787 74.1444 197.344 74.1444Z" fill="#7FCDFF"/>
<path d="M196.418 95.6557C195.826 95.6557 195.272 95.323 195.013 94.7686C194.644 93.9924 194.976 93.0684 195.753 92.6988L236.964 73.3312C237.74 72.9616 238.664 73.2942 239.034 74.0704C239.404 74.8466 239.071 75.7706 238.295 76.1402L197.083 95.5078C196.861 95.6187 196.64 95.6557 196.418 95.6557Z" fill="#7FCDFF"/>
<path d="M192.719 130.99C191.943 130.99 191.278 130.399 191.204 129.586C191.093 128.735 191.722 127.959 192.535 127.848L237.479 122.674C238.293 122.563 239.069 123.191 239.18 124.041C239.29 124.892 238.662 125.668 237.849 125.779L192.904 130.953C192.83 130.99 192.756 130.99 192.719 130.99Z" fill="#7FCDFF"/>
<path d="M240.812 180.038C240.553 180.075 240.258 180.075 239.999 179.964L189.88 161.373C189.067 161.077 188.66 160.153 188.956 159.34C189.251 158.527 190.175 158.12 190.989 158.416L241.108 177.007C241.921 177.303 242.328 178.227 242.032 179.04C241.81 179.557 241.33 179.927 240.812 180.038Z" fill="#7FCDFF"/>
<path d="M167.29 28.4233L144.152 14.415L138.497 20.2179L167.29 28.4233Z" fill="#0A4CFE"/>
<path d="M144.153 31.6758L144.486 20.8462L167.291 28.4232L144.153 31.6758Z" fill="#99D7FF"/>
<path d="M144.153 5.47021L167.291 28.4231L144.153 14.4148V5.47021Z" fill="#99D7FF"/>
<path d="M138.497 20.2173L144.485 20.8456L144.448 22.398L138.497 20.2173Z" fill="#0033BF"/>
</svg>
