<svg width="429" height="222" viewBox="0 0 429 222" fill="none" xmlns="http://www.w3.org/2000/svg">
<path d="M389.322 40.8837C389.322 40.8837 299.208 41.1659 221.634 36.8921C144.06 32.6182 36.5289 39.3919 42.8994 52.3343C49.2698 65.2768 83.9443 51.2054 134.908 93.8227C185.831 136.44 403.514 166.558 418.271 150.955C433.068 135.351 356.421 136.722 360.776 102.491C365.17 68.2604 424.077 55.1567 389.322 40.8837Z" fill="#CCEBFF"/>
<path d="M337.224 186.638H103.131C95.9137 186.638 90.0674 180.791 90.0674 173.574V23.3046C90.0674 16.0875 95.9137 10.2412 103.131 10.2412H337.183C344.401 10.2412 350.247 16.0875 350.247 23.3046V173.574C350.287 180.791 344.441 186.638 337.224 186.638Z" fill="#A0A2B3"/>
<path d="M95.9219 173.412V23.465C95.9219 19.5541 99.0668 16.4092 102.978 16.4092H337.353C341.264 16.4092 344.409 19.5541 344.409 23.465V173.412C344.409 177.323 341.264 180.468 337.353 180.468H103.018C99.1071 180.468 95.9219 177.323 95.9219 173.412Z" fill="#DBE1FF"/>
<path d="M337.555 16.4092H102.816C99.0264 16.4092 95.9219 19.675 95.9219 23.6666V40.1572H344.449V23.6666C344.449 19.675 341.345 16.4092 337.555 16.4092Z" fill="#C2CCFF"/>
<path d="M305.859 32.6184H112.327C109.142 32.6184 106.602 30.038 106.602 26.8931V26.5705C106.602 23.3853 109.182 20.8452 112.327 20.8452H305.819C309.004 20.8452 311.544 23.4256 311.544 26.5705V26.8931C311.584 30.038 309.004 32.6184 305.859 32.6184Z" fill="white"/>
<path d="M332.837 31.7724H322.798C320.096 31.7724 317.879 29.5952 317.879 26.8535V26.5713C317.879 23.8699 320.056 21.6523 322.798 21.6523H332.837C335.539 21.6523 337.756 23.8296 337.756 26.5713V26.8535C337.716 29.5549 335.539 31.7724 332.837 31.7724Z" fill="#29ABE2"/>
<path d="M317.598 161.196H121.607C115.962 161.196 111.406 156.64 111.406 150.995V62.5347C111.406 56.8901 115.962 52.334 121.607 52.334H317.598C323.243 52.334 327.799 56.8901 327.799 62.5347V150.995C327.799 156.599 323.243 161.196 317.598 161.196Z" fill="white"/>
<path d="M317.881 52.334H121.325C115.841 52.334 111.406 57.011 111.406 62.817V67.0102H327.799V62.817C327.799 57.011 323.364 52.334 317.881 52.334Z" fill="#C2CCFF"/>
<path d="M280.057 55.1963H269.574V63.502H280.057V55.1963Z" fill="white"/>
<path d="M294.369 56.6886H283.482C283.16 56.6886 282.918 56.4063 282.918 56.0838C282.918 55.7612 283.16 55.479 283.482 55.479H294.369C294.691 55.479 294.933 55.7612 294.933 56.0838C294.973 56.4063 294.691 56.6886 294.369 56.6886Z" fill="white"/>
<path d="M294.369 60.1568H283.482C283.16 60.1568 282.918 59.8746 282.918 59.5521C282.918 59.2295 283.16 58.9473 283.482 58.9473H294.369C294.691 58.9473 294.933 59.2295 294.933 59.5521C294.973 59.8746 294.691 60.1568 294.369 60.1568Z" fill="white"/>
<path d="M294.369 63.6231H283.482C283.16 63.6231 282.918 63.3409 282.918 63.0184C282.918 62.6958 283.16 62.4136 283.482 62.4136H294.369C294.691 62.4136 294.933 62.6958 294.933 63.0184C294.973 63.3409 294.691 63.6231 294.369 63.6231Z" fill="white"/>
<path d="M182.244 75.6387H139.586V115.595H182.244V75.6387Z" fill="#BFE6FF"/>
<path d="M243.408 75.6387H200.75V115.595H243.408V75.6387Z" fill="#BFE6FF"/>
<path d="M304.529 75.6387H261.871V115.595H304.529V75.6387Z" fill="#BFE6FF"/>
<path d="M247.278 144.14H210.548C208.491 144.14 206.798 142.447 206.798 140.391V139.02C206.798 136.963 208.491 135.27 210.548 135.27H247.278C249.335 135.27 251.028 136.963 251.028 139.02V140.391C251.028 142.487 249.335 144.14 247.278 144.14Z" fill="#A8C681"/>
<path d="M305.704 29.7953L304.293 27.3358C304.857 26.852 305.26 26.1263 305.26 25.3199C305.26 23.9087 304.172 22.7798 302.841 22.7798C301.51 22.7798 300.422 23.9087 300.422 25.3199C300.422 26.7311 301.51 27.86 302.841 27.86C303.164 27.86 303.486 27.7794 303.768 27.6584L304.776 30.3195C304.776 30.3598 304.817 30.3598 304.817 30.4001C304.978 30.6823 305.301 30.763 305.542 30.6017C305.744 30.4001 305.825 30.0372 305.704 29.7953ZM300.946 25.2796C300.946 24.191 301.793 23.3443 302.801 23.3443C303.809 23.3443 304.655 24.2313 304.655 25.2796C304.655 26.3682 303.809 27.2149 302.801 27.2149C301.752 27.2149 300.946 26.3682 300.946 25.2796Z" fill="#121841"/>
<path d="M64.6316 75.7596H2.58042C1.16925 75.7596 0 74.5903 0 73.1792V37.7386C0 36.3275 1.16925 35.1582 2.58042 35.1582H64.6316C66.0428 35.1582 67.212 36.3275 67.212 37.7386V73.1792C67.1717 74.5903 66.0428 75.7596 64.6316 75.7596Z" fill="#C2CCFF"/>
<path d="M67.1717 56.4468H0V68.0587H67.1717V56.4468Z" fill="#A0A2B3"/>
<path d="M62.6503 59.0273H49.3047V65.2365H62.6503V59.0273Z" fill="#FBB03B"/>
<path d="M58.4663 39.4727H9.76074V42.0531H58.4663V39.4727Z" fill="white"/>
<path d="M354.237 210.708C354.237 214.256 289 217.118 208.564 217.118C128.127 217.118 62.8906 214.256 62.8906 210.708C62.8906 207.16 128.127 204.297 208.564 204.297C289 204.297 354.237 207.2 354.237 210.708Z" fill="#F7931E"/>
<path d="M129.541 207.925H131.235V173.735H128.211L129.541 207.925Z" fill="#1E0C00"/>
<path d="M107.211 182.605L127.25 177.888C128.741 177.525 129.79 176.235 129.749 174.783L129.628 171.155C129.508 167.687 126.04 165.268 122.452 166.195L102.695 171.276L107.211 182.605Z" fill="#00485C"/>
<path d="M199.699 211.999H192.281C192.281 211.555 191.837 211.152 191.353 211.152H185.709C185.709 210.225 184.862 209.459 183.814 209.459H181.838C182.846 202.08 183.29 197.121 183.652 192.968C183.935 189.42 185.749 183.896 182.523 175.591C183.572 175.429 186.354 176.155 186.354 174.341C186.354 174.099 186.273 173.857 186.152 173.696H190.063C191.353 173.696 192.281 172.446 191.595 171.357H233.85C233.245 170.833 229.818 163.817 220.665 163.817H141.156C131.6 163.817 128.294 171.276 128.254 171.357H170.508C169.823 172.446 170.75 173.696 172.04 173.696H175.951C175.831 173.897 175.75 174.099 175.75 174.341C175.75 176.155 178.572 175.429 179.58 175.591C178.209 179.098 177.282 183.816 177.846 188.009C178.975 196.96 178.733 198.048 180.306 209.459H178.33C177.282 209.459 176.435 210.225 176.435 211.152H170.791C170.266 211.152 169.863 211.515 169.863 211.999H162.445C161.799 211.999 161.235 212.442 161.235 213.047H201.03C200.909 212.483 200.385 211.999 199.699 211.999Z" fill="#1C0F00"/>
<path d="M128.211 171.397H233.847C233.646 171.236 233.202 170.389 232.315 169.381H129.501C128.654 170.51 128.251 171.356 128.211 171.397Z" fill="#887EA8"/>
<path d="M169.295 130.231C166.755 130.352 165.384 129.828 164.013 130.957C163.61 131.279 163.247 131.642 163.166 131.965C163.005 132.65 160.304 160.753 160.304 160.753C160.304 160.753 160.465 161.559 161.352 161.156C162.279 160.793 169.295 130.231 169.295 130.231Z" fill="#30273F"/>
<path d="M162.112 161.398L180.901 163.737C181.788 163.858 182.595 163.374 182.756 162.608L183.603 158.737L185.054 152.165L185.538 149.988L186.989 143.416L187.594 140.714L189.046 134.142L189.529 131.885C189.731 131.038 188.925 130.231 187.917 130.231H168.362C166.386 130.231 164.693 131.481 164.451 133.134L160.661 159.826C160.621 160.592 161.266 161.277 162.112 161.398Z" fill="#40375B"/>
<path opacity="0.31" d="M178.893 130.231L185.586 149.988L187.037 143.416L182.602 130.231H178.893Z" fill="white"/>
<path opacity="0.31" d="M174.015 130.231L183.651 158.737L185.102 152.165L177.684 130.231H174.015Z" fill="white"/>
<path opacity="0.31" d="M184.089 130.231L187.637 140.714L189.088 134.142L187.758 130.231H184.089Z" fill="white"/>
<path d="M142.479 163.978H183.162V160.349L146.229 160.268C144.173 160.228 142.479 161.881 142.479 163.978Z" fill="#302944"/>
<path d="M181.872 142.044C181.872 142.77 179.494 143.375 176.51 143.375C173.567 143.375 171.147 142.77 171.147 142.044C171.147 141.319 173.526 140.714 176.51 140.714C179.453 140.714 181.872 141.319 181.872 142.044Z" fill="#D1C7E5"/>
<path d="M202.285 146.561C202.245 146.037 201.842 145.674 201.317 145.674H195.108C194.584 145.674 194.181 146.078 194.141 146.561V146.723H202.285V146.561Z" fill="#EAC733"/>
<path d="M194.177 146.722L193.169 163.858H203.329L202.321 146.722H194.177Z" fill="#00C9F7"/>
<path d="M198.731 142.851C198.771 142.69 198.61 142.529 198.448 142.529H198.085C197.924 142.529 197.763 142.69 197.803 142.851H198.731Z" fill="#EAC733"/>
<path d="M202.819 158.696L202.134 158.293C204.472 154.462 207.415 148.535 206.528 147.406C205.359 145.874 202.255 148.092 202.214 148.132L201.73 147.487C201.892 147.366 205.48 144.786 207.174 146.923C208.706 148.898 203.787 157.083 202.819 158.696Z" fill="#00C9F7"/>
<path d="M197.773 142.892L197.975 144.707H198.499L198.741 142.892H197.773Z" fill="#DAD2E0"/>
<path d="M198.252 143.739C196.639 143.739 195.309 144.585 195.269 145.674H201.236C201.195 144.585 199.865 143.739 198.252 143.739Z" fill="#0089A9"/>
<path d="M193.978 150.028L193.696 154.504L190.793 148.012H192.325L193.978 150.028Z" fill="#66A1AD"/>
<path d="M217.397 162.244C217.639 162.163 217.881 162.083 218.123 162.002C219.695 161.558 221.469 161.034 221.631 158.938C221.671 158.494 221.59 158.131 221.348 157.849C220.784 157.123 219.534 157.164 218.849 157.406L219.05 157.97C219.574 157.768 220.502 157.768 220.824 158.212C220.945 158.373 220.986 158.575 220.986 158.897C220.865 160.591 219.413 160.994 217.921 161.438C217.679 161.518 217.397 161.599 217.155 161.679L217.397 162.244Z" fill="#00C9F7"/>
<path d="M223.406 162.728C223.406 162.728 223.446 162.728 223.406 162.728C223.406 163.172 222.68 163.534 221.471 163.857H206.674C205.464 163.534 204.738 163.172 204.738 162.768H223.406V162.728Z" fill="#0089A9"/>
<path d="M210.663 156.64H218.928C218.968 156.761 218.968 156.882 219.009 157.003H210.582C210.582 156.882 210.622 156.761 210.663 156.64Z" fill="#EAC733"/>
<path d="M219.011 157.003C219.092 157.446 219.132 157.93 219.132 158.414C219.132 160.108 218.648 161.64 217.882 162.728H211.754C210.988 161.64 210.504 160.108 210.504 158.414C210.504 157.93 210.544 157.446 210.625 157.003H219.011Z" fill="#00C9F7"/>
<path d="M213.283 156.559C213.566 156.277 213.969 156.519 214.171 156.599H213.808C213.647 156.559 213.485 156.559 213.405 156.64C213.203 156.841 213.082 158.172 213.001 159.019C213.001 159.06 212.961 159.1 212.921 159.1C212.88 159.1 212.84 159.06 212.84 159.019C212.88 158.818 212.961 156.882 213.283 156.559Z" fill="#C16400"/>
<path d="M211.914 161.398H213.971V159.664C213.648 159.664 213.366 159.381 213.366 159.059H212.519C212.519 159.381 212.237 159.664 211.914 159.664V161.398Z" fill="#26151A"/>
<path d="M212.284 161.054H213.534V159.804H212.284V161.054Z" fill="#C16400"/>
<path d="M310.102 64.3103C310.102 65.0766 310.707 65.6816 311.433 65.6816C312.159 65.6816 312.764 65.0766 312.764 64.3103C312.764 63.544 312.159 62.939 311.433 62.939C310.666 62.939 310.102 63.544 310.102 64.3103Z" fill="#564779"/>
<path d="M310.703 64.3098C310.703 64.7131 311.026 65.0761 311.429 65.0761C311.832 65.0761 312.155 64.7534 312.155 64.3098C312.155 63.8661 311.832 63.5435 311.429 63.5435C311.026 63.5435 310.703 63.9065 310.703 64.3098Z" fill="#41355B"/>
<path d="M305.662 65.6811C306.397 65.6811 306.993 65.0672 306.993 64.3098C306.993 63.5524 306.397 62.9385 305.662 62.9385C304.927 62.9385 304.331 63.5524 304.331 64.3098C304.331 65.0672 304.927 65.6811 305.662 65.6811Z" fill="#564779"/>
<path d="M304.946 64.3093C304.946 64.7126 305.269 65.0756 305.672 65.0756C306.076 65.0756 306.398 64.753 306.398 64.3093C306.398 63.8656 306.076 63.543 305.672 63.543C305.269 63.543 304.946 63.906 304.946 64.3093Z" fill="#41355B"/>
<path d="M304.858 60.641L302.399 56.1656C302.278 55.964 302.278 55.6818 302.439 55.4802C302.56 55.2786 302.802 55.1576 303.084 55.1576H312.841C312.962 55.1576 313.083 55.2786 313.083 55.3995C313.083 55.5205 312.962 55.6415 312.841 55.6415H303.084C302.963 55.6415 302.883 55.7221 302.883 55.7624C302.842 55.8027 302.802 55.8834 302.883 55.964L305.342 60.4394C305.382 60.5201 305.463 60.5604 305.544 60.5604H311.954L313.567 54.5528C313.769 53.8674 314.374 53.3433 315.059 53.3433H316.873C316.994 53.3433 317.115 53.4642 317.115 53.6255C317.115 53.7868 316.994 53.9077 316.873 53.9077H315.059C314.575 53.9077 314.172 54.2303 314.051 54.7141L311.914 62.5764H304.979C304.858 62.5764 304.737 62.4554 304.737 62.2941C304.737 62.1328 304.858 62.0119 304.979 62.0119H311.551L311.833 61.0039H305.544C305.221 61.0039 304.979 60.8829 304.858 60.641Z" fill="#564779"/>
<path d="M302.436 179.662L295.098 173.09C291.913 163.131 290.341 151.963 292.8 140.996C292.8 140.996 300.904 142.569 309.573 146.278L313.524 154.503L315.419 149.1C319.572 151.358 323.443 154.18 326.184 157.567L323.967 168.776L329.289 162.768C329.733 163.857 330.015 165.026 330.216 166.236C332.918 184.823 332.555 207.886 332.555 207.886H313.887C313.887 207.886 305.057 197.241 298.526 182.122L302.436 179.662Z" fill="#598891"/>
<path d="M313.328 200.144C317.844 202.362 321.11 202.402 322.239 202.321C316.433 194.782 311.393 185.186 307.522 176.557C307.24 176.557 306.958 176.557 306.675 176.557C301.595 176.557 297.603 174.42 294.781 172.082C294.66 171.719 294.58 171.396 294.459 171.034C297.321 173.614 301.635 176.154 307.24 175.953C306.111 173.412 305.022 170.872 303.974 168.332C299.7 167.768 295.507 165.187 292.564 162.97C292.523 162.688 292.443 162.405 292.402 162.083C295.225 164.26 299.458 167.002 303.732 167.687C298.491 154.624 295.184 144.1 295.144 143.979L294.096 141.601L295.588 143.254C295.628 143.455 298.37 152.003 302.482 162.808C304.659 158.172 303.49 146.842 303.127 143.778C303.329 143.858 303.53 143.899 303.732 143.979C304.176 147.568 305.304 159.139 302.764 163.534C305.385 170.348 308.691 178.13 312.562 185.548C314.134 183.17 311.514 167.889 315.908 161.841C318.569 158.172 318.932 153.858 318.771 151.035C318.973 151.156 319.174 151.317 319.376 151.438C319.456 154.382 319.013 158.575 316.352 162.204C311.957 168.292 314.981 184.057 312.844 186.113C313.61 187.564 314.376 188.976 315.183 190.387C319.577 176.638 319.497 176.154 318.892 170.711C318.529 167.566 318.207 164.623 320.303 162.526C322.118 160.712 322.722 157.123 322.884 154.18C323.085 154.341 323.246 154.503 323.448 154.704C323.246 157.607 322.561 161.075 320.706 162.929C317.36 166.276 320.827 172.203 319.336 178.13C317.965 183.492 315.868 190.024 315.545 191.113C317.199 193.975 318.892 196.717 320.706 199.257C321.432 198.652 324.537 195.588 323.69 189.217C322.964 184.016 327.843 177.444 331.068 173.695C331.109 173.977 331.109 174.259 331.149 174.541C328.004 178.291 323.609 184.46 324.254 189.177C325.182 195.991 321.835 199.136 321.029 199.781C323.206 202.805 325.464 205.587 327.843 207.926H326.996C326.593 207.522 326.149 207.079 325.746 206.635C323.448 207.361 319.86 206.958 316.312 204.337C314.175 202.765 311.876 202.523 309.941 202.805C309.82 202.644 309.699 202.442 309.578 202.281C311.675 201.918 314.255 202.079 316.674 203.853C320.706 206.837 324.134 206.393 325.303 206.111C324.375 205.103 323.488 204.015 322.601 202.886C319.658 203.329 315.747 202.079 313.005 200.708C311.231 199.821 309.417 199.499 307.724 199.459C307.603 199.257 307.482 199.055 307.361 198.854C309.256 198.854 311.312 199.176 313.328 200.144Z" fill="#BDCFD3"/>
<path opacity="0.34" d="M326.984 165.309L329.242 162.769C329.685 163.857 329.967 165.026 330.169 166.236C332.87 184.823 332.508 207.886 332.508 207.886C332.508 207.886 325.169 190.992 326.984 165.309Z" fill="#43666D"/>
<path d="M393.795 193.25C393.029 193.25 382.989 188.169 365.894 193.25C348.798 198.33 336.34 207.885 336.34 207.885C336.34 207.885 355.895 211.635 373.756 208.732C391.658 205.789 393.795 193.25 393.795 193.25Z" fill="#245058"/>
<path d="M338.359 206.474C349.568 198.773 366.784 190.749 381.258 190.991C378.234 199.539 374.122 205.788 365.977 209.619C353.68 210.465 342.028 208.933 337.875 208.288C338.036 207.683 338.198 207.119 338.359 206.474Z" fill="#1B3C42"/>
<path d="M337.914 133.295L345.252 140.996L342.349 124.909C345.01 120.393 347.994 116.24 351.179 112.611C360.009 102.612 375.935 87.8149 375.935 87.8149C379.644 95.274 382.144 102.531 383.717 109.507L375.492 117.893L385.047 116.925C392.103 171.034 342.631 207.885 342.631 207.885H332.471C332.471 207.885 327.915 163.857 331.584 150.35C333.156 144.665 335.293 138.859 337.914 133.295Z" fill="#245058"/>
<path d="M330.738 155.268C330.819 154.381 330.94 153.575 331.101 152.809C333.238 158.695 338.923 172.847 345.092 176.597C345.293 175.992 345.535 175.428 345.737 174.823C339.608 172.565 334.649 157.365 332.19 148.414C332.391 147.688 332.633 147.003 332.835 146.277C335.375 156.115 340.536 171.759 346.14 173.734C347.914 169.178 349.971 164.703 352.349 160.792C354.325 157.566 356.301 153.172 358.276 148.051C352.954 144.019 348.922 126.843 347.108 117.771C347.43 117.368 347.713 116.925 348.035 116.521C349.688 125.029 353.801 142.689 358.72 146.882C360.131 143.132 361.542 139.06 362.873 134.867C358.357 128.133 356.865 113.901 356.422 107.046C356.784 106.643 357.147 106.28 357.551 105.877C357.913 111.844 359.244 126.279 363.356 133.415C369.969 112.409 375.493 89.306 375.573 88.9431L376.017 88.1367V89.0237C375.936 89.4269 369.767 118.699 362.026 141.277C370.775 144.18 380.371 138.052 385.572 133.859C385.532 134.423 385.492 134.947 385.411 135.512C384.121 136.52 382.589 137.608 380.895 138.616C375.896 141.681 371.138 143.213 366.784 143.213C364.969 143.213 363.236 142.93 361.623 142.406C359.486 148.494 357.268 154.059 355.091 158.373C362.994 161.114 374.444 158.05 380.855 155.913C380.694 156.397 380.492 156.881 380.331 157.365C375.694 158.897 368.921 160.671 362.55 160.671C359.728 160.671 356.986 160.308 354.567 159.461C354.204 160.187 353.801 160.832 353.438 161.477C343.157 178.331 338.963 205.506 338.601 208.006H337.391C337.512 207.28 339.649 192.563 344.729 177.807C338.681 174.258 333.359 162.082 330.738 155.268Z" fill="#E0E3F1"/>
<path opacity="0.44" d="M342.673 207.885H333.198C333.198 207.885 335.416 187.645 354.205 174.178L356.462 177.726L356.785 172.444C357.874 171.759 359.002 171.074 360.212 170.469L363.155 177.323L364.446 168.413C368.236 166.759 372.509 165.348 377.307 164.34C365.01 190.87 343.48 207.28 342.673 207.885Z" fill="#858AA4"/>
<path d="M301.908 172.364L303.884 181.114L306.263 174.824C308.762 176.356 311.182 178.09 313.48 180.065L314.165 184.42L316.504 182.888C322.552 189.097 327.067 197.241 327.753 207.845H312.028C312.028 207.845 278.241 198.491 277.031 164.059C277.072 164.059 289.409 165.833 301.908 172.364Z" fill="#77A1A8"/>
<path d="M321.707 207.885H319.086C300.58 197.886 279.936 167.687 279.009 166.356L277.719 164.38L279.977 165.671C280.219 166.033 303.039 199.337 321.707 207.885Z" fill="#BDCFD3"/>
<path d="M354.323 179.097L356.258 182.121L356.54 177.565C357.468 176.96 358.435 176.395 359.484 175.871L362.024 181.758L363.112 174.137C368.273 171.88 374.402 170.227 381.74 169.46C381.74 169.46 380.167 190.789 370.733 200.184C361.298 209.578 346.541 207.965 346.541 207.965H336.34C336.3 207.965 338.195 190.628 354.323 179.097Z" fill="#E0C57D"/>
<path d="M345.415 207.967H343.883C366.421 192.484 380.089 170.792 380.21 170.591L381.38 169.905L380.936 171.075C380.815 171.276 367.47 192.444 345.415 207.967Z" fill="#F3E8CB"/>
<path d="M336.34 207.885C336.34 207.885 355.21 199.458 367.709 200.507C380.208 201.555 393.11 215.425 393.11 215.425C393.11 215.425 388.997 216.876 383.111 218.368L377.546 213.933L379.119 219.255C369.886 221.191 358.032 222.521 349.968 219.094C334.848 212.724 336.34 207.885 336.34 207.885Z" fill="#F15A24"/>
<path d="M336.34 207.886C336.34 207.886 336.582 207.765 337.307 207.482C341.057 207.24 353.113 206.636 363.636 206.999C365.41 205.628 366.136 202.684 366.418 200.467C366.7 200.467 366.982 200.507 367.265 200.507C366.982 202.604 366.337 205.345 364.805 207.079C365.289 207.119 368.716 207.361 369.885 207.563C371.74 206.232 372.143 203.531 372.143 201.434C372.425 201.515 372.708 201.596 372.99 201.717C372.95 203.733 372.546 206.192 370.974 207.765C372.103 207.966 373.192 208.208 374.28 208.45C376.659 208.047 378.11 206.031 378.917 204.378C379.159 204.499 379.441 204.66 379.683 204.821C378.957 206.273 377.788 208.047 375.893 208.853C376.82 209.095 377.748 209.377 378.594 209.66C381.699 208.813 382.908 207.805 383.352 207.16C383.594 207.321 383.836 207.482 384.037 207.644C383.513 208.369 382.384 209.297 379.965 210.103C386.094 212.24 390.488 214.538 390.569 214.579L392.182 215.506L389.924 215.304C389.803 215.224 379.925 209.498 368.152 208.168C371.256 210.668 372.587 215.869 373.312 218.852C373.433 219.336 373.554 219.901 373.675 220.304C373.393 220.344 373.111 220.384 372.829 220.425C372.708 220.062 372.627 219.618 372.466 219.054C371.619 215.707 370.047 209.539 366.176 207.966C365.531 207.926 362.386 207.805 361.62 207.765C364.563 210.305 366.821 217.32 367.829 220.989C367.547 221.03 367.265 221.03 366.982 221.07C365.652 216.232 362.91 208.611 359.927 207.765C348.355 207.563 336.34 207.886 336.34 207.886Z" fill="#DEBDB5"/>
<path d="M259.861 213.974H258.168V177.767H261.192L259.861 213.974Z" fill="#1E0C00"/>
<path d="M298.321 211.515H296.506L295.297 179.744H298.321V211.515Z" fill="#1E0C00"/>
<path d="M237.846 210.346H236.152V177.083H239.176L237.846 210.346Z" fill="#1E0C00"/>
<path d="M279.981 213.047H278.167L277.32 182.526L280.344 182.566L279.981 213.047Z" fill="#1E0C00"/>
<path d="M285.455 168.414C284.649 162.608 291.423 126.966 294.406 125.918C295.938 125.394 303.599 125.676 310.171 126.039C315.534 126.361 319.485 131.2 318.638 136.522L314.284 164.584C312.469 176.397 259.812 168.213 259.812 168.213L285.455 168.414Z" fill="#3D2E5F"/>
<path d="M240.426 148.335C250.103 147.287 271.472 150.472 275.463 148.899C279.455 147.327 281.108 137.046 284.051 132.691C288.325 126.361 289.857 127.288 294.373 125.917L287.599 168.656L261.19 180.227L234.378 179.139C233.935 179.098 232.886 170.914 232.927 169.906C233.048 163.938 229.217 149.545 240.426 148.335Z" fill="#2E2347"/>
<path d="M261.146 180.268L237.882 180.228C236.269 180.228 234.898 179.179 234.616 177.768L233.931 174.18C233.245 170.753 236.229 167.648 240.019 167.729L261.146 168.293V180.268Z" fill="#3D2E5F"/>
<path d="M277.48 146.481C277.48 146.481 275.746 154.948 277.803 154.343C279.859 153.698 278.448 147.247 277.48 146.481Z" fill="#372C52"/>
<path d="M242.113 146.884C242.113 146.884 239.895 152.489 242.879 159.907C245.459 166.358 248.806 169.342 250.298 169.382C250.499 169.382 257.313 161.48 254.249 155.23C251.225 148.981 242.113 146.884 242.113 146.884Z" fill="#372C52"/>
<path d="M271.064 122.934C270.096 121.523 267.879 121.563 266.911 121.442C265.943 121.322 264.734 119.668 264.089 119.588C263.444 119.507 264.049 121.523 265.056 121.846C266.064 122.209 265.056 123.217 264.371 123.378C263.645 123.539 261.025 123.862 260.178 122.612C259.331 121.402 258.041 120.797 258.001 121.322C257.96 121.805 259.896 123.539 259.896 123.539C259.896 123.539 256.993 121.765 256.912 122.37C256.831 122.975 259.412 124.144 259.412 124.144C259.412 124.144 257.759 123.741 257.356 124.104C256.952 124.466 261.508 126.119 262.355 126.24C263.202 126.321 267.839 125.071 269.371 124.587C270.016 124.386 271.467 127.611 273.443 131.563C273.806 130.434 274.37 129.385 275.015 128.377C273.04 125.878 271.467 123.499 271.064 122.934Z" fill="#FC7575"/>
<path d="M283.604 137.167C283.402 137.409 283.08 136.522 282.918 136.562C281.588 136.965 277.919 132.409 274.975 128.417C274.33 129.425 273.121 130.635 272.758 131.764C275.459 137.288 279.733 144.061 283.402 145.472C283.402 145.472 284.854 143.779 286.507 141.36C285.66 139.908 284.652 138.497 283.604 137.167Z" fill="#8AB3BC"/>
<path d="M271.956 154.141C271.956 154.141 245.386 145.956 241.192 147.408L248.853 158.213L253.369 162.769L276.27 158.133L271.956 154.141Z" fill="#FD5E5A"/>
<path d="M248.85 207.483L248.77 213.813H249.495L250.382 206.596L248.85 207.483Z" fill="#1A1722"/>
<path d="M279.333 155.673C274.011 158.495 250.706 157.568 245.626 158.777C240.546 159.987 240.022 164.946 239.619 168.293C239.336 170.914 243.651 192.242 244.659 203.008C244.336 208.773 244.255 209.781 243.167 211.716C242.038 213.652 241.796 214.015 243.288 214.015C245.223 214.015 246.916 213.652 247.279 212.845C247.924 211.475 248.489 206.757 249.819 206.757C249.819 206.757 250.706 204.983 250.505 204.056C250.182 202.725 249.295 203.33 249.215 201.677C250.102 190.831 251.432 173.05 250.747 171.599C249.86 169.664 248.973 168.656 248.973 168.656C248.973 168.656 277.478 175.187 280.825 174.421C282.72 173.978 286.832 167.567 290.381 161.237L279.333 155.673Z" fill="#FC7575"/>
<path d="M249.292 202.483C248.728 206.031 246.389 213.047 245.059 213.047C243.244 213.047 243.123 212.966 243.123 211.716C241.994 213.652 238.97 214.619 240.503 214.619C242.438 214.619 247.196 214.74 247.558 213.934C248.203 212.563 248.566 207.402 249.897 207.402L249.494 213.773H250.179C250.179 213.773 251.227 204.983 250.986 204.096C250.703 202.967 249.695 202.725 249.292 202.483Z" fill="#332F44"/>
<path d="M231.835 193.329L230.988 199.619L231.714 199.699L233.448 192.644L231.835 193.329Z" fill="#1A1722"/>
<path d="M247.32 154.22C247.763 150.108 243.167 145.229 241.191 147.406C235.103 153.978 231.636 173.21 229.821 181.032C229.539 182.282 227.241 194.741 225.628 196.878C224.298 198.652 223.975 199.015 225.467 199.176C227.402 199.418 229.096 199.257 229.579 198.491C230.386 197.2 231.515 192.604 232.805 192.765C232.805 192.765 233.894 191.112 233.813 190.185C233.692 189.096 233.047 189.177 232.886 188.451C232.926 187.282 233.208 185.185 233.732 183.935C235.143 180.75 246.876 158.333 247.32 154.22Z" fill="#FF4747"/>
<path d="M232.883 188.491C231.875 191.918 228.73 198.611 227.4 198.45C225.585 198.248 225.505 198.127 225.626 196.918C222.884 198.289 221.594 199.539 223.085 199.7C225.021 199.942 229.295 200.426 229.778 199.66C230.585 198.369 231.552 193.289 232.883 193.45L231.714 199.74L232.399 199.861C232.399 199.861 234.496 191.273 234.375 190.386C234.214 189.096 233.246 188.733 232.883 188.491Z" fill="#332F44"/>
<path d="M301.032 124.103C300.427 121.644 295.79 120.636 293.976 122.249C293.976 122.249 281.558 130.716 282.203 135.957C282.848 141.118 284.582 152.327 279.703 155.472C279.622 155.431 279.542 155.431 279.461 155.391L291.557 160.996C294.218 156.198 295.427 151.762 296.193 149.626C298.008 144.747 301.636 126.563 301.032 124.103Z" fill="#CEF2FA"/>
<path d="M279.455 155.391C274.657 153.536 249.297 145.633 242.16 146.883C242.16 146.883 253.611 159.261 250.345 169.381C250.345 169.381 278.246 177.445 280.746 175.51C283.286 173.575 290.221 162.85 290.221 162.809L291.551 161.035L279.455 155.391Z" fill="#7F71A4"/>
<path d="M279.332 148.335C274.131 146.803 268.849 144.867 268.849 144.867C268.849 144.867 268.325 143.053 269.615 141.521C270.905 139.989 271.631 139.223 271.026 139.142C270.462 139.061 268.607 140.956 268.607 140.956C268.607 140.956 269.615 138.779 270.704 137.932C271.792 137.086 270.825 136.32 268.809 139.142C266.793 141.964 266.994 140.835 267.035 140.231C267.115 139.626 269.373 136.924 269.172 135.836C269.01 134.828 266.107 139.505 265.623 141.037C266.833 133.9 265.099 135.473 264.333 142.408C264.091 144.383 265.946 147.165 265.986 147.206C266.107 147.448 273.365 151.359 279.251 154.302C279.332 152.367 279.574 150.31 279.332 148.335Z" fill="#FC7575"/>
<path d="M261.107 131.805C251.31 130.716 250.221 122.894 250.221 122.814C250.181 122.652 250.342 122.491 250.503 122.491C250.665 122.491 250.826 122.612 250.866 122.773C250.907 123.096 251.915 130.192 261.188 131.24C261.349 131.24 261.47 131.402 261.47 131.563C261.43 131.724 261.269 131.845 261.107 131.805Z" fill="#005569"/>
<path d="M300.703 109.306C300.703 109.306 304.251 108.701 304.574 110.596C304.896 112.491 303.646 115.354 302.235 116.281C301.147 117.007 297.397 119.305 296.349 117.088C295.3 114.83 296.51 108.943 300.703 109.306Z" fill="#000086"/>
<path d="M302.713 110.032C303.439 111.887 303.399 113.863 301.544 115.193L301.947 115.758C303.802 114.104 303.762 112.008 302.713 110.032Z" fill="#000065"/>
<path d="M294.004 112.975C294.004 112.975 293.803 116.16 293.803 118.741C293.803 120.152 293.279 121.079 292.916 122.128C292.553 123.216 288.642 128.135 289.811 128.458C290.497 128.659 295.416 125.313 296.262 124.91C297.593 124.305 298.883 123.216 300.052 122.612L298.198 109.508L294.004 112.975Z" fill="#FC7575"/>
<path d="M298.201 109.508L294.008 112.975C294.008 112.975 293.887 114.83 293.847 116.846C295.177 116.322 297.274 113.943 298.04 111C298.201 109.75 298.201 109.508 298.201 109.508Z" fill="#FD5E5A"/>
<path d="M292.355 97.8965C292.355 97.8965 290.662 98.4206 289.694 100.154C288.727 101.848 289.251 104.307 288.686 105.839C288.122 107.371 289.251 114.992 292.678 115.193C296.992 115.435 298.726 109.146 299.169 107.896C299.613 106.646 299.411 101.767 297.597 99.9931C295.823 98.2594 292.355 97.8965 292.355 97.8965Z" fill="#FC7575"/>
<path d="M291.467 106.524C291.346 107.532 291.104 108.741 290.862 109.749C291.184 109.951 291.628 110.032 292.031 109.991C291.346 110.233 290.7 109.83 290.66 109.83C290.821 109.024 291.023 107.895 291.467 106.524Z" fill="#4F005E"/>
<path d="M293.84 104.911C293.84 104.911 294.767 104.548 295.695 104.71C296.622 104.831 297.589 106.161 297.589 106.161C297.589 106.161 296.461 105.073 295.815 104.992C295.211 104.911 294.485 105.153 294.485 105.153L293.84 104.911Z" fill="#4F005E"/>
<path d="M291.668 104.347C291.668 104.347 291.144 103.621 290.418 103.298C289.692 102.975 288.441 103.701 288.441 103.701C288.441 103.701 289.732 103.258 290.216 103.5C290.7 103.742 291.103 104.226 291.103 104.226L291.668 104.347Z" fill="#4F005E"/>
<path d="M293.645 111.201C291.951 112.088 291.305 112.129 290.66 112.089C291.668 112.613 293.12 112.048 293.645 111.201Z" fill="white"/>
<path d="M294.039 106.403C294.08 106.726 294.362 106.927 294.644 106.887C294.927 106.847 295.128 106.564 295.088 106.242C295.048 105.919 294.765 105.717 294.483 105.758C294.201 105.838 293.999 106.121 294.039 106.403Z" fill="#4F005E"/>
<path d="M296.421 106.766C294.525 104.79 293.719 106.161 293.073 106.242C293.598 106.282 294.203 105.758 294.808 105.919C295.251 106.04 295.937 106.484 296.421 106.766Z" fill="#42004A"/>
<path d="M289.729 106.041C289.77 106.363 290.012 106.565 290.213 106.525C290.455 106.484 290.576 106.202 290.536 105.879C290.496 105.557 290.254 105.355 290.052 105.395C289.81 105.436 289.689 105.718 289.729 106.041Z" fill="#4F005E"/>
<path d="M291.386 106.242C289.813 104.427 289.127 105.879 288.562 106.04C289.006 106.04 289.53 105.476 290.014 105.556C290.418 105.637 290.982 106 291.386 106.242Z" fill="#42004A"/>
<path d="M294.162 109.266C294.323 109.79 295.049 110.032 295.775 109.831C296.501 109.629 296.945 109.024 296.784 108.5C296.622 107.975 295.896 107.733 295.17 107.935C294.444 108.137 294.001 108.742 294.162 109.266Z" fill="#FD5E5A"/>
<path d="M296.224 100.114C293.967 97.6945 292.193 98.017 292.031 97.9767C292.031 97.9767 292.072 97.8961 292.152 97.7751C292.555 97.251 293.926 95.7188 296.708 96.3236C299.571 96.8478 301.184 97.251 302.796 99.5088C303.522 100.517 303.603 102.331 303.401 103.5C303.038 105.637 302.071 105.92 302.232 108.097C302.393 110.193 297.676 111.524 297.676 111.524C297.757 111.282 298.24 109.226 298.482 108.742C298.966 107.532 298.966 106.524 298.563 105.516C298.321 105.597 297.757 105.315 297.434 104.992C296.426 103.944 297.434 103.017 296.224 100.114Z" fill="#0000BF"/>
<path d="M293.684 96.8073C293.684 96.8073 291.628 96.0816 289.572 97.0089C287.516 97.9362 286.346 102.936 287.112 104.186C287.878 105.395 283.242 105.96 285.54 106.605C288.806 107.492 295.62 97.7346 293.684 96.8073Z" fill="#000086"/>
<path d="M292.882 97.4127C289.737 96.7273 287.277 98.7836 287.64 101.485C287.68 101.928 287.842 102.412 288.245 102.654L288.527 102.09C288.366 102.049 288.205 101.566 288.205 101.404C287.721 99.0255 289.858 96.9692 292.882 97.4127Z" fill="#0000FF"/>
<path d="M298.001 106.645C298.001 106.645 298.646 104.468 299.372 105.677C300.098 106.887 298.888 109.145 298.162 108.822C297.477 108.54 298.001 106.645 298.001 106.645Z" fill="#FC7575"/>
<path d="M298.165 107.009C298.165 107.009 298.649 105.758 298.971 106.041C299.254 106.323 298.77 108.703 298.366 108.299C297.963 107.936 298.165 107.009 298.165 107.009Z" fill="#FD5E5A"/>
<path d="M300.18 122.491C300.18 122.491 295.785 124.023 293.286 131.603C290.826 139.183 290.504 148.94 287.762 149.827C286.512 150.23 281.633 147.731 277.48 146.481C278.69 149.061 277.843 152.367 277.803 154.343C279.98 155.432 282.359 155.996 283.77 156.561C289.012 158.697 290.665 158.173 293.85 154.625C296.995 151.077 307.599 122.209 300.18 122.491Z" fill="#70C3F8"/>
<path d="M260.227 185.953L295.829 185.711C304.78 185.267 312.158 178.615 313.529 169.785L318.892 134.868C319.617 130.151 315.102 126.24 310.586 127.853C310.102 128.014 309.779 128.216 309.659 128.458C307.522 132.691 304.215 147.569 299.176 151.883C293.168 157.044 277.161 154.343 265.953 153.375C265.953 153.375 259.784 152.448 258.735 157.81C257.889 162.366 259.985 180.671 260.227 185.953Z" fill="#513D7E"/>
<path d="M308.561 130.111C306.263 134.707 301.465 147.529 298.32 149.908L297.876 150.311C293.32 154.101 277.757 152.085 271.669 151.521C271.588 151.521 266.75 151.117 267.072 151.117C263.565 150.835 260.138 151.279 258.081 154.141C256.428 156.278 256.549 158.859 256.63 161.399C257.154 169.825 258.726 177.809 260.218 185.953C260.823 178.575 259.976 162.447 260.742 158.617C260.984 157.246 261.508 156.359 263.041 155.915C266.669 154.827 290.82 160.955 299.852 154.02C306.988 148.013 308.682 129.587 310.012 128.297C310.174 128.135 310.416 128.015 310.657 127.894C309.529 128.095 309.569 128.216 308.561 130.111Z" fill="#AC95E0"/>
<path d="M310.58 127.853C314.329 126.684 319.248 129.708 318.079 135.433C314.934 151.923 313.886 158.697 312.152 169.22C310.862 177.526 304.25 184.259 294.412 184.501C287.598 184.622 272.317 185.106 260.181 185.953C271.712 186.598 283.727 186.84 295.339 186.961C301.467 187.162 308.846 183.413 312.596 176.599C315.055 172.083 314.894 168.253 315.861 162.89C316.708 156.641 317.595 151.117 319.41 135.675C320.216 129.264 314.773 126.038 310.58 127.853Z" fill="#3D2E5F"/>
<path d="M100.758 181.959L107.814 175.629C110.878 166.033 112.37 155.308 110.032 144.745C110.032 144.745 102.25 146.236 93.9041 149.825L90.114 157.768L88.2997 152.567C84.3081 154.744 80.5987 157.445 77.9377 160.711L80.0746 171.517L74.9541 165.711C74.5509 166.759 74.2283 167.888 74.067 169.057C71.4463 186.918 71.8495 209.094 71.8495 209.094H89.7915C89.7915 209.094 98.2585 198.853 104.548 184.338L100.758 181.959Z" fill="#598891"/>
<path d="M90.2749 201.675C85.9204 203.812 82.8158 203.852 81.6869 203.772C87.2509 196.514 92.0892 187.281 95.8389 179.016C96.1212 179.016 96.3631 179.016 96.6453 179.016C101.524 179.016 105.354 176.959 108.096 174.701C108.217 174.379 108.298 174.016 108.378 173.693C105.636 176.153 101.484 178.612 96.0808 178.451C97.1695 176.032 98.2178 173.572 99.2257 171.113C103.338 170.589 107.37 168.089 110.193 165.952C110.233 165.67 110.273 165.388 110.354 165.105C107.652 167.202 103.54 169.863 99.4676 170.468C104.508 157.929 107.693 147.768 107.733 147.688L108.741 145.43L107.33 147.002C107.29 147.204 104.669 155.429 100.677 165.791C98.5806 161.315 99.7096 150.429 100.072 147.486C99.8708 147.567 99.6692 147.607 99.4676 147.688C99.0644 151.155 97.9355 162.243 100.395 166.476C97.8549 173.048 94.6697 180.507 90.9603 187.644C89.4685 185.386 91.9683 170.669 87.7751 164.864C85.1947 161.315 84.8721 157.203 84.9931 154.461C84.7915 154.582 84.5899 154.703 84.4286 154.864C84.348 157.687 84.7915 161.719 87.3316 165.226C91.5651 171.073 88.6621 186.233 90.7184 188.208C89.9926 189.579 89.2266 190.99 88.4605 192.321C84.227 179.096 84.3076 178.612 84.8721 173.371C85.1947 170.347 85.5172 167.525 83.5013 165.509C81.7675 163.775 81.1627 160.307 81.0015 157.485C80.7999 157.646 80.6386 157.808 80.437 157.969C80.6386 160.791 81.2837 164.097 83.0577 165.872C86.2833 169.057 82.9368 174.782 84.3883 180.467C85.6785 185.588 87.6945 191.918 88.0573 192.966C86.4849 195.708 84.8318 198.328 83.0981 200.788C82.3723 200.183 79.3887 197.28 80.2354 191.111C80.9208 186.112 76.2438 179.782 73.1392 176.193C73.0989 176.475 73.0989 176.717 73.0586 177C76.0825 180.588 80.3161 186.515 79.6709 191.071C78.7839 197.643 82.0094 200.667 82.7352 201.272C80.6386 204.215 78.4614 206.836 76.2035 209.094H77.0099C77.4131 208.69 77.8163 208.287 78.1791 207.844C80.3967 208.529 83.8238 208.166 87.2509 205.666C89.3072 204.134 91.5248 203.933 93.3795 204.215C93.5004 204.054 93.6214 203.892 93.7423 203.691C91.7264 203.368 89.2266 203.489 86.9284 205.223C83.0578 208.086 79.7516 207.682 78.6226 207.4C79.5097 206.433 80.3564 205.384 81.2031 204.296C84.0657 204.699 87.7751 203.489 90.4362 202.199C92.1699 201.352 93.9036 201.03 95.5164 200.989C95.6373 200.788 95.7583 200.627 95.8793 200.425C94.1858 200.385 92.2102 200.707 90.2749 201.675Z" fill="#BDCFD3"/>
<path opacity="0.34" d="M77.1313 168.17L74.9541 165.71C74.5509 166.759 74.2283 167.888 74.067 169.057C71.4463 186.918 71.8495 209.094 71.8495 209.094C71.8495 209.094 78.865 192.845 77.1313 168.17Z" fill="#43666D"/>
<path d="M12.9014 195.024C13.6674 195.024 23.3037 190.145 39.7539 195.024C56.2041 199.902 68.1789 209.095 68.1789 209.095C68.1789 209.095 49.3902 212.724 32.1739 209.901C14.9576 207.079 12.9014 195.024 12.9014 195.024Z" fill="#245058"/>
<path d="M66.2065 207.764C55.4009 200.346 38.8701 192.645 24.96 192.846C27.8629 201.071 31.8142 207.079 39.6361 210.748C51.4496 211.554 62.6584 210.062 66.65 209.458C66.529 208.934 66.3677 208.369 66.2065 207.764Z" fill="#1B3C42"/>
<path d="M66.609 137.367L59.5531 144.786L62.3352 129.303C59.7547 124.989 56.9324 120.957 53.8278 117.49C45.3205 107.894 29.9992 93.6206 29.9992 93.6206C26.4511 100.797 24.032 107.773 22.4998 114.506L30.4024 122.57L21.2499 121.642C14.5167 173.654 62.0529 209.095 62.0529 209.095H71.8505C71.8505 209.095 76.2453 166.76 72.6972 153.777C71.2054 148.293 69.1491 142.729 66.609 137.367Z" fill="#245058"/>
<path d="M73.5412 158.494C73.4605 157.648 73.3396 156.841 73.2186 156.116C71.1623 161.76 65.7192 175.388 59.7923 178.976C59.5907 178.412 59.3891 177.848 59.1875 177.283C65.0741 175.106 69.8721 160.51 72.2106 151.882C72.009 151.197 71.8074 150.511 71.5655 149.826C69.106 159.26 64.1468 174.299 58.7843 176.235C57.0909 171.84 55.1153 167.566 52.8171 163.776C50.9221 160.672 49.0271 156.438 47.1321 151.559C52.2123 147.689 56.1233 131.198 57.857 122.449C57.5748 122.046 57.2522 121.643 56.97 121.28C55.3975 129.424 51.4463 146.439 46.6886 150.471C45.3177 146.882 43.9872 142.971 42.697 138.94C47.0112 132.448 48.4626 118.78 48.9062 112.168C48.5433 111.805 48.1804 111.442 47.8175 111.039C47.4547 116.764 46.2048 130.634 42.2132 137.488C35.8427 117.288 30.5206 95.0723 30.44 94.7094L29.9965 93.9434V94.7901C30.0771 95.1933 36.004 123.336 43.4631 145.028C35.0364 147.81 25.8033 141.923 20.8037 137.891C20.844 138.415 20.8843 138.94 20.9247 139.464C22.1746 140.431 23.626 141.48 25.2791 142.447C30.0771 145.391 34.6735 146.882 38.8264 146.882C40.5601 146.882 42.2132 146.641 43.7856 146.116C45.8419 152.003 47.9788 157.325 50.0754 161.438C42.4954 164.058 31.448 161.155 25.3194 159.059C25.4807 159.543 25.642 159.986 25.8033 160.43C30.2787 161.881 36.7701 163.615 42.8986 163.615C45.6 163.615 48.2611 163.292 50.5996 162.446C50.9624 163.131 51.3253 163.776 51.6882 164.381C61.5664 180.589 65.5983 206.716 65.9612 209.135H67.0901C67.0095 208.45 64.9129 194.298 60.0342 180.105C65.8805 176.799 71.0414 165.066 73.5412 158.494Z" fill="#E0E3F1"/>
<path opacity="0.44" d="M62.0514 209.095H71.1635C71.1635 209.095 69.0266 189.621 50.9636 176.678L48.7864 180.065L48.4638 174.985C47.4155 174.34 46.3269 173.695 45.1577 173.049L42.3353 179.662L41.1258 171.114C37.4567 169.501 33.3845 168.171 28.7881 167.203C40.5613 192.765 61.245 208.49 62.0514 209.095Z" fill="#858AA4"/>
<path d="M101.242 174.945L99.3469 183.372L97.0487 177.324C94.6699 178.815 92.291 180.469 90.1138 182.364L89.4284 186.557L87.2108 185.105C81.3645 191.072 77.0504 198.894 76.4053 209.095H91.4846C91.4846 209.095 123.982 200.104 125.111 167.002C125.151 167.002 113.257 168.695 101.242 174.945Z" fill="#77A1A8"/>
<path d="M82.2139 209.096H84.754C102.535 199.5 122.412 170.47 123.259 169.18L124.509 167.285L122.331 168.535C122.09 168.857 100.156 200.871 82.2139 209.096Z" fill="#BDCFD3"/>
<path d="M50.844 181.436L48.9894 184.339L48.7071 179.985C47.8201 179.42 46.8524 178.856 45.8848 178.332L43.4656 183.976L42.4173 176.638C37.4581 174.461 31.5715 172.848 24.5156 172.123C24.5156 172.123 26.0478 192.645 35.0792 201.676C44.1107 210.708 58.3031 209.176 58.3031 209.176H68.1409C68.1813 209.176 66.3266 192.524 50.844 181.436Z" fill="#E0C57D"/>
<path d="M59.421 209.175H60.9128C39.2614 194.297 26.1174 173.452 25.9561 173.25L24.8271 172.565L25.2303 173.694C25.3916 173.895 38.2131 194.257 59.421 209.175Z" fill="#F3E8CB"/>
<path d="M68.138 209.094C68.138 209.094 49.9944 201.03 37.9793 201.998C25.9642 203.006 13.5459 216.352 13.5459 216.352C13.5459 216.352 17.4972 217.763 23.1822 219.174L28.5446 214.941L27.0528 220.061C35.923 221.916 47.293 223.206 55.0746 219.9C69.5492 213.771 68.138 209.094 68.138 209.094Z" fill="#F15A24"/>
<path d="M68.1429 209.095C68.1429 209.095 67.901 208.974 67.2156 208.692C63.6272 208.45 52.0152 207.845 41.8951 208.248C40.2017 206.958 39.5163 204.095 39.1937 201.958C38.9115 201.958 38.6293 201.999 38.347 201.999C38.6293 204.015 39.2341 206.676 40.7259 208.289C40.242 208.329 36.9762 208.571 35.8473 208.732C34.0732 207.442 33.67 204.861 33.67 202.845C33.3878 202.926 33.1056 203.007 32.8233 203.128C32.8636 205.063 33.2668 207.442 34.7586 208.934C33.67 209.135 32.6217 209.337 31.6137 209.579C29.3156 209.216 27.9447 207.24 27.1786 205.668C26.9367 205.789 26.6948 205.95 26.4529 206.071C27.1383 207.482 28.2673 209.135 30.1219 209.982C29.2349 210.224 28.3479 210.506 27.5012 210.748C24.5176 209.942 23.3483 208.934 22.9048 208.329C22.6629 208.49 22.4613 208.651 22.2194 208.813C22.7032 209.498 23.7918 210.385 26.1303 211.192C20.2437 213.248 16.0102 215.425 15.9296 215.465L14.3975 216.393L16.5747 216.191C16.6957 216.111 26.1707 210.627 37.5003 209.337C34.5167 211.716 33.2668 216.715 32.5411 219.618C32.4201 220.102 32.2992 220.626 32.1782 221.029C32.4604 221.07 32.7427 221.11 32.9846 221.15C33.0652 220.788 33.1862 220.384 33.3475 219.82C34.1538 216.594 35.6457 210.667 39.3953 209.176C40.0001 209.135 43.0241 209.014 43.7498 209.014C40.9275 211.474 38.7502 218.207 37.7826 221.715C38.0648 221.755 38.347 221.755 38.6293 221.795C39.9195 217.159 42.5402 209.821 45.4029 208.974C56.5713 208.772 68.1429 209.095 68.1429 209.095Z" fill="#DEBDB5"/>
<path d="M107.532 210.668H109.226V174.421H106.242L107.532 210.668Z" fill="#1E0C00"/>
<path d="M69.0664 210.345H70.9211L72.0903 176.396H69.0664V210.345Z" fill="#1E0C00"/>
<path d="M87.4124 209.821L89.2268 209.781L90.1138 179.38L87.0898 179.42L87.4124 209.821Z" fill="#1E0C00"/>
<path d="M81.9683 165.067C82.7747 159.261 76.0011 123.619 73.0175 122.571C71.566 122.047 64.6714 122.289 58.3413 122.652C52.4144 122.974 48.0599 128.337 48.9469 134.223L53.1401 161.277C54.9545 173.091 107.611 164.906 107.611 164.906L81.9683 165.067Z" fill="#3D2E5F"/>
<path d="M121.322 146.883C112.169 145.875 96.324 147.084 92.534 145.592C88.744 144.101 85.5991 135.956 82.8171 131.803C78.7852 125.796 77.2934 126.642 73.0195 125.393L79.4303 165.913L104.428 176.92L129.789 175.912C130.192 175.872 131.2 168.091 131.16 167.163C131.039 161.438 131.885 148.052 121.322 146.883Z" fill="#2E2347"/>
<path d="M134.996 202.725C134.915 203.29 133.947 204.217 135.318 205.144C135.802 205.467 135.883 204.701 137.657 205.548C138.866 206.112 140.963 208.491 142.173 208.814C144.471 209.378 146.325 208.491 146.325 208.491C145.197 207.765 144.269 206.838 142.979 206.193C139.068 204.137 137.173 188.452 136.528 189.097C135.076 189.783 132.657 190.388 131.246 190.831C133.383 193.533 135.238 200.185 134.996 202.725Z" fill="#FD5E5A"/>
<path d="M136.807 202.927C136.363 202.644 135.638 202.725 134.992 202.725C134.992 203.33 133.38 204.418 134.751 205.305C136.162 206.233 138.137 211.797 138.137 211.797L139.065 211.555C139.065 211.555 136.041 205.386 137.412 205.91C138.782 206.434 141.202 210.789 141.202 210.789L147.491 208.894L147.088 207.725C146.443 207.281 145.354 206.918 144.709 207.442C142.008 209.7 138.823 203.854 136.807 202.927Z" fill="#3A0049"/>
<path d="M127.887 158.373C125.67 154.744 110.752 153.495 97.9301 151.075C89.6244 149.503 84.5441 146.963 84.5441 146.963L82.125 153.495L92.487 160.591L123.452 163.131C123.452 163.131 130.266 189.258 133.895 195.427L140.91 193.854C136.838 185.79 129.903 161.72 127.887 158.373Z" fill="#001542"/>
<path d="M132.239 191.234C130.707 191.638 129.135 192.081 127.603 192.565C128.651 195.589 129.336 198.048 129.094 198.814C128.893 199.379 128.651 199.984 128.449 200.548C127.804 202.121 127.965 203.37 128.409 203.935C128.651 204.257 129.86 203.653 130.949 205.265C132.28 207.281 132.804 211.757 132.804 211.757L139.779 211.555C139.779 211.555 140.626 210.95 138.973 209.862C137.319 208.773 136.11 208.531 135.344 207.16C134.618 205.749 133.529 198.089 132.602 193.21C132.481 192.726 132.36 192.041 132.239 191.234Z" fill="#FC7575"/>
<path d="M140.019 210.91C139.898 210.668 138.648 208.854 136.31 208.007L135.019 209.297C132.923 207.563 132.278 204.217 130.826 202.322C130.463 201.636 129.496 200.911 128.488 200.548C127.843 202.12 127.278 203.531 127.722 204.096C128.286 204.822 129.697 212.2 129.697 212.2L130.705 211.998C130.705 211.998 128.931 206.031 129.859 205.467C130.786 204.902 132.479 212.24 132.479 212.24L140.18 211.837C140.14 211.878 140.422 211.636 140.019 210.91Z" fill="#4F005E"/>
<path d="M122.045 148.98C121.602 148.415 118.82 148.335 118.82 148.335C118.82 148.335 115.675 148.536 112.651 147.569C110.715 146.964 100.676 144.142 94.7894 140.271C93.0556 142.166 90.4752 143.497 89.2656 145.633C89.5882 145.835 89.8704 145.996 90.193 146.158C102.127 152.447 111.24 151.278 111.24 151.278C111.24 151.278 115.312 152.851 117.287 153.092C119.263 153.334 120.674 152.73 119.666 152.085C118.658 151.439 118.053 152.085 117.126 151.48C116.199 150.875 116.521 150.915 117.005 150.351C117.489 149.786 120.392 150.351 120.473 150.794C120.553 151.238 121.723 154.786 122.287 154.06C122.851 153.375 121.44 149.988 121.037 149.746C120.634 149.504 118.618 149.101 118.618 149.101L121.36 149.544C121.36 149.544 122.408 153.173 122.892 153.092C123.497 153.092 122.489 149.544 122.045 148.98Z" fill="#FD5E5A"/>
<path d="M94.8341 140.311C94.0277 139.787 83.5448 118.176 76.3276 118.176C74.7552 118.176 69.2314 119.385 69.2314 119.385C69.2314 119.385 77.8597 140.15 89.3104 146.964C90.52 144.867 93.1004 142.206 94.8341 140.311Z" fill="#F7931E"/>
<path d="M120.515 157.85L98.9438 154.907C98.9438 154.907 85.3159 149.988 85.3159 147.811C84.9127 147.891 77.4537 152.528 77.4537 152.528C75.7603 157.89 77.8972 169.825 81.7678 169.059C87.09 170.47 115.475 169.905 115.475 169.905C115.475 169.905 124.546 190.388 127.087 197.645C128.982 197.04 132.005 195.871 133.9 195.387C132.772 187.767 122.49 158.011 120.515 157.85Z" fill="#990044"/>
<path d="M93.7391 150.149C93.215 147.77 85.9576 150.471 85.9576 139.545C85.9576 135.916 85.7156 134.021 86.0382 130.836C86.3204 127.731 74.6682 116.522 74.6682 116.522C74.6682 116.522 64.5481 118.216 64.669 121.441C64.79 124.707 68.4187 142.085 68.5397 143.133C68.9025 146.439 77.7324 160.228 77.4905 162.728C81.6434 161.882 92.1667 154.947 93.7391 150.149Z" fill="#FFBA00"/>
<path d="M86.2419 139.545C86.2419 135.916 86 134.062 86.3226 130.876C86.6451 127.732 76.0412 117.491 74.8719 116.321L74.4688 116.724C77.6943 119.829 86 128.377 85.7581 130.796C85.5565 132.973 85.5968 134.546 85.6372 136.4C85.7984 142.771 85.3146 147.165 91.685 149.101C92.7737 149.423 93.3784 149.665 93.4994 150.189L94.0639 150.068C93.4188 147.327 86.2419 150.431 86.2419 139.545Z" fill="#FFF7CF"/>
<path d="M69.5923 92.3311C69.2295 92.8552 64.7944 93.0971 61.9317 97.7741C59.1497 102.33 62.1333 110.112 64.0686 113.861C64.754 115.192 65.5604 115.958 65.5604 115.958C65.5604 115.958 67.3345 114.95 69.3504 114.628C71.4067 114.305 74.6322 113.982 76.7691 113.216C78.9464 112.41 76.4869 99.024 74.2694 95.9598C72.1324 92.8955 69.5923 92.3311 69.5923 92.3311Z" fill="#2E0A29"/>
<path d="M66.7705 92.3315C66.7705 92.3315 73.907 90.114 76.3262 95.0329C77.818 98.0972 78.5437 107.693 81.4064 107.492C81.4064 107.492 80.2774 109.024 79.2291 109.185C79.2291 109.185 78.8259 110.072 80.8419 111.523C80.8419 111.523 78.9469 112.693 76.81 113.136C76.6487 113.177 75.1972 113.902 74.794 112.652C74.3102 111.12 74.8343 107.411 74.3908 105.919C72.3749 99.7099 66.7705 92.3315 66.7705 92.3315Z" fill="#450F3D"/>
<path d="M69.793 92.8558C70.2365 92.7752 70.68 92.7349 71.0832 92.7349C71.0832 92.7349 74.5909 93.4606 75.3973 96.4442C76.2037 99.4278 76.4859 101.363 77.2117 103.258C78.3809 106.242 78.0987 111.846 74.7119 112.491C74.3087 110.878 74.7925 107.371 74.349 105.919C72.6959 100.718 70.4784 94.7105 69.793 92.8558Z" fill="#340B2E"/>
<path d="M68.5078 107.774L69.2336 117.894C69.2336 117.894 75.9669 125.393 78.9908 124.708C79.1521 124.668 75.8862 117.975 75.8056 117.733C75.8056 117.733 75.0798 111.806 74.9186 109.991C74.7573 108.258 68.5078 107.774 68.5078 107.774Z" fill="#FC7575"/>
<path d="M68.7422 108.096L69.226 113.619C73.016 116.079 74.9917 111.442 75.032 111.402C74.6288 109.95 74.9514 110.636 74.911 110.031C74.7498 108.257 68.7422 108.096 68.7422 108.096Z" fill="#FD5E5A"/>
<path d="M69.7922 92.9361C71.8082 93.0168 73.7838 94.0651 74.9531 95.7585C76.2836 97.6938 76.1626 100.315 76.969 102.451C77.6544 104.266 77.8963 109.467 75.195 111.322C72.4936 113.176 67.5747 109.144 66.4457 107.088C65.3168 105.032 64.4298 101.968 64.4701 98.4196C64.5104 96.4036 65.5587 94.5086 67.2924 93.5006C68.0988 93.0571 68.9455 92.8958 69.7922 92.9361Z" fill="#FC7575"/>
<path d="M74.6282 105.435C74.0232 105.032 73.7005 104.064 73.6602 103.378C73.9425 103.943 74.3862 104.992 74.8701 105.314L74.9508 105.395C74.9105 105.435 74.5071 105.96 73.8618 106.04C74.0635 105.96 74.4265 105.677 74.6282 105.435Z" fill="#450F3D"/>
<path d="M72.0155 100.677C72.0155 100.677 71.6122 100.395 70.9265 100.395C70.2409 100.395 68.9502 101.444 68.9502 101.444C68.9502 101.444 70.2812 100.758 70.6845 100.718C71.0879 100.637 71.7735 100.919 71.7735 100.919L72.0155 100.677Z" fill="#5C1451"/>
<path d="M73.8633 100.436C73.8633 100.436 74.065 100.073 74.6296 99.7905C75.1539 99.5082 76.5253 99.7905 76.5253 99.7905C76.5253 99.7905 75.2346 99.8308 74.912 99.9115C74.5893 100.033 74.1053 100.476 74.1053 100.476L73.8633 100.436Z" fill="#5C1451"/>
<path d="M72.533 102.492C72.1297 102.21 71.3633 102.21 70.96 102.371C70.355 102.613 70.113 103.218 69.75 103.38C70.355 103.42 70.4357 102.694 71.807 102.492C72.0087 102.452 72.2507 102.412 72.533 102.492Z" fill="#2E0A29"/>
<path d="M74.5547 102.653C74.6354 102.169 75.2 101.645 75.6437 101.484C76.2487 101.242 76.8537 101.524 77.2167 101.363C76.773 101.806 76.2487 101.322 75.1194 102.129C74.9177 102.29 74.716 102.452 74.5547 102.653Z" fill="#2E0A29"/>
<path d="M71.6505 105.153C71.7312 105.637 71.2069 106.162 70.4405 106.323C69.6742 106.484 68.9482 106.242 68.8676 105.758C68.7869 105.274 69.3112 104.75 70.0775 104.589C70.8439 104.428 71.5699 104.67 71.6505 105.153Z" fill="#FD5E5A"/>
<path d="M77.2555 103.701C77.3362 104.064 76.9732 104.427 76.4489 104.548C75.9245 104.669 75.4405 104.427 75.3599 104.064C75.2792 103.701 75.6422 103.338 76.1665 103.217C76.6908 103.137 77.1748 103.338 77.2555 103.701Z" fill="#FD5E5A"/>
<path d="M69.7934 92.8561C69.7934 92.8561 66.4469 98.0976 67.3742 102.009C68.3419 105.919 72.6157 110.274 72.6157 110.274L70.0353 112.29L73.0189 114.024C73.0189 114.024 64.4309 116.402 62.6569 116.402C60.9231 116.402 53.5447 108.097 59.1491 97.4121C61.8102 92.4126 67.0113 91.4852 69.7934 92.8561Z" fill="#170053"/>
<path d="M72.374 107.774C72.374 107.774 75.9221 107.411 76.3253 106.686C76.3253 106.686 76.1237 108.379 74.9948 108.702C73.8255 108.984 72.374 107.774 72.374 107.774Z" fill="#170053"/>
<path d="M76.2043 107.209C76.285 106.886 76.3253 106.645 76.3253 106.645C75.9221 107.411 72.374 107.733 72.374 107.733C72.374 107.733 72.5756 107.894 72.8579 108.096C73.7852 107.975 75.6399 107.693 76.2043 107.209Z" fill="white"/>
<path d="M107.208 182.606L71.6059 182.364C62.655 181.92 55.2766 175.268 53.9057 166.438L48.503 131.562C47.7772 126.844 52.293 122.933 56.8087 124.546C57.2926 124.707 57.6151 124.909 57.7361 125.151C59.873 129.384 63.1792 144.262 68.219 148.576C74.2266 153.737 90.2333 151.036 101.442 150.068C101.442 150.068 107.611 149.141 108.659 154.503C109.546 159.019 107.409 177.324 107.208 182.606Z" fill="#513D7E"/>
<path d="M107.209 182.606C102.572 182.767 73.1796 183.654 69.3493 183.09C60.9226 181.799 54.149 175.308 52.8588 166.277C52.8588 166.196 47.9399 132.973 48.0205 130.554C48.2221 126.078 52.6975 122.853 56.8504 124.586C53.0201 123.337 48.0205 126.401 49.1898 132.207C55.8021 168.494 54.4716 167.607 56.9714 172.123C59.9147 177.606 65.9222 181.517 73.0184 181.517C77.0503 181.557 89.388 181.678 107.209 182.606Z" fill="#3D2E5F"/>
<path d="M56.8086 124.506C57.6956 124.748 57.7359 124.748 58.7439 126.804C60.8002 131.239 65.3563 144.343 68.6624 146.964L69.1462 147.407C73.9039 151.479 89.1849 149.504 95.7972 148.859C95.8779 148.859 101.2 148.375 101.16 148.375C105.958 148.012 109.667 149.988 110.191 154.745C110.796 160.632 107.893 178.09 107.208 182.565C106.804 168.131 108.699 155.673 106.441 153.052C104.587 150.754 100.273 151.963 99.2243 151.963L96.1601 152.286C72.4121 154.826 67.0497 153.132 62.6549 141.803C59.9132 134.666 58.2601 125.554 57.4537 124.869C57.2924 124.748 57.0505 124.627 56.8086 124.506Z" fill="#AC95E0"/>
<path d="M67.9411 93.3789C67.2556 93.7418 66.6912 94.2659 66.167 94.7901C62.1351 99.1445 63.0221 104.749 67.4169 107.853L66.1267 109.507C61.4094 105.273 61.0868 98.7817 65.9655 94.5885C66.5702 94.145 67.2153 93.7015 67.9411 93.3789Z" fill="#2D1175"/>
<path d="M65.8015 92.9365C61.6083 96.0814 58.3022 101.686 60.681 106.363L61.0035 107.129C61.0842 107.21 63.6646 112.774 69.269 113.015L69.148 115.112C59.9956 113.943 53.7058 100.678 65.8015 92.9365Z" fill="#2D1175"/>
<path d="M69.7898 92.8553C69.7898 92.8553 72.5314 92.0086 74.5474 93.3794C76.5634 94.7503 74.4668 97.9758 72.0073 98.9838C69.5075 99.9918 66.161 100.798 66.7658 103.338C67.3706 105.919 68.4995 106.644 68.4995 106.644C68.4995 106.644 64.6289 105.395 64.6289 102.008C64.6289 98.6209 65.8385 93.2181 69.7898 92.8553Z" fill="#2D1175"/>
<path d="M105.113 150.351C104.831 149.947 102.936 148.577 101.807 148.294C101.041 148.093 99.9121 148.133 99.146 148.214C98.3396 148.133 97.4929 148.133 96.6462 148.214C93.5416 148.496 78.2607 148.133 76.527 146.964C76.2447 146.762 75.9625 146.52 75.7206 146.198C73.3821 148.133 71.1645 150.149 70.1162 152.609C70.2775 152.729 70.3984 152.81 70.5597 152.891C76.2447 156.076 91.2031 151.48 95.4366 150.794C99.6298 150.109 102.291 152.528 103.46 153.657C103.541 153.737 103.823 153.858 103.823 153.294C103.823 152.77 102.654 151.117 102.654 151.117C102.654 151.117 104.025 151.923 104.549 153.576C105.073 155.229 105.154 153.536 104.912 152.891C104.67 152.246 103.42 150.955 103.42 150.834C103.42 150.552 105.355 153.012 105.597 153.697C105.839 154.383 106.081 153.254 105.758 152.609C105.678 152.447 105.516 152.205 105.355 151.963C105.758 152.447 106.121 152.891 106.242 152.891C106.484 152.931 106.162 151.439 105.113 150.351Z" fill="#FC7575"/>
<path d="M76.5267 146.963C75.0349 139.988 70.1159 118.458 66.7694 118.942C66.7694 118.942 62.9794 118.74 61.6892 123.417C60.4393 127.973 64.6728 149.1 70.1159 153.132C71.1642 150.673 74.2285 148.899 76.5267 146.963Z" fill="#FFCB57"/>
<path d="M414.122 112.329H379.085C370.86 112.329 364.207 105.677 364.207 97.4514V14.8778C364.207 6.65266 370.86 0 379.085 0H414.122C422.347 0 429 6.65266 429 14.8778V97.4514C429 105.677 422.347 112.329 414.122 112.329Z" fill="#A0A2B3"/>
<path d="M379.128 106.201C374.29 106.201 370.379 102.29 370.379 97.4513V14.8777C370.379 10.0394 374.29 6.12842 379.128 6.12842H414.166C419.004 6.12842 422.915 10.0394 422.915 14.8777V97.4513C422.915 102.29 419.004 106.201 414.166 106.201H379.128Z" fill="#DBE1FF"/>
<path d="M417.63 15.1191H375.698V93.5802H417.63V15.1191Z" fill="white"/>
<path d="M391.462 84.4689C391.824 85.2753 393.76 89.3072 395.655 90.2345H395.695L397.671 90.5168H397.711L399.687 91.4441C399.727 91.4441 399.727 91.4441 399.767 91.4441C399.888 91.4441 399.969 91.5247 399.969 91.6457V91.8876C399.969 91.9683 399.929 92.0489 399.848 92.0892C399.485 92.2102 398.275 92.4521 394.889 92.2908C394.808 92.2908 394.768 92.2505 394.727 92.1699C394.445 91.6054 393.034 89.025 391.703 88.5411C391.582 88.5008 391.462 88.5814 391.462 88.7427V92.1295C391.462 92.2505 391.381 92.3311 391.26 92.3311H390.937C390.816 92.3311 390.736 92.2505 390.736 92.1699C390.655 91.2828 390.333 87.4928 390.01 87.1703C389.647 86.8074 389.284 84.6302 391.3 84.3076C391.341 84.3076 391.421 84.3883 391.462 84.4689Z" fill="#FF0000"/>
<path d="M393.035 90.395C393.116 91.121 393.156 91.726 393.196 92.0083C393.196 92.1293 393.277 92.1697 393.398 92.1697H393.721C393.842 92.1697 393.922 92.089 393.922 91.968V91.6453C393.64 91.242 393.358 90.7983 393.035 90.395Z" fill="#FF0000"/>
<path d="M402.264 91.3227C402.223 91.3227 402.223 91.3227 402.183 91.3227L400.207 90.3954H400.167L398.191 90.1132C398.151 90.1132 398.151 90.1132 398.151 90.1132C396.256 89.1858 394.321 85.1136 393.958 84.3475C393.917 84.2669 393.837 84.2266 393.756 84.2266C392.909 84.3475 392.506 84.8314 392.305 85.3555C392.869 86.4844 393.595 87.6537 394.321 88.581C394.845 88.823 395.369 89.3471 395.812 89.9519L397.707 90.2341C397.748 90.2341 397.828 90.2744 397.869 90.2744L399.804 91.2018C400.127 91.2421 400.369 91.484 400.369 91.8066V92.0485C400.369 92.1291 400.369 92.2098 400.328 92.2904C401.538 92.2501 402.102 92.1291 402.344 92.0485C402.425 92.0082 402.465 91.9275 402.465 91.8469V91.605C402.465 91.4034 402.385 91.3227 402.264 91.3227Z" fill="#FF0000"/>
<path d="M409.605 98.2986C409.605 98.8229 409.161 99.2666 408.637 99.2666C408.113 99.2666 407.669 98.8229 407.669 98.2986C407.669 97.7742 408.113 97.3306 408.637 97.3306C409.161 97.3306 409.605 97.7742 409.605 98.2986Z" fill="#586086"/>
<path d="M415.252 98.2986C415.252 98.8229 414.809 99.2666 414.284 99.2666C413.76 99.2666 413.316 98.8229 413.316 98.2986C413.316 97.7742 413.76 97.3306 414.284 97.3306C414.809 97.3306 415.252 97.7742 415.252 98.2986Z" fill="#586086"/>
<path d="M420.896 98.2986C420.896 98.8229 420.452 99.2666 419.928 99.2666C419.404 99.2666 418.96 98.8229 418.96 98.2986C418.96 97.7742 419.404 97.3306 419.928 97.3306C420.452 97.3306 420.896 97.7742 420.896 98.2986Z" fill="#586086"/>
<path d="M380.891 9.1123L382.907 12.0153L386.214 10.6444L386.335 14.2328L389.802 14.8376L387.988 17.9019L390.608 20.2807L387.423 21.8935L388.31 25.3206L384.762 24.9174L383.673 28.3042L380.891 26.0463L378.15 28.3042L377.021 24.9174L373.513 25.3206L374.4 21.8935L371.215 20.2807L373.836 17.9019L371.981 14.8376L375.489 14.2328L375.61 10.6444L378.875 12.0153L380.891 9.1123Z" fill="#F15A24"/>
<path d="M383.761 14.3535H384.809L378.761 22.8205H377.713L382.874 15.5631C381.785 15.7244 381.14 15.7244 380.495 15.684C381.14 17.7 378.802 18.9096 377.511 17.6194C376.302 16.4501 377.27 14.5148 378.761 14.5148C379.447 14.4745 381.705 15.3615 383.761 14.3535ZM378.157 15.684C377.794 16.0469 377.834 16.5711 378.157 16.9339C378.963 17.7403 380.213 16.4904 379.406 15.684C379.245 15.5228 378.519 15.3212 378.157 15.684ZM385.091 19.3934C386.261 20.5627 385.414 22.498 383.801 22.498C382.793 22.498 381.987 21.6916 381.987 20.6836C382.027 19.0305 383.962 18.2645 385.091 19.3934ZM383.196 20.0385C382.39 20.8852 383.64 22.0948 384.446 21.2884C385.253 20.482 384.003 19.2321 383.196 20.0385Z" fill="white"/>
<path d="M391.547 38.868L392.676 38.5454C392.676 38.5454 394.369 39.9969 396.385 39.8356C398.401 39.6743 399.933 38.747 399.933 38.747L401.788 39.1905C401.788 39.1905 399.006 46.3673 396.667 45.7222C394.329 45.0771 391.547 38.868 391.547 38.868Z" fill="#C61937"/>
<path d="M390.655 44.9161C390.655 44.9161 390.696 46.7305 390.897 47.2949C391.099 47.8191 391.462 48.8271 391.462 48.8271L391.905 52.2542H400.453L400.816 48.5852C400.816 48.5852 401.582 46.8111 401.582 46.287V44.5936C401.582 44.4726 401.582 44.3517 401.582 44.1904C401.662 43.3034 402.106 39.9569 402.469 39.3521L399.888 38.707C399.888 38.707 398.397 43.4646 395.776 42.9002C393.155 42.3357 392.591 38.5054 392.591 38.5054L389.809 39.3118C389.889 39.3521 391.3 43.7469 390.655 44.9161Z" fill="#FF1900"/>
<path d="M391.947 52.2539H400.494C400.494 52.2539 405.695 58.7856 408.034 66.164C410.372 73.5424 410.131 74.0666 410.131 74.0666C410.131 74.0666 403.881 77.2115 398.599 76.0422C393.358 74.873 386.1 77.3727 382.633 73.9053C382.633 73.9053 387.834 56.4068 391.947 52.2539Z" fill="#FF1D3B"/>
<path opacity="0.78" d="M404.005 76.0419C405.9 75.7193 407.553 75.1549 408.682 74.671C407.351 69.994 402.271 54.9953 400.497 53.9873C400.497 53.9873 403.279 69.1473 404.005 76.0419Z" fill="#C61937"/>
<path opacity="0.78" d="M398.763 53.5039C398.763 53.5039 403.238 71.1234 400.497 72.6152C397.755 74.107 398.763 53.5039 398.763 53.5039Z" fill="#C61937"/>
<path opacity="0.78" d="M385.216 75.3972C387.312 76.0423 389.853 75.881 392.473 75.8003C392.312 67.5349 394.247 53.02 394.247 53.02C389.893 55.4392 386.627 68.5832 385.216 75.3972Z" fill="#C61937"/>
<path opacity="0.78" d="M396.257 53.5039C396.257 53.5039 393.838 67.9382 395.612 67.9382C397.346 67.9382 396.257 53.5039 396.257 53.5039Z" fill="#C61937"/>
<path opacity="0.78" d="M394.527 51.3265C392.35 50.2379 391.745 42.4966 390.495 39.1904L389.891 39.3517C389.891 39.3517 391.302 43.7465 390.657 44.9157C390.657 44.9157 390.697 46.7301 390.899 47.2946C391.1 47.8187 391.463 48.8267 391.463 48.8267L391.907 52.2538H400.454L400.575 51.2459C399.648 51.649 396.463 52.2941 394.527 51.3265Z" fill="#C61937"/>
<path d="M396.219 52.6577C393.76 52.6577 392.147 52.4561 391.784 52.3351L391.824 51.8916C392.107 52.0126 393.719 52.2545 396.219 52.2545C398.679 52.2545 400.453 51.9319 400.614 51.8916V52.3351C400.453 52.3754 398.719 52.6577 396.219 52.6577Z" fill="#4B314C"/>
<path d="M396.869 52.4554C396.869 52.5361 396.829 52.6168 396.829 52.6571C396.708 52.6571 396.627 52.6571 396.506 52.6571C396.425 52.6571 396.345 52.6571 396.264 52.6571C396.224 52.6571 396.183 52.6571 396.143 52.6571C395.135 52.6168 394.409 52.4958 394.046 52.3748C393.965 52.3344 393.884 52.2134 393.925 52.1328C393.965 52.0118 394.086 51.9311 394.207 51.9714C394.53 52.0924 395.215 52.2134 396.183 52.2134C396.224 52.2134 396.264 52.2134 396.304 52.2134C396.385 52.2134 396.466 52.2134 396.546 52.2134C396.667 52.2134 396.748 52.2134 396.869 52.2134C396.869 52.2941 396.869 52.3748 396.869 52.4554Z" fill="#745075"/>
<path d="M396.787 52.6569C396.061 52.6972 394.73 52.6165 394.045 52.3745C393.964 52.3342 393.883 52.2535 393.924 52.1325C393.964 52.0519 394.045 51.9712 394.125 51.9712C394.166 51.9712 394.166 51.9712 394.206 51.9712C394.892 52.1729 396.021 52.2535 396.787 52.2132C396.908 52.3342 396.908 52.4955 396.787 52.6569Z" fill="#745075"/>
<path d="M396.948 52.6575C396.706 53.1012 395.859 53.1012 395.577 52.6575C395.658 52.6575 395.698 52.6575 395.779 52.6575C395.9 52.7785 396.061 52.8188 396.263 52.8188C396.586 52.8188 396.747 52.6575 396.747 52.6575C397.11 52.2542 396.263 51.8105 395.779 52.2138C395.698 52.2138 395.658 52.2138 395.577 52.2138C395.698 52.0525 395.94 51.9315 396.223 51.9315C396.828 51.8912 397.15 52.2945 396.948 52.6575Z" fill="#FFCE00"/>
<path d="M396.868 52.4558C396.868 52.4956 396.828 52.4956 396.828 52.4956L396.788 52.4558C396.788 52.416 396.828 52.416 396.828 52.416C396.828 52.416 396.868 52.416 396.868 52.4558Z" fill="#3C233D"/>
<path d="M396.909 52.4965H396.828C396.788 52.4965 396.788 52.4563 396.788 52.4563C396.788 52.416 396.828 52.416 396.828 52.416H396.909C396.949 52.416 396.949 52.4563 396.949 52.4563C396.989 52.4563 396.949 52.4965 396.909 52.4965Z" fill="#FFD15F"/>
<path d="M396.989 52.416C396.989 52.4563 396.949 52.4563 396.949 52.4563H396.788L396.828 52.4965H396.909C396.949 52.4965 396.989 52.4563 396.989 52.416C396.989 52.4563 396.989 52.416 396.989 52.416Z" fill="#FF875F"/>
<path d="M395.894 52.0526C396.297 51.8913 396.66 51.972 396.862 52.1736C396.902 52.2139 396.862 52.2543 396.821 52.214C396.62 52.0526 396.297 51.9316 395.894 52.0526Z" fill="#FFF983"/>
<path d="M395.894 52.8587C396.297 53.02 396.66 52.9394 396.862 52.7377C396.902 52.6974 396.862 52.657 396.821 52.6974C396.66 52.899 396.297 53.02 395.894 52.8587Z" fill="#FFF983"/>
<path opacity="0.24" d="M394.768 43.8272C393.558 43.9885 392.873 45.2787 393.397 46.3673C393.397 46.3673 393.397 46.4076 393.437 46.4076C394.284 47.9801 399.364 49.0687 400.493 47.3753C401.582 45.7222 402.146 42.8192 394.768 43.8272Z" fill="#FFA18B"/>
<path d="M406.185 30.6426C406.185 30.6426 401.225 30.9652 394.653 31.8522C388.081 32.7392 382.396 30.8845 384.735 29.3927C384.816 29.3524 385.017 29.2718 385.138 29.2314C386.751 28.9492 406.185 30.6426 406.185 30.6426Z" fill="#FF751D"/>
<path d="M399.658 22.2976C399.134 22.2976 396.513 22.1363 395.303 23.3056C394.134 24.4748 394.618 26.2489 392.239 26.9746C389.86 27.7003 385.103 29.2728 385.103 29.2728C385.103 29.2728 387.32 29.0309 390.586 29.5953C393.852 30.1598 404.254 33.9901 407.359 33.9901C410.463 33.9901 412.761 33.7482 413.487 32.3371C413.487 32.3371 407.036 29.9179 404.859 28.8293C404.859 28.8293 404.415 28.3455 404.415 27.0552C404.415 25.8054 404.778 25.0796 403.327 23.6281C401.916 22.2573 399.658 22.2976 399.658 22.2976Z" fill="#FF951D"/>
<path d="M397.796 22.942C397.796 22.942 395.66 22.6598 395.176 23.9903C394.692 25.2805 394.813 25.3209 396.103 25.8853C397.393 26.4498 399.409 26.1676 399.691 24.958C399.974 23.6678 398.361 22.942 397.796 22.942Z" fill="#FFBD1D"/>
<path d="M385.103 29.272C386.352 29.1511 388.328 29.1511 390.626 29.514C394.618 30.2397 404.698 33.9491 407.56 33.8684C409.133 33.8684 411.713 33.8684 412.923 33.0217C413.165 32.8604 413.366 32.6185 413.528 32.3363C412.963 33.4249 411.552 33.7475 410.302 33.9088C409.294 34.0297 407.722 34.1103 406.593 34.0297L406.149 33.9491C402.722 33.5056 393.57 30.28 390.586 29.6752C388.852 29.393 386.917 29.1914 385.103 29.272Z" fill="#CC3403"/>
<path d="M404.45 28.8287C404.571 28.8287 404.692 28.8287 404.813 28.7884C404.732 28.6674 404.571 28.3852 404.49 27.9417C403.401 27.982 402.071 27.982 400.982 27.8207C397.999 27.3369 396.708 26.3289 393.967 25.7241C393.805 26.0064 393.563 26.2483 393.281 26.4499C397.474 27.2966 398.603 29.1109 404.45 28.8287Z" fill="#FF1932"/>
<path d="M404.494 27.9819C403.808 28.0223 403.002 28.0223 402.195 27.9819C402.114 28.3046 401.913 28.5869 401.711 28.8289C402.477 28.9096 403.405 28.9903 404.413 28.9499C404.534 28.9499 404.736 28.9096 404.857 28.9096C404.817 28.7483 404.615 28.4256 404.494 27.9819Z" fill="#D81809"/>
<path opacity="0.33" d="M413.522 32.3766C413.522 32.3766 407.071 29.9574 404.893 28.8688C404.893 28.8688 404.45 28.385 404.45 27.0948C404.45 25.8449 404.813 25.1191 403.361 23.6676C401.91 22.2161 399.652 22.2565 399.652 22.2565C399.652 22.2565 399.612 22.2565 399.571 22.2565C400.539 23.3048 401.587 24.5546 401.99 25.7239C402.918 28.2237 400.862 29.5945 400.862 29.5945C400.862 29.5945 405.458 31.6508 406.667 32.8201C407.03 33.1829 407.232 33.5861 407.393 33.9893C410.538 33.9893 412.796 33.7474 413.522 32.3766Z" fill="#FF891D"/>
<path d="M390.256 28.143C390.256 28.143 391.828 27.4576 393.32 27.7802C394.812 28.1027 397.554 29.1107 396.787 29.8768C395.941 30.6831 389.127 29.03 390.256 28.143Z" fill="#FFBD1D"/>
<path d="M401.311 28.2649C401.472 26.9747 401.432 24.6362 400.626 23.7491C400.101 23.1444 399.335 23.5476 399.134 24.112C398.731 25.3216 400.343 27.2972 401.271 28.1439C401.271 28.1843 401.271 28.2246 401.311 28.2649ZM399.779 24.1523C399.94 23.9911 400.021 23.9507 400.182 24.112C400.787 24.7168 401.15 27.2569 401.271 28.1036C400.747 27.2569 399.174 24.8781 399.779 24.1523Z" fill="#FF4304"/>
<path d="M405.581 26.9741C406.67 25.8855 405.178 25.1194 405.138 25.0791C403.565 24.2727 402.194 26.5306 401.751 28.103C402.638 26.6919 404.089 24.5953 405.218 25.8048C405.783 26.329 404.896 26.8934 404.21 27.216C403.444 27.5789 402.598 27.8208 401.751 28.103C402.638 28.0627 403.525 27.9417 404.372 27.6192C404.815 27.5386 405.218 27.2966 405.581 26.9741Z" fill="#FF4304"/>
<path d="M401.993 30.9251C401.307 30.4009 401.267 29.272 401.307 28.4253C401.307 28.4253 401.227 28.7075 401.227 29.0704C401.307 31.4492 402.517 31.6911 404.694 30.8444L404.492 30.4413C403.847 30.8848 402.638 31.3686 401.993 30.9251Z" fill="#FF4304"/>
<path d="M405.705 28.4261L405.342 28.668C405.826 29.434 405.503 29.7969 405.503 29.8372C405.463 29.8776 405.423 29.9985 405.221 30.0792C404.415 30.5227 402.359 28.9905 401.633 28.3857C402.399 29.1115 404.375 30.8049 405.342 30.3211C405.665 30.2001 405.745 30.0388 405.786 29.9985C405.786 29.9985 406.27 29.4744 405.705 28.4261Z" fill="#FF4304"/>
<path d="M402.033 28.1432C402.033 28.3852 401.791 28.6272 401.509 28.6272C401.226 28.6272 400.984 28.4255 400.984 28.1432C400.984 27.9012 401.226 27.6592 401.509 27.6592C401.791 27.6592 402.033 27.9012 402.033 28.1432Z" fill="#FF4304"/>
</svg>
